<?plantuml 1.2026.2?>
<svg xmlns="http://www.w3.org/2000/svg" xmlns:xlink="http://www.w3.org/1999/xlink" contentStyleType="text/css" data-diagram-type="DESCRIPTION" height="800px" preserveAspectRatio="none" style="width:3219px;height:800px;background:#FEFEFE;" version="1.1" viewBox="0 0 3219 800" width="3219px" zoomAndPan="magnify"><title>StreamDesk Component Diagram (Static View)</title><defs/><g><rect fill="#FEFEFE" height="800" style="stroke:none;stroke-width:1;" width="3219" x="0" y="0"/><g class="title" data-source-line="5"><text fill="#000000" font-family="Verdana" font-size="22" font-weight="bold" lengthAdjust="spacing" textLength="580.4971" x="1315.2202" y="35.4209">StreamDesk Component Diagram (Static View)</text></g><!--cluster Client--><g class="cluster" data-qualified-name="Client" data-source-line="8" id="ent0002"><path d="M1990.5,257.6094 L2206.3809,257.6094 A3.75,3.75 0 0 1 2208.8809,260.1094 L2215.8809,279.9063 L2215.5,279.9063 A2.5,2.5 0 0 1 2218,282.4063 L2218,790.6094 A2.5,2.5 0 0 1 2215.5,793.1094 L1990.5,793.1094 A2.5,2.5 0 0 1 1988,790.6094 L1988,260.1094 A2.5,2.5 0 0 1 1990.5,257.6094" fill="#FFFFFF" style="stroke:#000000;stroke-width:1;"/><line style="stroke:#000000;stroke-width:1;" x1="1988" x2="2215.8809" y1="279.9063" y2="279.9063"/><text fill="#000000" font-family="Verdana" font-size="14" font-weight="bold" lengthAdjust="spacing" textLength="214.8809" x="1992" y="272.6045">Client (React + TypeScript)</text></g><!--cluster Server--><g class="cluster" data-qualified-name="Server" data-source-line="21" id="ent0011"><path d="M1200.5,57.6094 L1413.6396,57.6094 A3.75,3.75 0 0 1 1416.1396,60.1094 L1423.1396,79.9063 L2303.5,79.9063 A2.5,2.5 0 0 1 2306,82.4063 L2306,611.1094 A2.5,2.5 0 0 1 2303.5,613.6094 L1200.5,613.6094 A2.5,2.5 0 0 1 1198,611.1094 L1198,60.1094 A2.5,2.5 0 0 1 1200.5,57.6094" fill="#FFFFFF" style="stroke:#000000;stroke-width:1;"/><line style="stroke:#000000;stroke-width:1;" x1="1198" x2="1423.1396" y1="79.9063" y2="79.9063"/><text fill="#000000" font-family="Verdana" font-size="14" font-weight="bold" lengthAdjust="spacing" textLength="212.1396" x="1202" y="72.6045">Server (Node.js + Express)</text></g><!--cluster DB--><g class="cluster" data-qualified-name="DB" data-source-line="38" id="ent0021"><path d="M11,454.6094 C11,444.6094 592.5,444.6094 592.5,444.6094 C592.5,444.6094 1174,444.6094 1174,454.6094 L1174,619.6094 C1174,629.6094 592.5,629.6094 592.5,629.6094 C592.5,629.6094 11,629.6094 11,619.6094 L11,454.6094" fill="#FFFFFF" style="stroke:#000000;stroke-width:1;"/><path d="M11,454.6094 C11,464.6094 592.5,464.6094 592.5,464.6094 C592.5,464.6094 1174,464.6094 1174,454.6094" fill="none" style="stroke:#000000;stroke-width:1;"/><text fill="#000000" font-family="Verdana" font-size="14" font-weight="bold" lengthAdjust="spacing" textLength="92.2305" x="546.3848" y="479.6045">PostgreSQL</text></g><!--cluster External--><g class="cluster" data-qualified-name="External" data-source-line="50" id="ent0028"><path d="M2781.6844,267.692 C2788.3364,258.5236 2793.8946,260.0979 2799.8659,268.4004 C2806.4233,259.2808 2812.563,257.2362 2820.0818,267.3922 C2823.7689,260.1634 2831.4087,258.9008 2836.3857,265.9156 C2843.4947,255.7397 2850.7827,255.8237 2857.5367,266.2796 C2862.9366,255.5095 2870.2838,254.5523 2877.305,264.7511 C2882.7397,254.8648 2890.9415,256.3109 2896.0653,265.0641 C2902.237,256.9308 2909.137,255.5982 2914.5974,265.7836 C2919.6858,256.4464 2928.3645,257.0329 2932.4349,266.7372 C2938.5541,256.7129 2947.0438,257.3225 2952.8573,267.0533 C2957.3274,256.8683 2965.6195,258.12 2971.0366,266.1058 C2977.0757,257.508 2986.5898,258.3752 2990.6063,268.2487 C2994.33,257.9411 3002.3424,257.586 3008.6128,265.7687 C3015.2126,258.1272 3020.2203,259.8891 3025.3077,267.4317 C3035.8586,255.1189 3045.6061,259.3328 3051,272.6094 C3052.2691,272.7214 3052.8165,273.6938 3052.1165,274.8065 C3063.4875,280.3143 3064.0344,290.1405 3052.869,296.4326 C3067.0014,302.7773 3067.7983,310.8436 3057.6081,321.7425 C3066.3894,328.9898 3068.3907,338.0175 3056.3842,344.1283 C3065.8859,357.5499 3061.7303,371.0289 3044,372.6094 C3045.2999,372.4399 3045.8283,373.1903 3045.2575,374.3626 C3038.4659,385.0173 3032.1716,382.5342 3025.5634,374.1726 C3020.1747,382.2301 3010.7309,383.6367 3006.1605,373.309 C3002.2801,382.3348 2996.5027,383.1423 2989.9668,375.9627 C2985.0947,387.2652 2974.609,388.301 2968.7049,376.9306 C2960.9989,386.242 2954.347,383.0268 2949.8255,373.7042 C2946.2317,383.3646 2938.0632,383.1113 2932.8613,375.2622 C2927.1117,386.3613 2919.9114,385.6077 2912.2796,377.2536 C2905.6884,387.2191 2898.5578,385.2339 2893.3488,375.8979 C2888.3267,383.0969 2882.249,384.6638 2877.1369,375.9899 C2872.0746,385.4335 2862.7386,386.1496 2858.0415,375.6405 C2850.9981,384.8354 2845.2133,384.2753 2838.8253,374.96 C2831.9312,384.2564 2823.2983,383.699 2816.9445,374.3268 C2812.2742,381.8322 2806.1555,384.46 2799.8951,376.0278 C2785.0262,386.7216 2776.3443,383.0951 2772,365.6094 C2773.8353,364.9579 2774.8691,365.6255 2774.5687,367.6554 C2761.2041,363.802 2760.0259,352.1412 2768.8073,343.0932 C2754.6727,339.0997 2754.9277,329.7254 2763.1478,320.2044 C2752.3879,309.3703 2758.3897,300.3752 2770.1831,296.1328 C2760.7892,282.7623 2763.7638,271.8653 2779,265.6094 C2780.7752,264.9669 2781.9684,265.6802 2781.6844,267.692" fill="#FFFFFF" style="stroke:#000000;stroke-width:1;"/><text fill="#000000" font-family="Verdana" font-size="14" font-weight="bold" lengthAdjust="spacing" textLength="65.8984" x="2878.5508" y="283.6045">External</text></g><!--entity TaskUI--><g class="entity" data-qualified-name="Client.TaskUI" data-source-line="9" id="ent0003"><rect fill="#FFFFFF" height="52.5938" rx="2.5" ry="2.5" style="stroke:#000000;stroke-width:1;" width="137.1748" x="2308.5" y="311.6094"/><text fill="#000000" font-family="Verdana" font-size="14" lengthAdjust="spacing" textLength="117.1748" x="2318.5" y="334.6045">Task Manager UI</text><text fill="#000000" font-family="Verdana" font-size="14" lengthAdjust="spacing" textLength="63.8955" x="2318.5" y="350.9014">(Kanban)</text></g><!--entity CalendarUI--><g class="entity" data-qualified-name="Client.CalendarUI" data-source-line="10" id="ent0004"><rect fill="#FFFFFF" height="36.2969" rx="2.5" ry="2.5" style="stroke:#000000;stroke-width:1;" width="101.7783" x="2643" y="320.1094"/><text fill="#000000" font-family="Verdana" font-size="14" lengthAdjust="spacing" textLength="81.7783" x="2653" y="343.1045">Calendar UI</text></g><!--entity EquipmentUI--><g class="entity" data-qualified-name="Client.EquipmentUI" data-source-line="11" id="ent0005"><rect fill="#FFFFFF" height="52.5938" rx="2.5" ry="2.5" style="stroke:#000000;stroke-width:1;" width="114.8213" x="2158.5" y="311.6094"/><text fill="#000000" font-family="Verdana" font-size="14" lengthAdjust="spacing" textLength="94.8213" x="2168.5" y="334.6045">Equipment UI</text><text fill="#000000" font-family="Verdana" font-size="14" lengthAdjust="spacing" textLength="89.9336" x="2168.5" y="350.9014">(Warehouse)</text></g><!--entity AdminUI--><g class="entity" data-qualified-name="Client.AdminUI" data-source-line="12" id="ent0006"><rect fill="#FFFFFF" height="52.5938" rx="2.5" ry="2.5" style="stroke:#000000;stroke-width:1;" width="126.5381" x="2480.5" y="311.6094"/><text fill="#000000" font-family="Verdana" font-size="14" lengthAdjust="spacing" textLength="106.5381" x="2490.5" y="334.6045">Admin Panel UI</text><text fill="#000000" font-family="Verdana" font-size="14" lengthAdjust="spacing" textLength="87.124" x="2490.5" y="350.9014">(Dashboard)</text></g><!--entity HTTP--><g class="entity" data-qualified-name="Client.HTTP" data-source-line="14" id="ent0007"><rect fill="#FFFFFF" height="52.5938" rx="2.5" ry="2.5" style="stroke:#000000;stroke-width:1;" width="116.7559" x="2627.5" y="544.6094"/><text fill="#000000" font-family="Verdana" font-size="14" lengthAdjust="spacing" textLength="81.0537" x="2637.5" y="567.6045">HTTP Client</text><text fill="#000000" font-family="Verdana" font-size="14" lengthAdjust="spacing" textLength="96.7559" x="2637.5" y="583.9014">(fetch / axios)</text></g><!--entity WSClient--><g class="entity" data-qualified-name="Client.WSClient" data-source-line="15" id="ent0008"><rect fill="#FFFFFF" height="52.5938" rx="2.5" ry="2.5" style="stroke:#000000;stroke-width:1;" width="143.6826" x="1979" y="311.6094"/><text fill="#000000" font-family="Verdana" font-size="14" lengthAdjust="spacing" textLength="123.6826" x="1989" y="334.6045">WebSocket Client</text><text fill="#000000" font-family="Verdana" font-size="14" lengthAdjust="spacing" textLength="34.3848" x="1989" y="350.9014">(/ws)</text></g><!--entity ClientSchemas--><g class="entity" data-qualified-name="Client.ClientSchemas" data-source-line="16" id="ent0009"><rect fill="#FFFFFF" height="52.5938" rx="2.5" ry="2.5" style="stroke:#000000;stroke-width:1;" width="167.5264" x="2569" y="724.1094"/><text fill="#000000" font-family="Verdana" font-size="14" lengthAdjust="spacing" textLength="147.5264" x="2579" y="747.1045">Shared Zod schemas</text><text fill="#000000" font-family="Verdana" font-size="14" lengthAdjust="spacing" textLength="135.5703" x="2579" y="763.4014">(shared/schema.ts)</text></g><!--entity ClientPerms--><g class="entity" data-qualified-name="Client.ClientPerms" data-source-line="17" id="ent0010"><rect fill="#FFFFFF" height="52.5938" rx="2.5" ry="2.5" style="stroke:#000000;stroke-width:1;" width="248.0127" x="2344" y="544.6094"/><text fill="#000000" font-family="Verdana" font-size="14" lengthAdjust="spacing" textLength="228.0127" x="2354" y="567.6045">Equipment Permission Evaluator</text><text fill="#000000" font-family="Verdana" font-size="14" lengthAdjust="spacing" textLength="96.2227" x="2354" y="583.9014">(client/src/lib)</text></g><!--entity Routes--><g class="entity" data-qualified-name="Server.Routes" data-source-line="22" id="ent0012"><rect fill="#FFFFFF" height="52.5938" rx="2.5" ry="2.5" style="stroke:#000000;stroke-width:1;" width="156.6504" x="2140.5" y="111.6094"/><text fill="#000000" font-family="Verdana" font-size="14" lengthAdjust="spacing" textLength="136.6504" x="2150.5" y="134.6045">Express application</text><text fill="#000000" font-family="Verdana" font-size="14" lengthAdjust="spacing" textLength="72.748" x="2150.5" y="150.9014">(routes.ts)</text></g><!--entity KanbanH--><g class="entity" data-qualified-name="Server.KanbanH" data-source-line="24" id="ent0013"><rect fill="#FFFFFF" height="36.2969" rx="2.5" ry="2.5" style="stroke:#000000;stroke-width:1;" width="138.1865" x="1806" y="320.1094"/><text fill="#000000" font-family="Verdana" font-size="14" lengthAdjust="spacing" textLength="118.1865" x="1816" y="343.1045">Kanban handlers</text></g><!--entity CalendarH--><g class="entity" data-qualified-name="Server.CalendarH" data-source-line="25" id="ent0014"><rect fill="#FFFFFF" height="36.2969" rx="2.5" ry="2.5" style="stroke:#000000;stroke-width:1;" width="148.167" x="1623" y="320.1094"/><text fill="#000000" font-family="Verdana" font-size="14" lengthAdjust="spacing" textLength="128.167" x="1633" y="343.1045">Calendar handlers</text></g><!--entity EquipmentH--><g class="entity" data-qualified-name="Server.EquipmentH" data-source-line="26" id="ent0015"><rect fill="#FFFFFF" height="52.5938" rx="2.5" ry="2.5" style="stroke:#000000;stroke-width:1;" width="161.21" x="1214.5" y="311.6094"/><text fill="#000000" font-family="Verdana" font-size="14" lengthAdjust="spacing" textLength="141.21" x="1224.5" y="334.6045">Equipment handlers</text><text fill="#000000" font-family="Verdana" font-size="14" lengthAdjust="spacing" textLength="110.5918" x="1224.5" y="350.9014">(stable module)</text></g><!--entity AdminH--><g class="entity" data-qualified-name="Server.AdminH" data-source-line="27" id="ent0016"><rect fill="#FFFFFF" height="36.2969" rx="2.5" ry="2.5" style="stroke:#000000;stroke-width:1;" width="176.5088" x="1410.5" y="320.1094"/><text fill="#000000" font-family="Verdana" font-size="14" lengthAdjust="spacing" textLength="156.5088" x="1420.5" y="343.1045">Admin / Auth handlers</text></g><!--entity Auth--><g class="entity" data-qualified-name="Server.Auth" data-source-line="29" id="ent0017"><rect fill="#FFFFFF" height="52.5938" rx="2.5" ry="2.5" style="stroke:#000000;stroke-width:1;" width="189.3262" x="1394.5" y="544.6094"/><text fill="#000000" font-family="Verdana" font-size="14" lengthAdjust="spacing" textLength="147.5127" x="1404.5" y="567.6045">Express session auth</text><text fill="#000000" font-family="Verdana" font-size="14" lengthAdjust="spacing" textLength="169.3262" x="1404.5" y="583.9014">(req.session + req.user)</text></g><!--entity Val--><g class="entity" data-qualified-name="Server.Val" data-source-line="30" id="ent0018"><rect fill="#FFFFFF" height="52.5938" rx="2.5" ry="2.5" style="stroke:#000000;stroke-width:1;" width="145.3643" x="1214.5" y="544.6094"/><text fill="#000000" font-family="Verdana" font-size="14" lengthAdjust="spacing" textLength="100.4199" x="1224.5" y="567.6045">Zod validation</text><text fill="#000000" font-family="Verdana" font-size="14" lengthAdjust="spacing" textLength="125.3643" x="1224.5" y="583.9014">(shared schemas)</text></g><!--entity WSGateway--><g class="entity" data-qualified-name="Server.WSGateway" data-source-line="32" id="ent0019"><rect fill="#FFFFFF" height="52.5938" rx="2.5" ry="2.5" style="stroke:#000000;stroke-width:1;" width="178.375" x="1619" y="544.6094"/><text fill="#000000" font-family="Verdana" font-size="14" lengthAdjust="spacing" textLength="144.9971" x="1629" y="567.6045">WebSocket Gateway</text><text fill="#000000" font-family="Verdana" font-size="14" lengthAdjust="spacing" textLength="158.375" x="1629" y="583.9014">(/ws realtime updates)</text></g><!--entity YouGileSync--><g class="entity" data-qualified-name="Server.YouGileSync" data-source-line="34" id="ent0020"><rect fill="#FFFFFF" height="52.5938" rx="2.5" ry="2.5" style="stroke:#000000;stroke-width:1;" width="139.8271" x="1832" y="544.6094"/><text fill="#000000" font-family="Verdana" font-size="14" lengthAdjust="spacing" textLength="89.8311" x="1842" y="567.6045">YouGile sync</text><text fill="#000000" font-family="Verdana" font-size="14" lengthAdjust="spacing" textLength="119.8271" x="1842" y="583.9014">(background job)</text></g><!--entity KanbanDB--><g class="entity" data-qualified-name="DB.KanbanDB" data-source-line="39" id="ent0022"><rect fill="#FFFFFF" height="68.8906" rx="2.5" ry="2.5" style="stroke:#000000;stroke-width:1;" width="126.8662" x="1030.5" y="536.6094"/><text fill="#000000" font-family="Verdana" font-size="14" lengthAdjust="spacing" textLength="106.8662" x="1040.5" y="559.6045">kanban_boards</text><text fill="#000000" font-family="Verdana" font-size="14" lengthAdjust="spacing" textLength="86.7549" x="1040.5" y="575.9014">kanban_lists</text><text fill="#000000" font-family="Verdana" font-size="14" lengthAdjust="spacing" textLength="97.1113" x="1040.5" y="592.1982">kanban_cards</text></g><!--entity CalendarDB--><g class="entity" data-qualified-name="DB.CalendarDB" data-source-line="40" id="ent0023"><rect fill="#FFFFFF" height="52.5938" rx="2.5" ry="2.5" style="stroke:#000000;stroke-width:1;" width="150.1836" x="845" y="544.6094"/><text fill="#000000" font-family="Verdana" font-size="14" lengthAdjust="spacing" textLength="47.168" x="855" y="567.6045">events</text><text fill="#000000" font-family="Verdana" font-size="14" lengthAdjust="spacing" textLength="130.1836" x="855" y="583.9014">event_participants</text></g><!--entity EquipmentDB--><g class="entity" data-qualified-name="DB.EquipmentDB" data-source-line="42" id="ent0024"><rect fill="#FFFFFF" height="36.2969" rx="2.5" ry="2.5" style="stroke:#000000;stroke-width:1;" width="95.7627" x="296" y="553.1094"/><text fill="#000000" font-family="Verdana" font-size="14" lengthAdjust="spacing" textLength="75.7627" x="306" y="576.1045">equipment</text></g><!--entity ReservationsDB--><g class="entity" data-qualified-name="DB.ReservationsDB" data-source-line="43" id="ent0025"><rect fill="#FFFFFF" height="52.5938" rx="2.5" ry="2.5" style="stroke:#000000;stroke-width:1;" width="189.7705" x="427" y="544.6094"/><text fill="#000000" font-family="Verdana" font-size="14" lengthAdjust="spacing" textLength="169.7705" x="437" y="567.6045">equipment_reservations</text><text fill="#000000" font-family="Verdana" font-size="14" lengthAdjust="spacing" textLength="143.6709" x="437" y="583.9014">(legacy/direct route)</text></g><!--entity CheckoutDB--><g class="entity" data-qualified-name="DB.CheckoutDB" data-source-line="44" id="ent0026"><rect fill="#FFFFFF" height="52.5938" rx="2.5" ry="2.5" style="stroke:#000000;stroke-width:1;" width="234.498" x="27" y="544.6094"/><text fill="#000000" font-family="Verdana" font-size="14" lengthAdjust="spacing" textLength="214.498" x="37" y="567.6045">equipment_checkout_requests</text><text fill="#000000" font-family="Verdana" font-size="14" lengthAdjust="spacing" textLength="129.1445" x="37" y="583.9014">(current workflow)</text></g><!--entity AdminDB--><g class="entity" data-qualified-name="DB.AdminDB" data-source-line="46" id="ent0027"><rect fill="#FFFFFF" height="85.1875" rx="2.5" ry="2.5" style="stroke:#000000;stroke-width:1;" width="157.9629" x="652" y="528.6094"/><text fill="#000000" font-family="Verdana" font-size="14" lengthAdjust="spacing" textLength="37.8301" x="662" y="551.6045">users</text><text fill="#000000" font-family="Verdana" font-size="14" lengthAdjust="spacing" textLength="76.0361" x="662" y="567.9014">companies</text><text fill="#000000" font-family="Verdana" font-size="14" lengthAdjust="spacing" textLength="137.9629" x="662" y="584.1982">company_members</text><text fill="#000000" font-family="Verdana" font-size="14" lengthAdjust="spacing" textLength="34.1182" x="662" y="600.4951">roles</text></g><!--entity YouGile--><g class="entity" data-qualified-name="External.YouGile" data-source-line="51" id="ent0029"><rect fill="#FFFFFF" height="36.2969" rx="2.5" ry="2.5" style="stroke:#000000;stroke-width:1;" width="99.8301" x="2780" y="320.1094"/><text fill="#000000" font-family="Verdana" font-size="14" lengthAdjust="spacing" textLength="79.8301" x="2790" y="343.1045">YouGile API</text></g><!--entity Users--><g class="entity" data-qualified-name="External.Users" data-source-line="52" id="ent0030"><rect fill="#FFFFFF" height="52.5938" rx="2.5" ry="2.5" style="stroke:#000000;stroke-width:1;" width="127.2354" x="2915.5" y="311.6094"/><text fill="#000000" font-family="Verdana" font-size="14" lengthAdjust="spacing" textLength="107.2354" x="2925.5" y="334.6045">Browser clients</text><text fill="#000000" font-family="Verdana" font-size="14" lengthAdjust="spacing" textLength="102.2041" x="2925.5" y="350.9014">(staff, admins)</text></g><g class="entity" data-qualified-name="GMN63" data-source-line="105" id="ent0064"><path d="M2780,528.1094 L2780,613.7734 L2971.9678,613.7734 L2971.9678,538.1094 L2961.9678,528.1094 L2780,528.1094" fill="#FFFFFF" style="stroke:#000000;stroke-width:1;"/><path d="M2961.9678,528.1094 L2961.9678,538.1094 L2971.9678,538.1094 L2961.9678,528.1094" fill="#FFFFFF" style="stroke:#000000;stroke-width:1;"/><text fill="#000000" font-family="Verdana" font-size="13" lengthAdjust="spacing" textLength="166.6387" x="2786" y="545.1763">Authentication is handled</text><text fill="#000000" font-family="Verdana" font-size="13" lengthAdjust="spacing" textLength="19.2715" x="2786" y="560.3091">via</text><text fill="#000000" font-family="Verdana" font-size="13" font-weight="bold" lengthAdjust="spacing" textLength="117.2793" x="2809.4038" y="560.3091">express-session</text><text fill="#000000" font-family="Verdana" font-size="13" lengthAdjust="spacing" textLength="24.4575" x="2930.8154" y="560.3091">and</text><text fill="#000000" font-family="Verdana" font-size="13" lengthAdjust="spacing" textLength="170.9678" x="2786" y="575.4419">a custom middleware that</text><text fill="#000000" font-family="Verdana" font-size="13" lengthAdjust="spacing" textLength="64.1431" x="2786" y="590.5747">populates</text><text fill="#000000" font-family="Verdana" font-size="13" font-weight="bold" lengthAdjust="spacing" textLength="61.6929" x="2854.2754" y="590.5747">req.user</text><text fill="#000000" font-family="Verdana" font-size="13" lengthAdjust="spacing" textLength="30.5386" x="2920.1006" y="590.5747">from</text><text fill="#000000" font-family="Verdana" font-size="13" font-weight="bold" lengthAdjust="spacing" textLength="135.4463" x="2786" y="605.7075">req.session.userId</text><text fill="#000000" font-family="Verdana" font-size="13" lengthAdjust="spacing" textLength="4.1323" x="2921.4463" y="605.7075">.</text></g><g class="entity" data-qualified-name="GMN66" data-source-line="113" id="ent0067"><path d="M3007,528.1094 L3007,613.7734 L3184.7427,613.7734 L3184.7427,538.1094 L3174.7427,528.1094 L3007,528.1094" fill="#FFFFFF" style="stroke:#000000;stroke-width:1;"/><path d="M3174.7427,528.1094 L3174.7427,538.1094 L3184.7427,538.1094 L3174.7427,528.1094" fill="#FFFFFF" style="stroke:#000000;stroke-width:1;"/><text fill="#000000" font-family="Verdana" font-size="13" lengthAdjust="spacing" textLength="144.314" x="3013" y="545.1763">Client-side permission</text><text fill="#000000" font-family="Verdana" font-size="13" lengthAdjust="spacing" textLength="156.7427" x="3013" y="560.3091">evaluator is centralized.</text><text fill="#000000" font-family="Verdana" font-size="13" lengthAdjust="spacing" textLength="148.3638" x="3013" y="575.4419">Server-side checks are</text><text fill="#000000" font-family="Verdana" font-size="13" lengthAdjust="spacing" textLength="136.5952" x="3013" y="590.5747">currently route-local.</text><text fill="#000000" font-family="Verdana" font-size="13" lengthAdjust="spacing" textLength="24.248" x="3013" y="605.7075">See</text><text fill="#000000" font-family="Verdana" font-size="13" font-weight="bold" lengthAdjust="spacing" textLength="63.394" x="3041.3804" y="605.7075">ADR-001</text><text fill="#000000" font-family="Verdana" font-size="13" lengthAdjust="spacing" textLength="4.1323" x="3104.7744" y="605.7075">.</text></g><g class="entity" data-qualified-name="GMN69" data-source-line="121" id="ent0070"><path d="M2270,707.6094 L2270,793.2734 L2534.1089,793.2734 L2534.1089,717.6094 L2524.1089,707.6094 L2270,707.6094" fill="#FFFFFF" style="stroke:#000000;stroke-width:1;"/><path d="M2524.1089,707.6094 L2524.1089,717.6094 L2534.1089,717.6094 L2524.1089,707.6094" fill="#FFFFFF" style="stroke:#000000;stroke-width:1;"/><text fill="#000000" font-family="Verdana" font-size="13" lengthAdjust="spacing" textLength="130.73" x="2276" y="724.6763">The current primary</text><text fill="#000000" font-family="Verdana" font-size="13" lengthAdjust="spacing" textLength="167.4258" x="2276" y="739.8091">warehouse workflow uses</text><text fill="#000000" font-family="Verdana" font-size="13" font-weight="bold" lengthAdjust="spacing" textLength="222.7964" x="2276" y="754.9419">equipment_checkout_requests</text><text fill="#000000" font-family="Verdana" font-size="13" lengthAdjust="spacing" textLength="4.1323" x="2498.7964" y="754.9419">.</text><text fill="#000000" font-family="Verdana" font-size="13" lengthAdjust="spacing" textLength="61.4707" x="2276" y="770.0747">The older</text><text fill="#000000" font-family="Verdana" font-size="13" font-weight="bold" lengthAdjust="spacing" textLength="177.5059" x="2341.603" y="770.0747">equipment_reservations</text><text fill="#000000" font-family="Verdana" font-size="13" lengthAdjust="spacing" textLength="173.3545" x="2276" y="785.2075">route still exists as legacy.</text></g><!--link Users to HTTP--><g class="link" data-entity-1="ent0030" data-entity-2="ent0007" data-link-type="dependency" data-source-line="56" id="lnk31"><path d="M2973.9,364.6994 C2968.25,385.7094 2956.87,414.2794 2935,428.6094 C2903,449.5794 2795.68,416.7094 2763,436.6094 C2723.58,460.6194 2704.0788,507.1529 2694.4088,538.6929" fill="none" id="Users-to-HTTP" style="stroke:#000000;stroke-width:1;"/><polygon fill="#000000" points="2692.65,544.4294,2699.1124,536.9972,2694.1156,539.649,2691.4639,534.6522,2692.65,544.4294" style="stroke:#000000;stroke-width:1;"/><text fill="#000000" font-family="Verdana" font-size="13" lengthAdjust="spacing" textLength="86.436" x="2961" y="417.1763">HTTPS / JSON</text></g><!--link TaskUI to HTTP--><g class="link" data-entity-1="ent0003" data-entity-2="ent0007" data-link-type="dependency" data-source-line="57" id="lnk32"><path d="M2412.48,364.7294 C2427.35,374.0494 2445.28,383.5294 2463,388.6094 C2474.86,392.0094 2676.41,387.7494 2685,396.6094 C2695.04,406.9594 2690.9962,492.9212 2688.1262,538.6012" fill="none" id="TaskUI-to-HTTP" style="stroke:#000000;stroke-width:1;"/><polygon fill="#000000" points="2687.75,544.5894,2692.3065,535.8579,2688.0635,539.5992,2684.3222,535.3563,2687.75,544.5894" style="stroke:#000000;stroke-width:1;"/></g><!--link CalendarUI to HTTP--><g class="link" data-entity-1="ent0004" data-entity-2="ent0007" data-link-type="dependency" data-source-line="58" id="lnk33"><path d="M2695.88,356.1894 C2697.03,367.6194 2698.41,382.9994 2699,396.6094 C2701.29,449.2694 2695.2189,504.8041 2690.6189,538.6141" fill="none" id="CalendarUI-to-HTTP" style="stroke:#000000;stroke-width:1;"/><polygon fill="#000000" points="2689.81,544.5594,2694.9868,536.1808,2690.4841,539.605,2687.0598,535.1023,2689.81,544.5594" style="stroke:#000000;stroke-width:1;"/></g><!--link EquipmentUI to HTTP--><g class="link" data-entity-1="ent0005" data-entity-2="ent0007" data-link-type="dependency" data-source-line="59" id="lnk34"><path d="M2246.92,364.7794 C2259.76,373.9794 2275.31,383.3694 2291,388.6094 C2318.45,397.7794 2392.32,392.7094 2421,396.6094 C2506.08,408.1694 2540.67,385.9594 2610,436.6094 C2646.72,463.4294 2666.3304,508.0514 2676.6104,538.6714" fill="none" id="EquipmentUI-to-HTTP" style="stroke:#000000;stroke-width:1;"/><polygon fill="#000000" points="2678.52,544.3594,2679.4476,534.5543,2676.9286,539.6194,2671.8636,537.1005,2678.52,544.3594" style="stroke:#000000;stroke-width:1;"/></g><!--link AdminUI to HTTP--><g class="link" data-entity-1="ent0006" data-entity-2="ent0007" data-link-type="dependency" data-source-line="60" id="lnk35"><path d="M2579.1,364.7794 C2593.05,373.7494 2609.65,382.9794 2626,388.6094 C2639.97,393.4194 2682.2,385.5494 2692,396.6094 C2710.79,417.8094 2699.813,495.5343 2692.083,538.4743" fill="none" id="AdminUI-to-HTTP" style="stroke:#000000;stroke-width:1;"/><polygon fill="#000000" points="2691.02,544.3794,2696.5513,536.2304,2691.9059,539.4585,2688.6778,534.8131,2691.02,544.3794" style="stroke:#000000;stroke-width:1;"/></g><!--link Users to WSClient--><g class="link" data-entity-1="ent0030" data-entity-2="ent0008" data-link-type="dependency" data-source-line="62" id="lnk36"><path d="M2959.7396,306.5887 C2945.5696,285.6287 2926.1,262.7794 2898,249.6094 C2774.32,191.6294 2420.56,223.8294 2284,220.6094 C2228.02,219.2894 2209.22,197.9794 2158,220.6094 C2116.23,239.0594 2086.9148,277.6719 2069.1648,306.2619" fill="none" id="Users-WSClient" style="stroke:#000000;stroke-width:1;"/><polygon fill="#000000" points="2963.1,311.5594,2961.3732,301.8631,2960.2996,307.4171,2954.7456,306.3436,2963.1,311.5594" style="stroke:#000000;stroke-width:1;"/><polygon fill="#000000" points="2066,311.3594,2074.1455,305.823,2068.6373,307.1115,2067.3488,301.6033,2066,311.3594" style="stroke:#000000;stroke-width:1;"/><text fill="#000000" font-family="Verdana" font-size="13" lengthAdjust="spacing" textLength="98.998" x="2171.7937" y="207.6763">WebSocket /ws</text><text fill="#000000" font-family="Verdana" font-size="13" lengthAdjust="spacing" textLength="124.5854" x="2159" y="222.8091">(realtime updates /</text><text fill="#000000" font-family="Verdana" font-size="13" lengthAdjust="spacing" textLength="122.5859" x="2159.9998" y="237.9419">query invalidation)</text></g><!--link HTTP to ClientSchemas--><g class="link" data-entity-1="ent0007" data-entity-2="ent0009" data-link-type="dependency" data-source-line="64" id="lnk37"><path d="M2681.2,597.9194 C2674.93,631.6694 2665.0966,684.5404 2658.8466,718.1604" fill="none" id="HTTP-to-ClientSchemas" style="stroke:#000000;stroke-width:1;"/><polygon fill="#000000" points="2657.75,724.0594,2663.3276,715.9421,2658.6638,719.1436,2655.4623,714.4799,2657.75,724.0594" style="stroke:#000000;stroke-width:1;"/><text fill="#000000" font-family="Verdana" font-size="13" lengthAdjust="spacing" textLength="51.7905" x="2695.4419" y="658.6763">uses for</text><text fill="#000000" font-family="Verdana" font-size="13" lengthAdjust="spacing" textLength="98.6743" x="2672" y="673.8091">form validation</text></g><!--link EquipmentUI to ClientPerms--><g class="link" data-entity-1="ent0005" data-entity-2="ent0010" data-link-type="dependency" data-source-line="65" id="lnk38"><path d="M2250.78,364.6594 C2263.09,372.9894 2277.29,381.8394 2291,388.6094 C2300.7,393.4094 2305.01,390.5894 2314,396.6094 C2374.58,437.1594 2423.1325,502.12 2448.3425,539.62" fill="none" id="EquipmentUI-to-ClientPerms" style="stroke:#000000;stroke-width:1;"/><polygon fill="#000000" points="2451.69,544.5994,2449.9884,534.8986,2448.9004,540.4499,2443.3492,539.3619,2451.69,544.5994" style="stroke:#000000;stroke-width:1;"/><text fill="#000000" font-family="Verdana" font-size="13" lengthAdjust="spacing" textLength="51.7905" x="2357.5547" y="409.6763">uses for</text><text fill="#000000" font-family="Verdana" font-size="13" lengthAdjust="spacing" textLength="58.8999" x="2354" y="424.8091">UI gating</text></g><!--link HTTP to Routes--><g class="link" data-entity-1="ent0007" data-entity-2="ent0012" data-link-type="dependency" data-source-line="68" id="lnk39"><path d="M2692.49,544.5794 C2702.05,512.9394 2723.24,460.3094 2763,436.6094 C2776.99,428.2694 3044.22,439.8494 3056,428.6094 C3113.58,373.6994 3111.47,309.4294 3059,249.6094 C3009.11,192.7294 2502.8087,156.268 2303.6087,144.008" fill="none" id="HTTP-to-Routes" style="stroke:#000000;stroke-width:1;"/><polygon fill="#000000" points="2297.62,143.6394,2306.3573,148.1847,2302.6106,143.9465,2306.8487,140.1998,2297.62,143.6394" style="stroke:#000000;stroke-width:1;"/><text fill="#000000" font-family="Verdana" font-size="13" lengthAdjust="spacing" textLength="58.1382" x="3126.3997" y="335.1763">REST API</text><text fill="#000000" font-family="Verdana" font-size="13" lengthAdjust="spacing" textLength="112.9375" x="3099" y="350.3091">(JSON over HTTP)</text></g><!--link WSClient to WSGateway--><g class="link" data-entity-1="ent0008" data-entity-2="ent0019" data-link-type="dependency" data-source-line="69" id="lnk40"><path d="M2039.3239,370.4288 C2030.1939,391.5988 2016.44,414.7294 1992,428.6094 C1957.76,448.0594 1850.1,418.7694 1815,436.6094 C1769.19,459.8894 1739.1855,507.3395 1722.7555,539.1195" fill="none" id="WSClient-WSGateway" style="stroke:#000000;stroke-width:1;"/><polygon fill="#000000" points="2041.7,364.9194,2034.4629,371.5995,2039.7199,369.5106,2041.8089,374.7676,2041.7,364.9194" style="stroke:#000000;stroke-width:1;"/><polygon fill="#000000" points="1720,544.4494,1727.6865,538.2916,1722.2962,540.0078,1720.58,534.6176,1720,544.4494" style="stroke:#000000;stroke-width:1;"/><text fill="#000000" font-family="Verdana" font-size="13" lengthAdjust="spacing" textLength="98.998" x="2024" y="417.1763">WebSocket /ws</text></g><!--link Routes to KanbanH--><g class="link" data-entity-1="ent0012" data-entity-2="ent0013" data-link-type="dependency" data-source-line="72" id="lnk41"><path d="M2265.91,164.6694 C2276.39,172.7794 2286.13,182.7694 2292,194.6094 C2301.28,213.3194 2306.58,226.6494 2292,241.6094 C2280.21,253.7094 2003.91,243.9294 1988,249.6094 C1947.57,264.0294 1914.3066,294.5638 1894.3066,315.6738" fill="none" id="Routes-to-KanbanH" style="stroke:#000000;stroke-width:1;"/><polygon fill="#000000" points="1890.18,320.0294,1899.2736,316.247,1893.6188,316.3997,1893.4661,310.7449,1890.18,320.0294" style="stroke:#000000;stroke-width:1;"/></g><!--link Routes to CalendarH--><g class="link" data-entity-1="ent0012" data-entity-2="ent0014" data-link-type="dependency" data-source-line="73" id="lnk42"><path d="M2260.81,164.8794 C2270.55,173.0794 2279.63,183.0694 2285,194.6094 C2293.82,213.5494 2299.65,226.7194 2285,241.6094 C2275.34,251.4294 1801.75,244.3894 1789,249.6094 C1753.7,264.0494 1727.6507,294.0928 1712.1607,315.1928" fill="none" id="Routes-to-CalendarH" style="stroke:#000000;stroke-width:1;"/><polygon fill="#000000" points="1708.61,320.0294,1717.1604,315.1416,1711.5689,315.9989,1710.7116,310.4074,1708.61,320.0294" style="stroke:#000000;stroke-width:1;"/></g><!--link Routes to EquipmentH--><g class="link" data-entity-1="ent0012" data-entity-2="ent0015" data-link-type="dependency" data-source-line="74" id="lnk43"><path d="M2140.22,142.8594 C1959.81,152.5194 1522.33,182.3794 1393,249.6094 C1363.25,265.0694 1339.4285,287.2287 1321.0685,307.0387" fill="none" id="Routes-to-EquipmentH" style="stroke:#000000;stroke-width:1;"/><polygon fill="#000000" points="1316.99,311.4394,1326.0416,307.5574,1320.3888,307.7722,1320.174,302.1194,1316.99,311.4394" style="stroke:#000000;stroke-width:1;"/></g><!--link Routes to AdminH--><g class="link" data-entity-1="ent0012" data-entity-2="ent0016" data-link-type="dependency" data-source-line="75" id="lnk44"><path d="M2140.25,140.7994 C2019.81,146.0694 1784.98,167.1094 1606,249.6094 C1568.95,266.6894 1538.0673,295.3335 1518.7173,315.5635" fill="none" id="Routes-to-AdminH" style="stroke:#000000;stroke-width:1;"/><polygon fill="#000000" points="1514.57,319.8994,1523.6815,316.1604,1518.0261,316.2861,1517.9003,310.6307,1514.57,319.8994" style="stroke:#000000;stroke-width:1;"/></g><!--link KanbanH to Auth--><g class="link" data-entity-1="ent0013" data-entity-2="ent0017" data-link-type="dependency" data-source-line="77" id="lnk45"><path d="M1852.29,356.2394 C1835.71,367.6994 1812.16,381.8794 1789,388.6094 C1769.46,394.2894 1623.76,386.6594 1606,396.6094 C1547.68,429.2794 1514.8702,499.0065 1499.8402,538.7965" fill="none" id="KanbanH-to-Auth" style="stroke:#000000;stroke-width:1;"/><polygon fill="#000000" points="1497.72,544.4094,1504.6422,537.4035,1499.4868,539.7319,1497.1583,534.5765,1497.72,544.4094" style="stroke:#000000;stroke-width:1;"/></g><!--link CalendarH to Auth--><g class="link" data-entity-1="ent0014" data-entity-2="ent0017" data-link-type="dependency" data-source-line="78" id="lnk46"><path d="M1670.18,356.1994 C1652.32,366.8994 1628,380.1994 1605,388.6094 C1588.79,394.5394 1580.44,385.7894 1567,396.6094 C1520.18,434.3094 1501.6557,500.2098 1494.1957,538.5598" fill="none" id="CalendarH-to-Auth" style="stroke:#000000;stroke-width:1;"/><polygon fill="#000000" points="1493.05,544.4494,1498.6949,536.3787,1494.0047,539.5414,1490.8421,534.8512,1493.05,544.4494" style="stroke:#000000;stroke-width:1;"/></g><!--link EquipmentH to Auth--><g class="link" data-entity-1="ent0015" data-entity-2="ent0017" data-link-type="dependency" data-source-line="79" id="lnk47"><path d="M1316.59,364.7594 C1333.13,384.4194 1356.51,412.2194 1377,436.6094 C1408.52,474.1394 1441.1448,513.0318 1463.6848,539.9118" fill="none" id="EquipmentH-to-Auth" style="stroke:#000000;stroke-width:1;"/><polygon fill="#000000" points="1467.54,544.5094,1464.8222,535.0429,1464.3273,540.6781,1458.6922,540.1832,1467.54,544.5094" style="stroke:#000000;stroke-width:1;"/></g><!--link AdminH to Auth--><g class="link" data-entity-1="ent0016" data-entity-2="ent0017" data-link-type="dependency" data-source-line="80" id="lnk48"><path d="M1498.25,356.4694 C1496.5,396.7594 1492.4288,490.795 1490.3788,538.285" fill="none" id="AdminH-to-Auth" style="stroke:#000000;stroke-width:1;"/><polygon fill="#000000" points="1490.12,544.2794,1494.5044,535.4603,1490.3356,539.284,1486.5119,535.1152,1490.12,544.2794" style="stroke:#000000;stroke-width:1;"/></g><!--link KanbanH to Val--><g class="link" data-entity-1="ent0013" data-entity-2="ent0018" data-link-type="dependency" data-source-line="82" id="lnk49"><path d="M1852.31,356.3094 C1835.74,367.7994 1812.19,381.9794 1789,388.6094 C1739.61,402.7294 1608.26,386.0294 1558,396.6094 C1520.53,404.4994 1515.29,419.8894 1478,428.6094 C1456.08,433.7394 1396.44,425.2594 1377,436.6094 C1335.36,460.9194 1311.2294,507.521 1298.4494,538.961" fill="none" id="KanbanH-to-Val" style="stroke:#000000;stroke-width:1;"/><polygon fill="#000000" points="1296.19,544.5194,1303.2847,537.6881,1298.0728,539.8874,1295.8735,534.6756,1296.19,544.5194" style="stroke:#000000;stroke-width:1;"/></g><!--link CalendarH to Val--><g class="link" data-entity-1="ent0014" data-entity-2="ent0018" data-link-type="dependency" data-source-line="83" id="lnk50"><path d="M1671.62,356.2594 C1653.78,367.4194 1628.92,381.2294 1605,388.6094 C1572.55,398.6194 1562.39,390.3994 1529,396.6094 C1475.15,406.6194 1463.06,415.0494 1410,428.6094 C1395.38,432.3494 1389.39,427.9894 1377,436.6094 C1337.88,463.8194 1313.3878,508.5314 1299.7678,539.0114" fill="none" id="CalendarH-to-Val" style="stroke:#000000;stroke-width:1;"/><polygon fill="#000000" points="1297.32,544.4894,1304.6437,537.9043,1299.3599,539.9244,1297.3398,534.6405,1297.32,544.4894" style="stroke:#000000;stroke-width:1;"/></g><!--link EquipmentH to Val--><g class="link" data-entity-1="ent0015" data-entity-2="ent0018" data-link-type="dependency" data-source-line="84" id="lnk51"><path d="M1294.11,364.7094 C1292.58,409.1194 1289.6376,493.913 1288.0976,538.393" fill="none" id="EquipmentH-to-Val" style="stroke:#000000;stroke-width:1;"/><polygon fill="#000000" points="1287.89,544.3894,1292.199,535.5332,1288.063,539.3924,1284.2038,535.2564,1287.89,544.3894" style="stroke:#000000;stroke-width:1;"/></g><!--link AdminH to Val--><g class="link" data-entity-1="ent0016" data-entity-2="ent0018" data-link-type="dependency" data-source-line="85" id="lnk52"><path d="M1473.29,356.1694 C1447.22,374.2294 1406.59,404.5194 1377,436.6094 C1345.64,470.6194 1320.1992,511.247 1304.0192,539.407" fill="none" id="AdminH-to-Val" style="stroke:#000000;stroke-width:1;"/><polygon fill="#000000" points="1301.03,544.6094,1308.982,538.7986,1303.521,540.274,1302.0455,534.813,1301.03,544.6094" style="stroke:#000000;stroke-width:1;"/></g><!--link KanbanH to WSGateway--><g class="link" data-entity-1="ent0013" data-entity-2="ent0019" data-link-type="dependency" data-source-line="87" id="lnk53"><path d="M1838.96,356.1294 C1821.18,365.9594 1800.51,379.7294 1786,396.6094 C1747.58,441.3194 1726.4534,502.256 1716.1834,538.556" fill="none" id="KanbanH-to-WSGateway" style="stroke:#000000;stroke-width:1;"/><polygon fill="#000000" points="1714.55,544.3294,1720.849,536.7582,1715.9112,539.5182,1713.1512,534.5804,1714.55,544.3294" style="stroke:#000000;stroke-width:1;"/><text fill="#000000" font-family="Verdana" font-size="13" lengthAdjust="spacing" textLength="77.3018" x="1787" y="417.1763">emit events</text></g><!--link CalendarH to WSGateway--><g class="link" data-entity-1="ent0014" data-entity-2="ent0019" data-link-type="dependency" data-source-line="88" id="lnk54"><path d="M1659.97,356.1594 C1643.98,365.6194 1626.93,379.0694 1618,396.6094 C1611.55,409.2794 1614.03,414.9494 1618,428.6094 C1631.02,473.3394 1659.101,512.8017 1681.201,539.5817" fill="none" id="CalendarH-to-WSGateway" style="stroke:#000000;stroke-width:1;"/><polygon fill="#000000" points="1685.02,544.2094,1682.3767,534.7219,1681.8375,540.353,1676.2064,539.8138,1685.02,544.2094" style="stroke:#000000;stroke-width:1;"/><text fill="#000000" font-family="Verdana" font-size="13" lengthAdjust="spacing" textLength="77.3018" x="1619" y="417.1763">emit events</text></g><!--link KanbanH to YouGileSync--><g class="link" data-entity-1="ent0013" data-entity-2="ent0020" data-link-type="dependency" data-source-line="90" id="lnk55"><path d="M1874.04,356.3094 C1873.26,374.3694 1872.63,403.5494 1875,428.6094 C1878.87,469.5694 1887.5365,510.4711 1894.2165,538.6611" fill="none" id="KanbanH-to-YouGileSync" style="stroke:#000000;stroke-width:1;"/><polygon fill="#000000" points="1895.6,544.4994,1897.417,534.8196,1894.4471,539.6341,1889.6326,536.6642,1895.6,544.4994" style="stroke:#000000;stroke-width:1;"/><text fill="#000000" font-family="Verdana" font-size="13" lengthAdjust="spacing" textLength="50.6733" x="1906.2434" y="409.6763">triggers</text><text fill="#000000" font-family="Verdana" font-size="13" lengthAdjust="spacing" textLength="111.1602" x="1876" y="424.8091">background sync</text></g><!--link KanbanH to KanbanDB--><g class="link" data-entity-1="ent0013" data-entity-2="ent0022" data-link-type="dependency" data-source-line="93" id="lnk56"><path d="M1852.7,356.1594 C1836.11,367.7494 1812.4,382.0994 1789,388.6094 C1746.28,400.4894 1434.06,391.6194 1390,396.6094 C1303.39,406.4094 1271.98,390.5194 1198,436.6094 C1158.85,460.9994 1131.5599,500.4703 1114.0299,531.3803" fill="none" id="KanbanH-to-KanbanDB" style="stroke:#000000;stroke-width:1;"/><polygon fill="#000000" points="1111.07,536.5994,1118.9893,530.744,1113.5366,532.2501,1112.0305,526.7975,1111.07,536.5994" style="stroke:#000000;stroke-width:1;"/><text fill="#000000" font-family="Verdana" font-size="13" lengthAdjust="spacing" textLength="78.8379" x="1391" y="417.1763">Drizzle ORM</text></g><!--link CalendarH to CalendarDB--><g class="link" data-entity-1="ent0014" data-entity-2="ent0023" data-link-type="dependency" data-source-line="94" id="lnk57"><path d="M1672.97,356.2194 C1655.15,367.8294 1629.75,382.1894 1605,388.6094 C1573.86,396.6794 1053.95,380.6794 1026,396.6094 C969.57,428.7694 941.2848,498.601 928.8348,538.561" fill="none" id="CalendarH-to-CalendarDB" style="stroke:#000000;stroke-width:1;"/><polygon fill="#000000" points="927.05,544.2894,933.5461,536.8866,928.5373,539.5157,925.9082,534.5069,927.05,544.2894" style="stroke:#000000;stroke-width:1;"/><text fill="#000000" font-family="Verdana" font-size="13" lengthAdjust="spacing" textLength="78.8379" x="1027" y="417.1763">Drizzle ORM</text></g><!--link EquipmentH to EquipmentDB--><g class="link" data-entity-1="ent0015" data-entity-2="ent0024" data-link-type="dependency" data-source-line="95" id="lnk58"><path d="M1214.24,340.5494 C1078,344.0594 794.22,356.0494 558,396.6094 C490.42,408.2094 461.88,392.9694 409,436.6094 C371.82,467.2894 355.6624,518.5408 348.9024,547.0908" fill="none" id="EquipmentH-to-EquipmentDB" style="stroke:#000000;stroke-width:1;"/><polygon fill="#000000" points="347.52,552.9294,353.486,545.0932,348.672,548.0639,345.7013,543.2499,347.52,552.9294" style="stroke:#000000;stroke-width:1;"/><text fill="#000000" font-family="Verdana" font-size="13" lengthAdjust="spacing" textLength="78.8379" x="559" y="417.1763">Drizzle ORM</text></g><!--link EquipmentH to ReservationsDB--><g class="link" data-entity-1="ent0015" data-entity-2="ent0025" data-link-type="dependency" data-source-line="96" id="lnk59"><path d="M1214.24,338.8894 C1101.9,340.4394 893,350.1094 722,396.6094 C680.93,407.7794 668.89,410.8694 635,436.6094 C594.38,467.4694 561.7885,510.361 541.8585,539.611" fill="none" id="EquipmentH-to-ReservationsDB" style="stroke:#000000;stroke-width:1;"/><polygon fill="#000000" points="538.48,544.5694,546.8533,539.3841,541.2954,540.4374,540.2421,534.8794,538.48,544.5694" style="stroke:#000000;stroke-width:1;"/><text fill="#000000" font-family="Verdana" font-size="13" lengthAdjust="spacing" textLength="78.8379" x="723" y="417.1763">Drizzle ORM</text></g><!--link EquipmentH to CheckoutDB--><g class="link" data-entity-1="ent0015" data-entity-2="ent0026" data-link-type="dependency" data-source-line="97" id="lnk60"><path d="M1214.18,341.3794 C997.74,347.8294 415.84,367.6594 334,396.6094 C255.67,424.3194 194.3621,498.4775 164.7821,539.6275" fill="none" id="EquipmentH-to-CheckoutDB" style="stroke:#000000;stroke-width:1;"/><polygon fill="#000000" points="161.28,544.4994,169.7811,539.5262,164.1984,540.4395,163.2852,534.8568,161.28,544.4994" style="stroke:#000000;stroke-width:1;"/><text fill="#000000" font-family="Verdana" font-size="13" lengthAdjust="spacing" textLength="78.8379" x="335" y="417.1763">Drizzle ORM</text></g><!--link AdminH to AdminDB--><g class="link" data-entity-1="ent0016" data-entity-2="ent0027" data-link-type="dependency" data-source-line="98" id="lnk61"><path d="M1470.94,356.2194 C1450.23,367.8294 1420.91,382.1994 1393,388.6094 C1363.65,395.3494 877.57,382.4294 851,396.6094 C798.66,424.5394 766.8859,481.0898 748.8559,522.8998" fill="none" id="AdminH-to-AdminDB" style="stroke:#000000;stroke-width:1;"/><polygon fill="#000000" points="746.48,528.4094,753.7169,521.729,748.4599,523.8181,746.3708,518.5611,746.48,528.4094" style="stroke:#000000;stroke-width:1;"/><text fill="#000000" font-family="Verdana" font-size="13" lengthAdjust="spacing" textLength="78.8379" x="852" y="417.1763">Drizzle ORM</text></g><!--link YouGileSync to YouGile--><g class="link" data-entity-1="ent0020" data-entity-2="ent0029" data-link-type="dependency" data-source-line="101" id="lnk62"><path d="M1910.12,544.4294 C1921.71,512.6294 1946.34,459.8294 1988,436.6094 C2009.02,424.8994 2397.1,431.4194 2421,428.6094 C2552.21,413.1894 2697.4759,376.1544 2774.0659,355.0344" fill="none" id="YouGileSync-to-YouGile" style="stroke:#000000;stroke-width:1;"/><polygon fill="#000000" points="2779.85,353.4394,2770.1105,351.9758,2775.0299,354.7685,2772.2372,359.6879,2779.85,353.4394" style="stroke:#000000;stroke-width:1;"/><text fill="#000000" font-family="Verdana" font-size="13" lengthAdjust="spacing" textLength="87.8325" x="2602" y="417.1763">HTTPS / REST</text></g><!--link Auth to GMN63--><g class="link" data-entity-1="ent0017" data-entity-2="ent0064" data-link-type="association" data-source-line="105" id="lnk65"><path d="M1501.5,544.4194 C1520.76,506.8594 1561.64,439.9194 1619.5,412.6094 C1693.45,377.6994 1906.04,405.3994 1987.5,412.6094 C2278.78,438.3894 2617.56,510.8194 2779.79,548.1794" fill="none" id="Auth-GMN63" style="stroke:#000000;stroke-width:1;stroke-dasharray:7,7;"/></g><!--link ClientPerms to GMN66--><g class="link" data-entity-1="ent0010" data-entity-2="ent0067" data-link-type="association" data-source-line="113" id="lnk68"><path d="M2484.65,544.5794 C2510.07,506.8794 2562.54,439.3994 2627.5,412.6094 C2698.38,383.3794 2903.61,378.9594 2972.5,412.6094 C3021.24,436.4194 3056.34,489.7894 3076.38,528.0194" fill="none" id="ClientPerms-GMN66" style="stroke:#000000;stroke-width:1;stroke-dasharray:7,7;"/></g><!--link CheckoutDB to GMN69--><g class="link" data-entity-1="ent0026" data-entity-2="ent0070" data-link-type="association" data-source-line="121" id="lnk71"><path d="M185.16,597.6194 C210.84,612.1494 245.16,629.0994 278,637.6094 C657.23,735.9294 1867,748.2094 2269.98,749.5294" fill="none" id="CheckoutDB-GMN69" style="stroke:#000000;stroke-width:1;stroke-dasharray:7,7;"/></g><?plantuml-src VLPHSzis37xNhy2oXoNk77UlksLtIPmrsTeqYvpcjdMNeoNQPasH2ad5SNhxxmD8IgAqhjUxEW8-G20-ueE-SHjUSQWb4ogpMw5gPbW5XQvghRXokTjB3eONZgcrv0baoOhjskX6bUTQQWFV_d91_xBC2OSXkJESLNDkjt3U9eEvO6kAFSmTSwA03uBlZhBiEpWvEO5pAGWZsPuRCcGrle6jEHn4p-4jPuM3Lx3OrpmlZAZTqG4msqP-pW3-MZ1yupkcCD30tTL7TVWRKqkcZluc97dlhWXtpYHN9IECzxJFmNlns8YwegG-nJqpVACRoqEMpXl0fsKb5DmmnMM0pvdTB3KpPO1xFq89UxbOtCHw4RZYhjZ03DYpq3Q02K30UxxCTR7bhaVFTX5pdmSRuV8DrbR2dxe4Mo2Np2BIUkCi68vT30j1UK0DJtd3JIMi5Lh1nHEJ3NFQO9x2HyoiAMPIBDCi562pVrhkScwUiDzVu2vw3gzroOy_MMJluhastDf0NNHxwg83M5rBKU05qGfhm2lckEqESUiVVIy3iR1XgfJSMEyEjii1mmD0QxqSDg35KFCSM-85hdJPo37XbptVCpXjt6QOt7iki_GmbeUsCWJJQVZZSMjw1VI4jyh4Uu8G2YKkaGHHjYq8TBRy1l079X4xl2blcECxjWzN1PCpwGGETrDZ9jxTdOZoLVwXcpS23sltgi2mVgRXauvyHqYEY9xlENCiOHlpioMpIFUDjcvjUFxxMq_l_2nGk_MqFFYXm1x7HociwvyAyYKapiyeaZzXsn7aVnzGUb0tHCtGDg3JWps-fMf8N4pMFZuWDtZpV8E9SydNhDZFIa5A1_xAnUkMuCOva8vYYr1CzjXmVvJ3eZ66xjDEc-rAwbsScOZigYJI4KuoovJWtP_xXufNI-ypMlBaLc5er_sBPyUDOX9fiuvNrdDGIDsKSD3wVFixuEUKxDERgvHPSfqPlSEI80nyd8BLwdjWzEvuTUwewBwAgBg5LWgRHWtoTNWKJAS_Uoc37_rFZkFoQ_x-EWi2tBcpNdPxMoAllJ6AQ6-8B_g93AqWujlwQS0Py0Ctd0AOVLJ8bjc3KFsGuHBorLAoWKnYHkJAmehq4F-haidyJw69D0xYqBt62BKUjGv3elvHuxe2WiHXXjkBV45iuJ6eUQ09Ih2Zh3jnF7ySwd43sXTUAIjA3hZimVPlZ2-Y3Ark9gPUAHDZeeI9jTMzc2NOICsw7Bsfpz3RGdp_F4X4IZVCGvPH6Z8bMUXna2Jj4A-4Ww0heyJ_XngaIWGHOSw8zTeFR2AU9AUZrOY1NZIfxscsLkimrTo8bnUSp_UtxqPrzIetWeswaCZTru53MViwjXUl4IvbBKZK232MAw4Sn--_NYlILYQjJKI3Hg3DSwtflb6Smhy06xzne5VjtgGVB3f-EO2mSJUNw7iI32OJ7dRoD2xWoGGGW5u6HMEThg0I9GRiSDlYg33wlgfrtKYl6vD9kwqnRcLqXTvWY-cyxwgSJ8up90kencnKQVhj1F5fwYUpxZx0qC7RJp0wH84OWvhpmijZz8Nh58By0iBl9KCQ7ZUFt8VrDPMwO394S2pqT7uxVVtwXozKjzIEpaxbfMjgWLhHRhFQY8gPFLftxPTmj-6yplbUV6Kpqcj3IYrBd8OKdAxYoGHXldwmJaW9_9c-4MZxX1NTL_yl?></g></svg>