<?plantuml 1.2026.2?>
<svg xmlns="http://www.w3.org/2000/svg" xmlns:xlink="http://www.w3.org/1999/xlink" contentStyleType="text/css" data-diagram-type="SEQUENCE" height="1408px" preserveAspectRatio="none" style="width:2006px;height:1408px;background:#FEFEFE;" version="1.1" viewBox="0 0 2006 1408" width="2006px" zoomAndPan="magnify"><title>Sequence Diagram: Calendar Event Creation</title><defs/><g><rect fill="#FEFEFE" height="1408" style="stroke:none;stroke-width:1;" width="2006" x="0" y="0"/><text fill="#000000" font-family="Verdana" font-size="22" font-weight="bold" lengthAdjust="spacing" textLength="551.7939" x="725.9048" y="35.4209">Sequence Diagram: Calendar Event Creation</text><rect fill="#FFFFFF" height="368.0703" rx="5" ry="5" style="stroke:#000000;stroke-width:1;" width="669.1138" x="1156.4927" y="693.6953"/><rect fill="#FFFFFF" height="103.2031" rx="5" ry="5" style="stroke:#000000;stroke-width:1;" width="649.1138" x="1166.4927" y="776.0938"/><path d="M1166.4927,822.3594 L1815.6064,822.3594 L1815.6064,874.2969 A5,5 0 0 1 1810.6064,879.2969 L1171.4927,879.2969 A5,5 0 0 1 1166.4927,874.2969 L1166.4927,822.3594" fill="#FFFFFF" style="stroke:none;stroke-width:1;"/><rect fill="#FFFFFF" height="103.2031" rx="5" ry="5" style="stroke:#000000;stroke-width:1;" width="649.1138" x="1166.4927" y="951.5625"/><path d="M1166.4927,997.8281 L1815.6064,997.8281 L1815.6064,1049.7656 A5,5 0 0 1 1810.6064,1054.7656 L1171.4927,1054.7656 A5,5 0 0 1 1166.4927,1049.7656 L1166.4927,997.8281" fill="#FFFFFF" style="stroke:none;stroke-width:1;"/><g class="participant-lifeline" data-entity-uid="part1" data-qualified-name="User" id="part1-lifeline"><g><title>User</title><rect fill="#000000" fill-opacity="0.00000" height="1198.0547" width="8" x="24.9551" y="128.9063"/><line style="stroke:#000000;stroke-width:1;stroke-dasharray:5,5;" x1="28" x2="28" y1="128.9063" y2="1326.9609"/></g></g><g class="participant-lifeline" data-entity-uid="part2" data-qualified-name="UI" id="part2-lifeline"><g><title>Calendar UI</title><rect fill="#000000" fill-opacity="0.00000" height="1198.0547" width="8" x="232.834" y="128.9063"/><line style="stroke:#000000;stroke-width:1;stroke-dasharray:5,5;" x1="235.9448" x2="235.9448" y1="128.9063" y2="1326.9609"/></g></g><g class="participant-lifeline" data-entity-uid="part3" data-qualified-name="HTTP" id="part3-lifeline"><g><title>HTTP Client</title><rect fill="#000000" fill-opacity="0.00000" height="1198.0547" width="8" x="536.2642" y="128.9063"/><line style="stroke:#000000;stroke-width:1;stroke-dasharray:5,5;" x1="539.7373" x2="539.7373" y1="128.9063" y2="1326.9609"/></g></g><g class="participant-lifeline" data-entity-uid="part4" data-qualified-name="Route" id="part4-lifeline"><g><title>Express route</title><rect fill="#000000" fill-opacity="0.00000" height="1198.0547" width="8" x="761.1992" y="128.9063"/><line style="stroke:#000000;stroke-width:1;stroke-dasharray:5,5;" x1="764.8384" x2="764.8384" y1="128.9063" y2="1326.9609"/></g></g><g class="participant-lifeline" data-entity-uid="part5" data-qualified-name="Auth" id="part5-lifeline"><g><title>Express session auth</title><rect fill="#000000" fill-opacity="0.00000" height="1198.0547" width="8" x="927.3164" y="128.9063"/><line style="stroke:#000000;stroke-width:1;stroke-dasharray:5,5;" x1="930.5601" x2="930.5601" y1="128.9063" y2="1326.9609"/></g></g><g class="participant-lifeline" data-entity-uid="part6" data-qualified-name="Val" id="part6-lifeline"><g><title>Zod validation</title><rect fill="#000000" fill-opacity="0.00000" height="1198.0547" width="8" x="1095.2827" y="128.9063"/><line style="stroke:#000000;stroke-width:1;stroke-dasharray:5,5;" x1="1099.0728" x2="1099.0728" y1="128.9063" y2="1326.9609"/></g></g><g class="participant-lifeline" data-entity-uid="part7" data-qualified-name="BL" id="part7-lifeline"><g><title>Calendar handlers</title><rect fill="#000000" fill-opacity="0.00000" height="1198.0547" width="8" x="1253.5762" y="128.9063"/><line style="stroke:#000000;stroke-width:1;stroke-dasharray:5,5;" x1="1257.4927" x2="1257.4927" y1="128.9063" y2="1326.9609"/></g></g><g class="participant-lifeline" data-entity-uid="part8" data-qualified-name="ORM" id="part8-lifeline"><g><title>Drizzle ORM</title><rect fill="#000000" fill-opacity="0.00000" height="1198.0547" width="8" x="1501.9912" y="128.9063"/><line style="stroke:#000000;stroke-width:1;stroke-dasharray:5,5;" x1="1505.54" x2="1505.54" y1="128.9063" y2="1326.9609"/></g></g><g class="participant-lifeline" data-entity-uid="part9" data-qualified-name="DB" id="part9-lifeline"><g><title>PostgreSQL</title><rect fill="#000000" fill-opacity="0.00000" height="1198.0547" width="8" x="1686.5244" y="128.9063"/><line style="stroke:#000000;stroke-width:1;stroke-dasharray:5,5;" x1="1690.4424" x2="1690.4424" y1="128.9063" y2="1326.9609"/></g></g><g class="participant-lifeline" data-entity-uid="part10" data-qualified-name="WS" id="part10-lifeline"><g><title>WebSocket Gateway</title><rect fill="#000000" fill-opacity="0.00000" height="1198.0547" width="8" x="1901.105" y="128.9063"/><line style="stroke:#000000;stroke-width:1;stroke-dasharray:5,5;" x1="1904.6064" x2="1904.6064" y1="128.9063" y2="1326.9609"/></g></g><g class="participant participant-head" data-entity-uid="part1" data-qualified-name="User" id="part1-head"><text fill="#000000" font-family="Verdana" font-size="14" lengthAdjust="spacing" textLength="31.9102" x="10" y="125.6045">User</text><ellipse cx="28.9551" cy="60.6094" fill="#FFFFFF" rx="8" ry="8" style="stroke:#000000;stroke-width:1;"/><path d="M28.9551,68.6094 L28.9551,95.6094 M15.9551,76.6094 L41.9551,76.6094 M28.9551,95.6094 L15.9551,110.6094 M28.9551,95.6094 L41.9551,110.6094" fill="none" style="stroke:#000000;stroke-width:1;"/></g><g class="participant participant-tail" data-entity-uid="part1" data-qualified-name="User" id="part1-tail"><text fill="#000000" font-family="Verdana" font-size="14" lengthAdjust="spacing" textLength="31.9102" x="10" y="1338.9561">User</text><ellipse cx="28.9551" cy="1351.2578" fill="#FFFFFF" rx="8" ry="8" style="stroke:#000000;stroke-width:1;"/><path d="M28.9551,1359.2578 L28.9551,1386.2578 M15.9551,1367.2578 L41.9551,1367.2578 M28.9551,1386.2578 L15.9551,1401.2578 M28.9551,1386.2578 L41.9551,1401.2578" fill="none" style="stroke:#000000;stroke-width:1;"/></g><g class="participant participant-head" data-entity-uid="part2" data-qualified-name="UI" id="part2-head"><rect fill="#FFFFFF" height="46.5938" rx="5" ry="5" style="stroke:#000000;stroke-width:1;" width="95.7783" x="188.9448" y="81.3125"/><text fill="#000000" font-family="Verdana" font-size="14" lengthAdjust="spacing" textLength="81.7783" x="195.9448" y="101.3076">Calendar UI</text><text fill="#000000" font-family="Verdana" font-size="14" lengthAdjust="spacing" textLength="51.0303" x="211.3188" y="117.6045">(React)</text></g><g class="participant participant-tail" data-entity-uid="part2" data-qualified-name="UI" id="part2-tail"><rect fill="#FFFFFF" height="46.5938" rx="5" ry="5" style="stroke:#000000;stroke-width:1;" width="95.7783" x="188.9448" y="1325.9609"/><text fill="#000000" font-family="Verdana" font-size="14" lengthAdjust="spacing" textLength="81.7783" x="195.9448" y="1345.9561">Calendar UI</text><text fill="#000000" font-family="Verdana" font-size="14" lengthAdjust="spacing" textLength="51.0303" x="211.3188" y="1362.2529">(React)</text></g><g class="participant participant-head" data-entity-uid="part3" data-qualified-name="HTTP" id="part3-head"><rect fill="#FFFFFF" height="30.2969" rx="5" ry="5" style="stroke:#000000;stroke-width:1;" width="95.0537" x="492.7373" y="97.6094"/><text fill="#000000" font-family="Verdana" font-size="14" lengthAdjust="spacing" textLength="81.0537" x="499.7373" y="117.6045">HTTP Client</text></g><g class="participant participant-tail" data-entity-uid="part3" data-qualified-name="HTTP" id="part3-tail"><rect fill="#FFFFFF" height="30.2969" rx="5" ry="5" style="stroke:#000000;stroke-width:1;" width="95.0537" x="492.7373" y="1325.9609"/><text fill="#000000" font-family="Verdana" font-size="14" lengthAdjust="spacing" textLength="81.0537" x="499.7373" y="1345.9561">HTTP Client</text></g><g class="participant participant-head" data-entity-uid="part4" data-qualified-name="Route" id="part4-head"><rect fill="#FFFFFF" height="46.5938" rx="5" ry="5" style="stroke:#000000;stroke-width:1;" width="110.7217" x="709.8384" y="81.3125"/><text fill="#000000" font-family="Verdana" font-size="14" lengthAdjust="spacing" textLength="96.7217" x="716.8384" y="101.3076">Express route</text><text fill="#000000" font-family="Verdana" font-size="14" lengthAdjust="spacing" textLength="88.8809" x="720.7588" y="117.6045">(/api/events)</text></g><g class="participant participant-tail" data-entity-uid="part4" data-qualified-name="Route" id="part4-tail"><rect fill="#FFFFFF" height="46.5938" rx="5" ry="5" style="stroke:#000000;stroke-width:1;" width="110.7217" x="709.8384" y="1325.9609"/><text fill="#000000" font-family="Verdana" font-size="14" lengthAdjust="spacing" textLength="96.7217" x="716.8384" y="1345.9561">Express route</text><text fill="#000000" font-family="Verdana" font-size="14" lengthAdjust="spacing" textLength="88.8809" x="720.7588" y="1362.2529">(/api/events)</text></g><g class="participant participant-head" data-entity-uid="part5" data-qualified-name="Auth" id="part5-head"><rect fill="#FFFFFF" height="30.2969" rx="5" ry="5" style="stroke:#000000;stroke-width:1;" width="161.5127" x="850.5601" y="97.6094"/><text fill="#000000" font-family="Verdana" font-size="14" lengthAdjust="spacing" textLength="147.5127" x="857.5601" y="117.6045">Express session auth</text></g><g class="participant participant-tail" data-entity-uid="part5" data-qualified-name="Auth" id="part5-tail"><rect fill="#FFFFFF" height="30.2969" rx="5" ry="5" style="stroke:#000000;stroke-width:1;" width="161.5127" x="850.5601" y="1325.9609"/><text fill="#000000" font-family="Verdana" font-size="14" lengthAdjust="spacing" textLength="147.5127" x="857.5601" y="1345.9561">Express session auth</text></g><g class="participant participant-head" data-entity-uid="part6" data-qualified-name="Val" id="part6-head"><rect fill="#FFFFFF" height="30.2969" rx="5" ry="5" style="stroke:#000000;stroke-width:1;" width="114.4199" x="1042.0728" y="97.6094"/><text fill="#000000" font-family="Verdana" font-size="14" lengthAdjust="spacing" textLength="100.4199" x="1049.0728" y="117.6045">Zod validation</text></g><g class="participant participant-tail" data-entity-uid="part6" data-qualified-name="Val" id="part6-tail"><rect fill="#FFFFFF" height="30.2969" rx="5" ry="5" style="stroke:#000000;stroke-width:1;" width="114.4199" x="1042.0728" y="1325.9609"/><text fill="#000000" font-family="Verdana" font-size="14" lengthAdjust="spacing" textLength="100.4199" x="1049.0728" y="1345.9561">Zod validation</text></g><g class="participant participant-head" data-entity-uid="part7" data-qualified-name="BL" id="part7-head"><rect fill="#FFFFFF" height="46.5938" rx="5" ry="5" style="stroke:#000000;stroke-width:1;" width="142.167" x="1186.4927" y="81.3125"/><text fill="#000000" font-family="Verdana" font-size="14" lengthAdjust="spacing" textLength="128.167" x="1193.4927" y="101.3076">Calendar handlers</text><text fill="#000000" font-family="Verdana" font-size="14" lengthAdjust="spacing" textLength="109.3203" x="1202.916" y="117.6045">(business logic)</text></g><g class="participant participant-tail" data-entity-uid="part7" data-qualified-name="BL" id="part7-tail"><rect fill="#FFFFFF" height="46.5938" rx="5" ry="5" style="stroke:#000000;stroke-width:1;" width="142.167" x="1186.4927" y="1325.9609"/><text fill="#000000" font-family="Verdana" font-size="14" lengthAdjust="spacing" textLength="128.167" x="1193.4927" y="1345.9561">Calendar handlers</text><text fill="#000000" font-family="Verdana" font-size="14" lengthAdjust="spacing" textLength="109.3203" x="1202.916" y="1362.2529">(business logic)</text></g><g class="participant participant-head" data-entity-uid="part8" data-qualified-name="ORM" id="part8-head"><rect fill="#FFFFFF" height="30.2969" rx="5" ry="5" style="stroke:#000000;stroke-width:1;" width="98.9023" x="1456.54" y="97.6094"/><text fill="#000000" font-family="Verdana" font-size="14" lengthAdjust="spacing" textLength="84.9023" x="1463.54" y="117.6045">Drizzle ORM</text></g><g class="participant participant-tail" data-entity-uid="part8" data-qualified-name="ORM" id="part8-tail"><rect fill="#FFFFFF" height="30.2969" rx="5" ry="5" style="stroke:#000000;stroke-width:1;" width="98.9023" x="1456.54" y="1325.9609"/><text fill="#000000" font-family="Verdana" font-size="14" lengthAdjust="spacing" textLength="84.9023" x="1463.54" y="1345.9561">Drizzle ORM</text></g><g class="participant participant-head" data-entity-uid="part9" data-qualified-name="DB" id="part9-head"><rect fill="#FFFFFF" height="62.8906" rx="5" ry="5" style="stroke:#000000;stroke-width:1;" width="210.1641" x="1585.4424" y="65.0156"/><text fill="#000000" font-family="Verdana" font-size="14" lengthAdjust="spacing" textLength="80.7529" x="1650.1479" y="85.0107">PostgreSQL</text><text fill="#000000" font-family="Verdana" font-size="14" lengthAdjust="spacing" textLength="196.1641" x="1592.4424" y="101.3076">(events, event_participants,</text><text fill="#000000" font-family="Verdana" font-size="14" lengthAdjust="spacing" textLength="91.4854" x="1644.7817" y="117.6045">notifications)</text></g><g class="participant participant-tail" data-entity-uid="part9" data-qualified-name="DB" id="part9-tail"><rect fill="#FFFFFF" height="62.8906" rx="5" ry="5" style="stroke:#000000;stroke-width:1;" width="210.1641" x="1585.4424" y="1325.9609"/><text fill="#000000" font-family="Verdana" font-size="14" lengthAdjust="spacing" textLength="80.7529" x="1650.1479" y="1345.9561">PostgreSQL</text><text fill="#000000" font-family="Verdana" font-size="14" lengthAdjust="spacing" textLength="196.1641" x="1592.4424" y="1362.2529">(events, event_participants,</text><text fill="#000000" font-family="Verdana" font-size="14" lengthAdjust="spacing" textLength="91.4854" x="1644.7817" y="1378.5498">notifications)</text></g><g class="participant participant-head" data-entity-uid="part10" data-qualified-name="WS" id="part10-head"><rect fill="#FFFFFF" height="46.5938" rx="5" ry="5" style="stroke:#000000;stroke-width:1;" width="158.9971" x="1825.6064" y="81.3125"/><text fill="#000000" font-family="Verdana" font-size="14" lengthAdjust="spacing" textLength="144.9971" x="1832.6064" y="101.3076">WebSocket Gateway</text><text fill="#000000" font-family="Verdana" font-size="14" lengthAdjust="spacing" textLength="34.3848" x="1887.9126" y="117.6045">(/ws)</text></g><g class="participant participant-tail" data-entity-uid="part10" data-qualified-name="WS" id="part10-tail"><rect fill="#FFFFFF" height="46.5938" rx="5" ry="5" style="stroke:#000000;stroke-width:1;" width="158.9971" x="1825.6064" y="1325.9609"/><text fill="#000000" font-family="Verdana" font-size="14" lengthAdjust="spacing" textLength="144.9971" x="1832.6064" y="1345.9561">WebSocket Gateway</text><text fill="#000000" font-family="Verdana" font-size="14" lengthAdjust="spacing" textLength="34.3848" x="1887.9126" y="1362.2529">(/ws)</text></g><rect fill="#FFFFFF" height="3" rx="5" ry="5" style="stroke:#FFFFFF;stroke-width:1;" width="1994.6035" x="5" y="159.4727"/><line style="stroke:#000000;stroke-width:0.5;" x1="5" x2="1999.6035" y1="159.4727" y2="159.4727"/><line style="stroke:#000000;stroke-width:0.5;" x1="5" x2="1999.6035" y1="162.4727" y2="162.4727"/><rect fill="#FFFFFF" height="23.1328" rx="5" ry="5" style="stroke:#000000;stroke-width:1;" width="249.0283" x="877.7876" y="148.9063"/><text fill="#000000" font-family="Verdana" font-size="13" font-weight="bold" lengthAdjust="spacing" textLength="230.5024" x="883.7876" y="164.9731">Step 1 — User creates an event</text><g class="message" data-entity-1="part1" data-entity-2="part2" id="msg1"><polygon fill="#000000" points="224.834,214.3047,234.834,218.3047,224.834,222.3047,228.834,218.3047" style="stroke:#000000;stroke-width:1;"/><line style="stroke:#000000;stroke-width:2;" x1="28.9551" x2="230.834" y1="218.3047" y2="218.3047"/><text fill="#000000" font-family="Verdana" font-size="13" lengthAdjust="spacing" textLength="111.0459" x="35.9551" y="198.106">Fill event details,</text><text fill="#000000" font-family="Verdana" font-size="13" lengthAdjust="spacing" textLength="130.2603" x="35.9551" y="213.2388">select participants[]</text></g><g class="message" data-entity-1="part2" data-entity-2="part3" id="msg2"><polygon fill="#000000" points="528.2642,258.5703,538.2642,262.5703,528.2642,266.5703,532.2642,262.5703" style="stroke:#000000;stroke-width:1;"/><line style="stroke:#000000;stroke-width:2;" x1="236.834" x2="534.2642" y1="262.5703" y2="262.5703"/><text fill="#000000" font-family="Verdana" font-size="13" lengthAdjust="spacing" textLength="110.7856" x="243.834" y="242.3716">POST /api/events</text><text fill="#000000" font-family="Verdana" font-size="13" lengthAdjust="spacing" textLength="279.4302" x="243.834" y="257.5044">{ title, startDate, endDate, participants[] }</text></g><g class="message" data-entity-1="part3" data-entity-2="part4" id="msg3"><polygon fill="#000000" points="753.1992,287.7031,763.1992,291.7031,753.1992,295.7031,757.1992,291.7031" style="stroke:#000000;stroke-width:1;"/><line style="stroke:#000000;stroke-width:2;" x1="540.2642" x2="759.1992" y1="291.7031" y2="291.7031"/><text fill="#000000" font-family="Verdana" font-size="13" lengthAdjust="spacing" textLength="200.9351" x="547.2642" y="286.6372">HTTP request + session cookie</text></g><g class="message" data-entity-1="part4" data-entity-2="part5" id="msg4"><polygon fill="#000000" points="919.3164,316.8359,929.3164,320.8359,919.3164,324.8359,923.3164,320.8359" style="stroke:#000000;stroke-width:1;"/><line style="stroke:#000000;stroke-width:2;" x1="765.1992" x2="925.3164" y1="320.8359" y2="320.8359"/><text fill="#000000" font-family="Verdana" font-size="13" lengthAdjust="spacing" textLength="92.2441" x="772.1992" y="315.77">Check session</text></g><g class="message" data-entity-1="part5" data-entity-2="part4" id="msg5"><polygon fill="#000000" points="776.1992,345.9688,766.1992,349.9688,776.1992,353.9688,772.1992,349.9688" style="stroke:#000000;stroke-width:1;"/><line style="stroke:#000000;stroke-width:2;stroke-dasharray:2,2;" x1="770.1992" x2="930.3164" y1="349.9688" y2="349.9688"/><text fill="#000000" font-family="Verdana" font-size="13" lengthAdjust="spacing" textLength="106.9009" x="782.1992" y="344.9028">✓ Authenticated</text></g><g class="message" data-entity-1="part4" data-entity-2="part6" id="msg6"><polygon fill="#000000" points="1087.2827,375.1016,1097.2827,379.1016,1087.2827,383.1016,1091.2827,379.1016" style="stroke:#000000;stroke-width:1;"/><line style="stroke:#000000;stroke-width:2;" x1="765.1992" x2="1093.2827" y1="379.1016" y2="379.1016"/><text fill="#000000" font-family="Verdana" font-size="13" lengthAdjust="spacing" textLength="89.6797" x="772.1992" y="374.0356">Validate body</text></g><g class="message" data-entity-1="part6" data-entity-2="part4" id="msg7"><polygon fill="#000000" points="776.1992,404.2344,766.1992,408.2344,776.1992,412.2344,772.1992,408.2344" style="stroke:#000000;stroke-width:1;"/><line style="stroke:#000000;stroke-width:2;stroke-dasharray:2,2;" x1="770.1992" x2="1098.2827" y1="408.2344" y2="408.2344"/><text fill="#000000" font-family="Verdana" font-size="13" lengthAdjust="spacing" textLength="47.3599" x="782.1992" y="403.1685">✓ Valid</text></g><rect fill="#FFFFFF" height="3" rx="5" ry="5" style="stroke:#FFFFFF;stroke-width:1;" width="1994.6035" x="5" y="436.8008"/><line style="stroke:#000000;stroke-width:0.5;" x1="5" x2="1999.6035" y1="436.8008" y2="436.8008"/><line style="stroke:#000000;stroke-width:0.5;" x1="5" x2="1999.6035" y1="439.8008" y2="439.8008"/><rect fill="#FFFFFF" height="23.1328" rx="5" ry="5" style="stroke:#000000;stroke-width:1;" width="315.9517" x="844.3259" y="426.2344"/><text fill="#000000" font-family="Verdana" font-size="13" font-weight="bold" lengthAdjust="spacing" textLength="297.4258" x="850.3259" y="442.3013">Step 2 -- Event persistence (non-atomic)</text><g class="message" data-entity-1="part4" data-entity-2="part7" id="msg8"><polygon fill="#000000" points="1245.5762,476.5,1255.5762,480.5,1245.5762,484.5,1249.5762,480.5" style="stroke:#000000;stroke-width:1;"/><line style="stroke:#000000;stroke-width:2;" x1="765.1992" x2="1251.5762" y1="480.5" y2="480.5"/><text fill="#000000" font-family="Verdana" font-size="13" lengthAdjust="spacing" textLength="166.9243" x="772.1992" y="475.4341">createEvent(userId, data)</text></g><g class="message" data-entity-1="part7" data-entity-2="part8" id="msg9"><polygon fill="#000000" points="1493.9912,505.6328,1503.9912,509.6328,1493.9912,513.6328,1497.9912,509.6328" style="stroke:#000000;stroke-width:1;"/><line style="stroke:#000000;stroke-width:2;" x1="1257.5762" x2="1499.9912" y1="509.6328" y2="509.6328"/><text fill="#000000" font-family="Verdana" font-size="13" lengthAdjust="spacing" textLength="147.3291" x="1264.5762" y="504.5669">1. INSERT INTO events</text></g><g class="message" data-entity-1="part8" data-entity-2="part9" id="msg10"><polygon fill="#000000" points="1678.5244,534.7656,1688.5244,538.7656,1678.5244,542.7656,1682.5244,538.7656" style="stroke:#000000;stroke-width:1;"/><line style="stroke:#000000;stroke-width:2;" x1="1505.9912" x2="1684.5244" y1="538.7656" y2="538.7656"/><text fill="#000000" font-family="Verdana" font-size="13" lengthAdjust="spacing" textLength="25.7271" x="1512.9912" y="533.6997">SQL</text></g><g class="message" data-entity-1="part9" data-entity-2="part8" id="msg11"><polygon fill="#000000" points="1516.9912,563.8984,1506.9912,567.8984,1516.9912,571.8984,1512.9912,567.8984" style="stroke:#000000;stroke-width:1;"/><line style="stroke:#000000;stroke-width:2;stroke-dasharray:2,2;" x1="1510.9912" x2="1689.5244" y1="567.8984" y2="567.8984"/><text fill="#000000" font-family="Verdana" font-size="13" lengthAdjust="spacing" textLength="65.0889" x="1522.9912" y="562.8325">event row</text></g><path d="M1262,585.8984 L1262,675.8984 A5,5 0 0 0 1267,680.8984 L1495,680.8984 A5,5 0 0 0 1500,675.8984 L1500,590.8984 L1490,580.8984 L1267,580.8984 A5,5 0 0 0 1262,585.8984" fill="#FFFFFF" style="stroke:#000000;stroke-width:1;"/><path d="M1490,580.8984 L1490,588.3984 A2.5,2.5 0 0 0 1492.5,590.8984 L1500,590.8984 L1490,580.8984" fill="#FFFFFF" style="stroke:#000000;stroke-width:1;"/><text fill="#000000" font-family="Verdana" font-size="13" lengthAdjust="spacing" textLength="177.7534" x="1268" y="597.9653">The event is persisted first.</text><text fill="#000000" font-family="Verdana" font-size="13" lengthAdjust="spacing" textLength="217.6104" x="1268" y="613.0981">Participant rows and notifications</text><text fill="#000000" font-family="Verdana" font-size="13" lengthAdjust="spacing" textLength="153.4609" x="1268" y="628.231">are created afterwards.</text><text fill="#000000" font-family="Verdana" font-size="13" lengthAdjust="spacing" textLength="215.5156" x="1268" y="643.3638">Individual participant/notification</text><text fill="#000000" font-family="Verdana" font-size="13" lengthAdjust="spacing" textLength="196.3647" x="1268" y="658.4966">failures are logged and do not</text><text fill="#000000" font-family="Verdana" font-size="13" lengthAdjust="spacing" textLength="176.1094" x="1268" y="673.6294">rollback the created event.</text><path d="M1161.4927,693.6953 L1233.1167,693.6953 L1233.1167,700.8281 L1223.1167,710.8281 L1156.4927,710.8281 L1156.4927,698.6953 A5,5 0 0 1 1161.4927,693.6953" fill="#FFFFFF" style="stroke:#000000;stroke-width:1;"/><rect fill="none" height="368.0703" rx="5" ry="5" style="stroke:#000000;stroke-width:1;" width="669.1138" x="1156.4927" y="693.6953"/><text fill="#000000" font-family="Verdana" font-size="13" font-weight="bold" lengthAdjust="spacing" textLength="31.624" x="1171.4927" y="706.7622">loop</text><text fill="#000000" font-family="Verdana" font-size="11" font-weight="bold" lengthAdjust="spacing" textLength="240.1631" x="1248.1167" y="705.9058">[For each participant in participants[]]</text><g class="message" data-entity-1="part7" data-entity-2="part8" id="msg12"><polygon fill="#000000" points="1493.9912,727.9609,1503.9912,731.9609,1493.9912,735.9609,1497.9912,731.9609" style="stroke:#000000;stroke-width:1;"/><line style="stroke:#000000;stroke-width:2;" x1="1257.5762" x2="1499.9912" y1="731.9609" y2="731.9609"/><text fill="#000000" font-family="Verdana" font-size="13" lengthAdjust="spacing" textLength="224.415" x="1264.5762" y="726.895">2. INSERT INTO event_participants</text></g><g class="message" data-entity-1="part8" data-entity-2="part9" id="msg13"><polygon fill="#000000" points="1678.5244,757.0938,1688.5244,761.0938,1678.5244,765.0938,1682.5244,761.0938" style="stroke:#000000;stroke-width:1;"/><line style="stroke:#000000;stroke-width:2;" x1="1505.9912" x2="1684.5244" y1="761.0938" y2="761.0938"/><text fill="#000000" font-family="Verdana" font-size="13" lengthAdjust="spacing" textLength="25.7271" x="1512.9912" y="756.0278">SQL</text></g><path d="M1171.4927,776.0938 L1230.9355,776.0938 L1230.9355,783.2266 L1220.9355,793.2266 L1166.4927,793.2266 L1166.4927,781.0938 A5,5 0 0 1 1171.4927,776.0938" fill="#FFFFFF" style="stroke:#000000;stroke-width:1;"/><rect fill="none" height="103.2031" rx="5" ry="5" style="stroke:#000000;stroke-width:1;" width="649.1138" x="1166.4927" y="776.0938"/><text fill="#000000" font-family="Verdana" font-size="13" font-weight="bold" lengthAdjust="spacing" textLength="19.4429" x="1181.4927" y="789.1606">alt</text><text fill="#000000" font-family="Verdana" font-size="11" font-weight="bold" lengthAdjust="spacing" textLength="59.4043" x="1245.9355" y="788.3042">[Success]</text><g class="message" data-entity-1="part9" data-entity-2="part8" id="msg14"><polygon fill="#000000" points="1516.9912,810.3594,1506.9912,814.3594,1516.9912,818.3594,1512.9912,814.3594" style="stroke:#000000;stroke-width:1;"/><line style="stroke:#000000;stroke-width:2;stroke-dasharray:2,2;" x1="1510.9912" x2="1689.5244" y1="814.3594" y2="814.3594"/><text fill="#000000" font-family="Verdana" font-size="13" lengthAdjust="spacing" textLength="98.6489" x="1522.9912" y="809.2935">participant row</text></g><line style="stroke:#000000;stroke-width:1;stroke-dasharray:2,2;" x1="1166.4927" x2="1815.6064" y1="823.3594" y2="823.3594"/><text fill="#000000" font-family="Verdana" font-size="11" font-weight="bold" lengthAdjust="spacing" textLength="171.5366" x="1171.4927" y="833.5698">[Failure (e.g., invalid user)]</text><g class="message" data-entity-1="part7" data-entity-2="part7" id="msg15"><line style="stroke:#000000;stroke-width:2;" x1="1257.5762" x2="1299.5762" y1="858.2969" y2="858.2969"/><line style="stroke:#000000;stroke-width:2;" x1="1299.5762" x2="1299.5762" y1="858.2969" y2="871.2969"/><line style="stroke:#000000;stroke-width:2;" x1="1258.5762" x2="1299.5762" y1="871.2969" y2="871.2969"/><polygon fill="#000000" points="1268.5762,867.2969,1258.5762,871.2969,1268.5762,875.2969,1264.5762,871.2969" style="stroke:#000000;stroke-width:1;"/><text fill="#000000" font-family="Verdana" font-size="13" lengthAdjust="spacing" textLength="156.2603" x="1264.5762" y="853.231">Log error, continue loop</text></g><g class="message" data-entity-1="part7" data-entity-2="part8" id="msg16"><polygon fill="#000000" points="1493.9912,903.4297,1503.9912,907.4297,1493.9912,911.4297,1497.9912,907.4297" style="stroke:#000000;stroke-width:1;"/><line style="stroke:#000000;stroke-width:2;" x1="1257.5762" x2="1499.9912" y1="907.4297" y2="907.4297"/><text fill="#000000" font-family="Verdana" font-size="13" lengthAdjust="spacing" textLength="183.4092" x="1264.5762" y="902.3638">3. INSERT INTO notifications</text></g><g class="message" data-entity-1="part8" data-entity-2="part9" id="msg17"><polygon fill="#000000" points="1678.5244,932.5625,1688.5244,936.5625,1678.5244,940.5625,1682.5244,936.5625" style="stroke:#000000;stroke-width:1;"/><line style="stroke:#000000;stroke-width:2;" x1="1505.9912" x2="1684.5244" y1="936.5625" y2="936.5625"/><text fill="#000000" font-family="Verdana" font-size="13" lengthAdjust="spacing" textLength="25.7271" x="1512.9912" y="931.4966">SQL</text></g><path d="M1171.4927,951.5625 L1230.9355,951.5625 L1230.9355,958.6953 L1220.9355,968.6953 L1166.4927,968.6953 L1166.4927,956.5625 A5,5 0 0 1 1171.4927,951.5625" fill="#FFFFFF" style="stroke:#000000;stroke-width:1;"/><rect fill="none" height="103.2031" rx="5" ry="5" style="stroke:#000000;stroke-width:1;" width="649.1138" x="1166.4927" y="951.5625"/><text fill="#000000" font-family="Verdana" font-size="13" font-weight="bold" lengthAdjust="spacing" textLength="19.4429" x="1181.4927" y="964.6294">alt</text><text fill="#000000" font-family="Verdana" font-size="11" font-weight="bold" lengthAdjust="spacing" textLength="59.4043" x="1245.9355" y="963.7729">[Success]</text><g class="message" data-entity-1="part9" data-entity-2="part8" id="msg18"><polygon fill="#000000" points="1516.9912,985.8281,1506.9912,989.8281,1516.9912,993.8281,1512.9912,989.8281" style="stroke:#000000;stroke-width:1;"/><line style="stroke:#000000;stroke-width:2;stroke-dasharray:2,2;" x1="1510.9912" x2="1689.5244" y1="989.8281" y2="989.8281"/><text fill="#000000" font-family="Verdana" font-size="13" lengthAdjust="spacing" textLength="101.1689" x="1522.9912" y="984.7622">notification row</text></g><line style="stroke:#000000;stroke-width:1;stroke-dasharray:2,2;" x1="1166.4927" x2="1815.6064" y1="998.8281" y2="998.8281"/><text fill="#000000" font-family="Verdana" font-size="11" font-weight="bold" lengthAdjust="spacing" textLength="53.249" x="1171.4927" y="1009.0386">[Failure]</text><g class="message" data-entity-1="part7" data-entity-2="part7" id="msg19"><line style="stroke:#000000;stroke-width:2;" x1="1257.5762" x2="1299.5762" y1="1033.7656" y2="1033.7656"/><line style="stroke:#000000;stroke-width:2;" x1="1299.5762" x2="1299.5762" y1="1033.7656" y2="1046.7656"/><line style="stroke:#000000;stroke-width:2;" x1="1258.5762" x2="1299.5762" y1="1046.7656" y2="1046.7656"/><polygon fill="#000000" points="1268.5762,1042.7656,1258.5762,1046.7656,1268.5762,1050.7656,1264.5762,1046.7656" style="stroke:#000000;stroke-width:1;"/><text fill="#000000" font-family="Verdana" font-size="13" lengthAdjust="spacing" textLength="156.2603" x="1264.5762" y="1028.6997">Log error, continue loop</text></g><g class="message" data-entity-1="part7" data-entity-2="part4" id="msg20"><polygon fill="#000000" points="776.1992,1085.8984,766.1992,1089.8984,776.1992,1093.8984,772.1992,1089.8984" style="stroke:#000000;stroke-width:1;"/><line style="stroke:#000000;stroke-width:2;stroke-dasharray:2,2;" x1="770.1992" x2="1256.5762" y1="1089.8984" y2="1089.8984"/><text fill="#000000" font-family="Verdana" font-size="13" lengthAdjust="spacing" textLength="139.0454" x="782.1992" y="1084.8325">Return created event</text></g><rect fill="#FFFFFF" height="3" rx="5" ry="5" style="stroke:#FFFFFF;stroke-width:1;" width="1994.6035" x="5" y="1118.4648"/><line style="stroke:#000000;stroke-width:0.5;" x1="5" x2="1999.6035" y1="1118.4648" y2="1118.4648"/><line style="stroke:#000000;stroke-width:0.5;" x1="5" x2="1999.6035" y1="1121.4648" y2="1121.4648"/><rect fill="#FFFFFF" height="23.1328" rx="5" ry="5" style="stroke:#000000;stroke-width:1;" width="228.373" x="888.1152" y="1107.8984"/><text fill="#000000" font-family="Verdana" font-size="13" font-weight="bold" lengthAdjust="spacing" textLength="209.8472" x="894.1152" y="1123.9653">Step 3 -- Respond and notify</text><g class="message" data-entity-1="part4" data-entity-2="part3" id="msg21"><polygon fill="#000000" points="551.2642,1173.2969,541.2642,1177.2969,551.2642,1181.2969,547.2642,1177.2969" style="stroke:#000000;stroke-width:1;"/><line style="stroke:#000000;stroke-width:2;stroke-dasharray:2,2;" x1="545.2642" x2="764.1992" y1="1177.2969" y2="1177.2969"/><text fill="#000000" font-family="Verdana" font-size="13" lengthAdjust="spacing" textLength="47.7026" x="557.2642" y="1157.0981">200 OK</text><text fill="#000000" font-family="Verdana" font-size="13" lengthAdjust="spacing" textLength="61.8325" x="557.2642" y="1172.231">{ event }</text></g><g class="message" data-entity-1="part3" data-entity-2="part2" id="msg22"><polygon fill="#000000" points="247.834,1202.4297,237.834,1206.4297,247.834,1210.4297,243.834,1206.4297" style="stroke:#000000;stroke-width:1;"/><line style="stroke:#000000;stroke-width:2;stroke-dasharray:2,2;" x1="241.834" x2="539.2642" y1="1206.4297" y2="1206.4297"/><text fill="#000000" font-family="Verdana" font-size="13" lengthAdjust="spacing" textLength="188.0176" x="253.834" y="1201.3638">Update state with new event</text></g><g class="message" data-entity-1="part2" data-entity-2="part1" id="msg23"><polygon fill="#000000" points="39.9551,1231.5625,29.9551,1235.5625,39.9551,1239.5625,35.9551,1235.5625" style="stroke:#000000;stroke-width:1;"/><line style="stroke:#000000;stroke-width:2;stroke-dasharray:2,2;" x1="33.9551" x2="235.834" y1="1235.5625" y2="1235.5625"/><text fill="#000000" font-family="Verdana" font-size="13" lengthAdjust="spacing" textLength="183.8789" x="45.9551" y="1230.4966">Show new event in calendar</text></g><g class="message" data-entity-1="part4" data-entity-2="part10" id="msg24"><polygon fill="#000000" points="1893.105,1260.6953,1903.105,1264.6953,1893.105,1268.6953,1897.105,1264.6953" style="stroke:#000000;stroke-width:1;"/><line style="stroke:#000000;stroke-width:2;" x1="765.1992" x2="1899.105" y1="1264.6953" y2="1264.6953"/><text fill="#000000" font-family="Verdana" font-size="13" lengthAdjust="spacing" textLength="244.0674" x="772.1992" y="1259.6294">emit('calendar:event:created', event)</text></g><g class="message" data-entity-1="part10" data-entity-2="part2" id="msg25"><polygon fill="#000000" points="247.834,1304.9609,237.834,1308.9609,247.834,1312.9609,243.834,1308.9609" style="stroke:#000000;stroke-width:1;"/><line style="stroke:#000000;stroke-width:2;stroke-dasharray:2,2;" x1="241.834" x2="1904.105" y1="1308.9609" y2="1308.9609"/><text fill="#000000" font-family="Verdana" font-size="13" lengthAdjust="spacing" textLength="165.8706" x="253.834" y="1288.7622">(Other connected clients)</text><text fill="#000000" font-family="Verdana" font-size="13" lengthAdjust="spacing" textLength="238.0752" x="253.834" y="1303.895">Realtime update / query invalidation</text></g><?plantuml-src bLNRRXit47tdLqpTXqYeB5_oje0BH9RT2bKgLol7GEkYe9SZYH1DRackLQS8a7z87ljr-PBCSDVIhk4-18RsuZapF3DpPlQxkCPxXD98RKNOQ5jAB-_XJXQRbNULLUVEE0_VNrxmNmiHyEyARO5ll7VRnLeN6uiXm6aBalmBvorwE3aM8kfe4FB64SPQhWYMmRaqQ9NqSF60DiAvHncriqB88jBP1zS1_G780FmWA7RKXIubGGzshjUJMzkR8tdqQ-Ya2_nviRY2SwFfW6JdzoxYuf_ISmR4EY85EvAbFa9c5EgGSpQyx1FeGen1Ld6Ti6_eeGlztIbua4Qhb5i2lPFcVx9PIwiC-a0qxggWKsMDM-cYPZAQTlt6Nhz_JwMTpTycEzsxW2iNuifZ_jkK8jOv3I3T_shXmk3MMXVrKXU9P9FtUDGDTeDtkIis6E4d6N4h7xbOsmPyamjnTWPvn19EuCl7pwbfK71FCO2qzR5mTYP4iXp-IBtAu58RqvWKHgaDambei8ZGflZ7d-9wmaxSm0okPla2MfswjVz2aja0GYItCPrAcLfLFtGZmGUHP47HKc-p51Gy2pH4-67NriAvZKQHG8pcxf9irrXidZ22_mU7-r1V_lkKSCIAoubgxqvzp_Z2Ma2uS-fHqDjpvmJO5_EKxCs0bAGC7M8Qefvrzb16Tq_QI4NTdJAQPatParUlecfFr03eKDaNOZHb42abWvCXJ7xDB-OBkYrcTHU281CZngCCI3TYF4e4aqFT9vfx8KWl25wlrX7SaeK9i5XZWz1XnrN1KliGXsI_Qec9Oh0e57HqHo3fiM6lG2uZ-gtqAh3xn2hze5L55MkrywWTW51Bab3bMN4KY4PdnN7e7ENuA09uPmnlEQ0MxKvAj8S2Qq8eX76kX4jQGhHPrktpGDldkWHerVJqXPfsPetWpofCIPi8ULKK92bw0sZNlEnMZUne0i9bdIVqSBWQ3eXLsZ70pUwd63Kd5iFKhG1fM_i12PfKQIkkZ2ivb5LqxMRmkfl1ymPz4_csymliluqe_v9yz_ConrXvsstZVdHUy-ZCCPJEghtO7jlZibiefyV7CFk5rqWjuQSLqQofwpBDBEqMkcurZRp5RNCUxoM6KUcf9ckttTjOBKMpt5iZUfFJBDths7lrPCmIF6iIUTKiwRwuoNSKUZDIhEVAM5gEb6sHlcgXVslf-sUYfizvLTCy0jfa_l595QdyNm40?></g></svg>