<?plantuml 1.2026.2?>
<svg xmlns="http://www.w3.org/2000/svg" xmlns:xlink="http://www.w3.org/1999/xlink" contentStyleType="text/css" data-diagram-type="SEQUENCE" height="2108px" preserveAspectRatio="none" style="width:2289px;height:2108px;background:#FEFEFE;" version="1.1" viewBox="0 0 2289 2108" width="2289px" zoomAndPan="magnify"><title>Sequence Diagram: Reserve Equipment from the Warehouse</title><defs/><g><rect fill="#FEFEFE" height="2108" style="stroke:none;stroke-width:1;" width="2289" x="0" y="0"/><text fill="#000000" font-family="Verdana" font-size="22" font-weight="bold" lengthAdjust="spacing" textLength="753.124" x="766.8496" y="35.4209">Sequence Diagram: Reserve Equipment from the Warehouse</text><rect fill="#FFFFFF" height="134.4688" rx="5" ry="5" style="stroke:#000000;stroke-width:1;" width="873.5586" x="15" y="452.3672"/><path d="M15,527.7656 L888.5586,527.7656 L888.5586,581.8359 A5,5 0 0 1 883.5586,586.8359 L20,586.8359 A5,5 0 0 1 15,581.8359 L15,527.7656" fill="#FFFFFF" style="stroke:none;stroke-width:1;"/><rect fill="#FFFFFF" height="148.4688" rx="5" ry="5" style="stroke:#000000;stroke-width:1;" width="1124.9331" x="235.2437" y="702.2344"/><path d="M235.2437,806.7656 L1360.1768,806.7656 L1360.1768,845.7031 A5,5 0 0 1 1355.1768,850.7031 L240.2437,850.7031 A5,5 0 0 1 235.2437,845.7031 L235.2437,806.7656" fill="#FFFFFF" style="stroke:none;stroke-width:1;"/><rect fill="#FFFFFF" height="163.6016" rx="5" ry="5" style="stroke:#000000;stroke-width:1;" width="1327.3286" x="235.2437" y="952.1016"/><path d="M235.2437,1071.7656 L1562.5723,1071.7656 L1562.5723,1110.7031 A5,5 0 0 1 1557.5723,1115.7031 L240.2437,1115.7031 A5,5 0 0 1 235.2437,1110.7031 L235.2437,1071.7656" fill="#FFFFFF" style="stroke:none;stroke-width:1;"/><rect fill="#FFFFFF" height="516" rx="5" ry="5" style="stroke:#000000;stroke-width:1;" width="2047.5796" x="225.2437" y="1333.6328"/><path d="M225.2437,1409.0313 L2272.8232,1409.0313 L2272.8232,1844.6328 A5,5 0 0 1 2267.8232,1849.6328 L230.2437,1849.6328 A5,5 0 0 1 225.2437,1844.6328 L225.2437,1409.0313" fill="#FFFFFF" style="stroke:none;stroke-width:1;"/><rect fill="#FFFFFF" height="280.1328" rx="5" ry="5" style="stroke:#000000;stroke-width:1;" width="2027.5796" x="235.2437" y="1562.5"/><path d="M235.2437,1682.1641 L2262.8232,1682.1641 L2262.8232,1837.6328 A5,5 0 0 1 2257.8232,1842.6328 L240.2437,1842.6328 A5,5 0 0 1 235.2437,1837.6328 L235.2437,1682.1641" fill="#FFFFFF" style="stroke:none;stroke-width:1;"/><g class="participant-lifeline" data-entity-uid="part1" data-qualified-name="User" id="part1-lifeline"><g><title>Staff user</title><rect fill="#000000" fill-opacity="0.00000" height="1898.5234" width="8" x="57.8994" y="128.9063"/><line style="stroke:#000000;stroke-width:1;stroke-dasharray:5,5;" x1="61" x2="61" y1="128.9063" y2="2027.4297"/></g></g><g class="participant-lifeline" data-entity-uid="part2" data-qualified-name="UI" id="part2-lifeline"><g><title>Equipment UI</title><rect fill="#000000" fill-opacity="0.00000" height="1898.5234" width="8" x="305.6543" y="128.9063"/><line style="stroke:#000000;stroke-width:1;stroke-dasharray:5,5;" x1="309.2437" x2="309.2437" y1="128.9063" y2="2027.4297"/></g></g><g class="participant-lifeline" data-entity-uid="part3" data-qualified-name="HTTP" id="part3-lifeline"><g><title>HTTP Client</title><rect fill="#000000" fill-opacity="0.00000" height="1898.5234" width="8" x="632.7993" y="128.9063"/><line style="stroke:#000000;stroke-width:1;stroke-dasharray:5,5;" x1="636.2725" x2="636.2725" y1="128.9063" y2="2027.4297"/></g></g><g class="participant-lifeline" data-entity-uid="part4" data-qualified-name="Schema" id="part4-lifeline"><g><title>Shared Zod schema</title><rect fill="#000000" fill-opacity="0.00000" height="1898.5234" width="8" x="787.4424" y="128.9063"/><line style="stroke:#000000;stroke-width:1;stroke-dasharray:5,5;" x1="791.3262" x2="791.3262" y1="128.9063" y2="2027.4297"/></g></g><g class="participant-lifeline" data-entity-uid="part5" data-qualified-name="Route" id="part5-lifeline"><g><title>Express route</title><rect fill="#000000" fill-opacity="0.00000" height="1898.5234" width="8" x="1006.1587" y="128.9063"/><line style="stroke:#000000;stroke-width:1;stroke-dasharray:5,5;" x1="1009.5586" x2="1009.5586" y1="128.9063" y2="2027.4297"/></g></g><g class="participant-lifeline" data-entity-uid="part6" data-qualified-name="Auth" id="part6-lifeline"><g><title>Passport auth</title><rect fill="#000000" fill-opacity="0.00000" height="1898.5234" width="8" x="1280.8911" y="128.9063"/><line style="stroke:#000000;stroke-width:1;stroke-dasharray:5,5;" x1="1284.6055" x2="1284.6055" y1="128.9063" y2="2027.4297"/></g></g><g class="participant-lifeline" data-entity-uid="part7" data-qualified-name="Val" id="part7-lifeline"><g><title>Zod request validation</title><rect fill="#000000" fill-opacity="0.00000" height="1898.5234" width="8" x="1452.3745" y="128.9063"/><line style="stroke:#000000;stroke-width:1;stroke-dasharray:5,5;" x1="1456.1768" x2="1456.1768" y1="128.9063" y2="2027.4297"/></g></g><g class="participant-lifeline" data-entity-uid="part8" data-qualified-name="BL" id="part8-lifeline"><g><title>Equipment handlers</title><rect fill="#000000" fill-opacity="0.00000" height="1898.5234" width="8" x="1646.1772" y="128.9063"/><line style="stroke:#000000;stroke-width:1;stroke-dasharray:5,5;" x1="1649.5723" x2="1649.5723" y1="128.9063" y2="2027.4297"/></g></g><g class="participant-lifeline" data-entity-uid="part9" data-qualified-name="ORM" id="part9-lifeline"><g><title>Drizzle ORM</title><rect fill="#000000" fill-opacity="0.00000" height="1898.5234" width="8" x="1967.7935" y="128.9063"/><line style="stroke:#000000;stroke-width:1;stroke-dasharray:5,5;" x1="1971.3423" x2="1971.3423" y1="128.9063" y2="2027.4297"/></g></g><g class="participant-lifeline" data-entity-uid="part10" data-qualified-name="DB" id="part10-lifeline"><g><title>PostgreSQL</title><rect fill="#000000" fill-opacity="0.00000" height="1898.5234" width="8" x="2144.207" y="128.9063"/><line style="stroke:#000000;stroke-width:1;stroke-dasharray:5,5;" x1="2147.5908" x2="2147.5908" y1="128.9063" y2="2027.4297"/></g></g><g class="participant participant-head" data-entity-uid="part1" data-qualified-name="User" id="part1-head"><text fill="#000000" font-family="Verdana" font-size="14" lengthAdjust="spacing" textLength="67.7988" x="25" y="125.6045">Staff user</text><ellipse cx="61.8994" cy="60.6094" fill="#FFFFFF" rx="8" ry="8" style="stroke:#000000;stroke-width:1;"/><path d="M61.8994,68.6094 L61.8994,95.6094 M48.8994,76.6094 L74.8994,76.6094 M61.8994,95.6094 L48.8994,110.6094 M61.8994,95.6094 L74.8994,110.6094" fill="none" style="stroke:#000000;stroke-width:1;"/></g><g class="participant participant-tail" data-entity-uid="part1" data-qualified-name="User" id="part1-tail"><text fill="#000000" font-family="Verdana" font-size="14" lengthAdjust="spacing" textLength="67.7988" x="25" y="2039.4248">Staff user</text><ellipse cx="61.8994" cy="2051.7266" fill="#FFFFFF" rx="8" ry="8" style="stroke:#000000;stroke-width:1;"/><path d="M61.8994,2059.7266 L61.8994,2086.7266 M48.8994,2067.7266 L74.8994,2067.7266 M61.8994,2086.7266 L48.8994,2101.7266 M61.8994,2086.7266 L74.8994,2101.7266" fill="none" style="stroke:#000000;stroke-width:1;"/></g><g class="participant participant-head" data-entity-uid="part2" data-qualified-name="UI" id="part2-head"><rect fill="#FFFFFF" height="46.5938" rx="5" ry="5" style="stroke:#000000;stroke-width:1;" width="108.8213" x="255.2437" y="81.3125"/><text fill="#000000" font-family="Verdana" font-size="14" lengthAdjust="spacing" textLength="94.8213" x="262.2437" y="101.3076">Equipment UI</text><text fill="#000000" font-family="Verdana" font-size="14" lengthAdjust="spacing" textLength="51.0303" x="284.1392" y="117.6045">(React)</text></g><g class="participant participant-tail" data-entity-uid="part2" data-qualified-name="UI" id="part2-tail"><rect fill="#FFFFFF" height="46.5938" rx="5" ry="5" style="stroke:#000000;stroke-width:1;" width="108.8213" x="255.2437" y="2026.4297"/><text fill="#000000" font-family="Verdana" font-size="14" lengthAdjust="spacing" textLength="94.8213" x="262.2437" y="2046.4248">Equipment UI</text><text fill="#000000" font-family="Verdana" font-size="14" lengthAdjust="spacing" textLength="51.0303" x="284.1392" y="2062.7217">(React)</text></g><g class="participant participant-head" data-entity-uid="part3" data-qualified-name="HTTP" id="part3-head"><rect fill="#FFFFFF" height="30.2969" rx="5" ry="5" style="stroke:#000000;stroke-width:1;" width="95.0537" x="589.2725" y="97.6094"/><text fill="#000000" font-family="Verdana" font-size="14" lengthAdjust="spacing" textLength="81.0537" x="596.2725" y="117.6045">HTTP Client</text></g><g class="participant participant-tail" data-entity-uid="part3" data-qualified-name="HTTP" id="part3-tail"><rect fill="#FFFFFF" height="30.2969" rx="5" ry="5" style="stroke:#000000;stroke-width:1;" width="95.0537" x="589.2725" y="2026.4297"/><text fill="#000000" font-family="Verdana" font-size="14" lengthAdjust="spacing" textLength="81.0537" x="596.2725" y="2046.4248">HTTP Client</text></g><g class="participant participant-head" data-entity-uid="part4" data-qualified-name="Schema" id="part4-head"><rect fill="#FFFFFF" height="46.5938" rx="5" ry="5" style="stroke:#000000;stroke-width:1;" width="154.2324" x="714.3262" y="81.3125"/><text fill="#000000" font-family="Verdana" font-size="14" lengthAdjust="spacing" textLength="140.2324" x="721.3262" y="101.3076">Shared Zod schema</text><text fill="#000000" font-family="Verdana" font-size="14" lengthAdjust="spacing" textLength="135.5703" x="723.6572" y="117.6045">(shared/schema.ts)</text></g><g class="participant participant-tail" data-entity-uid="part4" data-qualified-name="Schema" id="part4-tail"><rect fill="#FFFFFF" height="46.5938" rx="5" ry="5" style="stroke:#000000;stroke-width:1;" width="154.2324" x="714.3262" y="2026.4297"/><text fill="#000000" font-family="Verdana" font-size="14" lengthAdjust="spacing" textLength="140.2324" x="721.3262" y="2046.4248">Shared Zod schema</text><text fill="#000000" font-family="Verdana" font-size="14" lengthAdjust="spacing" textLength="135.5703" x="723.6572" y="2062.7217">(shared/schema.ts)</text></g><g class="participant participant-head" data-entity-uid="part5" data-qualified-name="Route" id="part5-head"><rect fill="#FFFFFF" height="46.5938" rx="5" ry="5" style="stroke:#000000;stroke-width:1;" width="223.2002" x="898.5586" y="81.3125"/><text fill="#000000" font-family="Verdana" font-size="14" lengthAdjust="spacing" textLength="96.7217" x="961.7979" y="101.3076">Express route</text><text fill="#000000" font-family="Verdana" font-size="14" lengthAdjust="spacing" textLength="209.2002" x="905.5586" y="117.6045">(/api/equipment/reservations)</text></g><g class="participant participant-tail" data-entity-uid="part5" data-qualified-name="Route" id="part5-tail"><rect fill="#FFFFFF" height="46.5938" rx="5" ry="5" style="stroke:#000000;stroke-width:1;" width="223.2002" x="898.5586" y="2026.4297"/><text fill="#000000" font-family="Verdana" font-size="14" lengthAdjust="spacing" textLength="96.7217" x="961.7979" y="2046.4248">Express route</text><text fill="#000000" font-family="Verdana" font-size="14" lengthAdjust="spacing" textLength="209.2002" x="905.5586" y="2062.7217">(/api/equipment/reservations)</text></g><g class="participant participant-head" data-entity-uid="part6" data-qualified-name="Auth" id="part6-head"><rect fill="#FFFFFF" height="46.5938" rx="5" ry="5" style="stroke:#000000;stroke-width:1;" width="110.5713" x="1229.6055" y="81.3125"/><text fill="#000000" font-family="Verdana" font-size="14" lengthAdjust="spacing" textLength="96.5713" x="1236.6055" y="101.3076">Passport auth</text><text fill="#000000" font-family="Verdana" font-size="14" lengthAdjust="spacing" textLength="82.2021" x="1243.79" y="117.6045">middleware</text></g><g class="participant participant-tail" data-entity-uid="part6" data-qualified-name="Auth" id="part6-tail"><rect fill="#FFFFFF" height="46.5938" rx="5" ry="5" style="stroke:#000000;stroke-width:1;" width="110.5713" x="1229.6055" y="2026.4297"/><text fill="#000000" font-family="Verdana" font-size="14" lengthAdjust="spacing" textLength="96.5713" x="1236.6055" y="2046.4248">Passport auth</text><text fill="#000000" font-family="Verdana" font-size="14" lengthAdjust="spacing" textLength="82.2021" x="1243.79" y="2062.7217">middleware</text></g><g class="participant participant-head" data-entity-uid="part7" data-qualified-name="Val" id="part7-head"><rect fill="#FFFFFF" height="30.2969" rx="5" ry="5" style="stroke:#000000;stroke-width:1;" width="172.3955" x="1370.1768" y="97.6094"/><text fill="#000000" font-family="Verdana" font-size="14" lengthAdjust="spacing" textLength="158.3955" x="1377.1768" y="117.6045">Zod request validation</text></g><g class="participant participant-tail" data-entity-uid="part7" data-qualified-name="Val" id="part7-tail"><rect fill="#FFFFFF" height="30.2969" rx="5" ry="5" style="stroke:#000000;stroke-width:1;" width="172.3955" x="1370.1768" y="2026.4297"/><text fill="#000000" font-family="Verdana" font-size="14" lengthAdjust="spacing" textLength="158.3955" x="1377.1768" y="2046.4248">Zod request validation</text></g><g class="participant participant-head" data-entity-uid="part8" data-qualified-name="BL" id="part8-head"><rect fill="#FFFFFF" height="46.5938" rx="5" ry="5" style="stroke:#000000;stroke-width:1;" width="155.21" x="1572.5723" y="81.3125"/><text fill="#000000" font-family="Verdana" font-size="14" lengthAdjust="spacing" textLength="141.21" x="1579.5723" y="101.3076">Equipment handlers</text><text fill="#000000" font-family="Verdana" font-size="14" lengthAdjust="spacing" textLength="109.3203" x="1595.5171" y="117.6045">(business logic)</text></g><g class="participant participant-tail" data-entity-uid="part8" data-qualified-name="BL" id="part8-tail"><rect fill="#FFFFFF" height="46.5938" rx="5" ry="5" style="stroke:#000000;stroke-width:1;" width="155.21" x="1572.5723" y="2026.4297"/><text fill="#000000" font-family="Verdana" font-size="14" lengthAdjust="spacing" textLength="141.21" x="1579.5723" y="2046.4248">Equipment handlers</text><text fill="#000000" font-family="Verdana" font-size="14" lengthAdjust="spacing" textLength="109.3203" x="1595.5171" y="2062.7217">(business logic)</text></g><g class="participant participant-head" data-entity-uid="part9" data-qualified-name="ORM" id="part9-head"><rect fill="#FFFFFF" height="30.2969" rx="5" ry="5" style="stroke:#000000;stroke-width:1;" width="98.9023" x="1922.3423" y="97.6094"/><text fill="#000000" font-family="Verdana" font-size="14" lengthAdjust="spacing" textLength="84.9023" x="1929.3423" y="117.6045">Drizzle ORM</text></g><g class="participant participant-tail" data-entity-uid="part9" data-qualified-name="ORM" id="part9-tail"><rect fill="#FFFFFF" height="30.2969" rx="5" ry="5" style="stroke:#000000;stroke-width:1;" width="98.9023" x="1922.3423" y="2026.4297"/><text fill="#000000" font-family="Verdana" font-size="14" lengthAdjust="spacing" textLength="84.9023" x="1929.3423" y="2046.4248">Drizzle ORM</text></g><g class="participant participant-head" data-entity-uid="part10" data-qualified-name="DB" id="part10-head"><rect fill="#FFFFFF" height="62.8906" rx="5" ry="5" style="stroke:#000000;stroke-width:1;" width="189.2324" x="2053.5908" y="65.0156"/><text fill="#000000" font-family="Verdana" font-size="14" lengthAdjust="spacing" textLength="80.7529" x="2107.8306" y="85.0107">PostgreSQL</text><text fill="#000000" font-family="Verdana" font-size="14" lengthAdjust="spacing" textLength="85.6748" x="2105.3696" y="101.3076">(equipment,</text><text fill="#000000" font-family="Verdana" font-size="14" lengthAdjust="spacing" textLength="175.2324" x="2060.5908" y="117.6045">equipment_reservations)</text></g><g class="participant participant-tail" data-entity-uid="part10" data-qualified-name="DB" id="part10-tail"><rect fill="#FFFFFF" height="62.8906" rx="5" ry="5" style="stroke:#000000;stroke-width:1;" width="189.2324" x="2053.5908" y="2026.4297"/><text fill="#000000" font-family="Verdana" font-size="14" lengthAdjust="spacing" textLength="80.7529" x="2107.8306" y="2046.4248">PostgreSQL</text><text fill="#000000" font-family="Verdana" font-size="14" lengthAdjust="spacing" textLength="85.6748" x="2105.3696" y="2062.7217">(equipment,</text><text fill="#000000" font-family="Verdana" font-size="14" lengthAdjust="spacing" textLength="175.2324" x="2060.5908" y="2079.0186">equipment_reservations)</text></g><rect fill="#FFFFFF" height="3" rx="5" ry="5" style="stroke:#FFFFFF;stroke-width:1;" width="2277.8232" x="5" y="159.4727"/><line style="stroke:#000000;stroke-width:0.5;" x1="5" x2="2282.8232" y1="159.4727" y2="159.4727"/><line style="stroke:#000000;stroke-width:0.5;" x1="5" x2="2282.8232" y1="162.4727" y2="162.4727"/><rect fill="#FFFFFF" height="23.1328" rx="5" ry="5" style="stroke:#000000;stroke-width:1;" width="326.6475" x="980.5879" y="148.9063"/><text fill="#000000" font-family="Verdana" font-size="13" font-weight="bold" lengthAdjust="spacing" textLength="308.1216" x="986.5879" y="164.9731">Step 1 — User opens the reservation form</text><g class="message" data-entity-1="part1" data-entity-2="part2" id="msg1"><polygon fill="#000000" points="297.6543,214.3047,307.6543,218.3047,297.6543,222.3047,301.6543,218.3047" style="stroke:#000000;stroke-width:1;"/><line style="stroke:#000000;stroke-width:2;" x1="61.8994" x2="303.6543" y1="218.3047" y2="218.3047"/><text fill="#000000" font-family="Verdana" font-size="13" lengthAdjust="spacing" textLength="142.708" x="68.8994" y="198.106">Open equipment item</text><text fill="#000000" font-family="Verdana" font-size="13" lengthAdjust="spacing" textLength="126.5659" x="68.8994" y="213.2388">and click "Reserve"</text></g><g class="message" data-entity-1="part2" data-entity-2="part4" id="msg2"><polygon fill="#000000" points="779.4424,258.5703,789.4424,262.5703,779.4424,266.5703,783.4424,262.5703" style="stroke:#000000;stroke-width:1;"/><line style="stroke:#000000;stroke-width:2;" x1="309.6543" x2="785.4424" y1="262.5703" y2="262.5703"/><text fill="#000000" font-family="Verdana" font-size="13" lengthAdjust="spacing" textLength="199.1577" x="316.6543" y="242.3716">Load reservation form schema</text><text fill="#000000" font-family="Verdana" font-size="13" lengthAdjust="spacing" textLength="202.5283" x="316.6543" y="257.5044">(start date, end date, quantity)</text></g><g class="message" data-entity-1="part4" data-entity-2="part2" id="msg3"><polygon fill="#000000" points="320.6543,287.7031,310.6543,291.7031,320.6543,295.7031,316.6543,291.7031" style="stroke:#000000;stroke-width:1;"/><line style="stroke:#000000;stroke-width:2;stroke-dasharray:2,2;" x1="314.6543" x2="790.4424" y1="291.7031" y2="291.7031"/><text fill="#000000" font-family="Verdana" font-size="13" lengthAdjust="spacing" textLength="186.4751" x="326.6543" y="286.6372">Field definitions + validators</text></g><g class="message" data-entity-1="part2" data-entity-2="part1" id="msg4"><polygon fill="#000000" points="72.8994,316.8359,62.8994,320.8359,72.8994,324.8359,68.8994,320.8359" style="stroke:#000000;stroke-width:1;"/><line style="stroke:#000000;stroke-width:2;stroke-dasharray:2,2;" x1="66.8994" x2="308.6543" y1="320.8359" y2="320.8359"/><text fill="#000000" font-family="Verdana" font-size="13" lengthAdjust="spacing" textLength="159.688" x="78.8994" y="315.77">Render reservation form</text></g><rect fill="#FFFFFF" height="3" rx="5" ry="5" style="stroke:#FFFFFF;stroke-width:1;" width="2277.8232" x="5" y="349.4023"/><line style="stroke:#000000;stroke-width:0.5;" x1="5" x2="2282.8232" y1="349.4023" y2="349.4023"/><line style="stroke:#000000;stroke-width:0.5;" x1="5" x2="2282.8232" y1="352.4023" y2="352.4023"/><rect fill="#FFFFFF" height="23.1328" rx="5" ry="5" style="stroke:#000000;stroke-width:1;" width="301.7837" x="993.0198" y="338.8359"/><text fill="#000000" font-family="Verdana" font-size="13" font-weight="bold" lengthAdjust="spacing" textLength="283.2578" x="999.0198" y="354.9028">Step 2 — User submits the reservation</text><g class="message" data-entity-1="part1" data-entity-2="part2" id="msg5"><polygon fill="#000000" points="297.6543,404.2344,307.6543,408.2344,297.6543,412.2344,301.6543,408.2344" style="stroke:#000000;stroke-width:1;"/><line style="stroke:#000000;stroke-width:2;" x1="61.8994" x2="303.6543" y1="408.2344" y2="408.2344"/><text fill="#000000" font-family="Verdana" font-size="13" lengthAdjust="spacing" textLength="135.2622" x="68.8994" y="388.0356">Fill dates &amp; quantity,</text><text fill="#000000" font-family="Verdana" font-size="13" lengthAdjust="spacing" textLength="91.2539" x="68.8994" y="403.1685">click "Submit"</text></g><g class="message" data-entity-1="part2" data-entity-2="part4" id="msg6"><polygon fill="#000000" points="779.4424,433.3672,789.4424,437.3672,779.4424,441.3672,783.4424,437.3672" style="stroke:#000000;stroke-width:1;"/><line style="stroke:#000000;stroke-width:2;" x1="309.6543" x2="785.4424" y1="437.3672" y2="437.3672"/><text fill="#000000" font-family="Verdana" font-size="13" lengthAdjust="spacing" textLength="133.7959" x="316.6543" y="432.3013">Validate form locally</text></g><path d="M20,452.3672 L79.4429,452.3672 L79.4429,459.5 L69.4429,469.5 L15,469.5 L15,457.3672 A5,5 0 0 1 20,452.3672" fill="#FFFFFF" style="stroke:#000000;stroke-width:1;"/><rect fill="none" height="134.4688" rx="5" ry="5" style="stroke:#000000;stroke-width:1;" width="873.5586" x="15" y="452.3672"/><text fill="#000000" font-family="Verdana" font-size="13" font-weight="bold" lengthAdjust="spacing" textLength="19.4429" x="30" y="465.4341">alt</text><text fill="#000000" font-family="Verdana" font-size="11" font-weight="bold" lengthAdjust="spacing" textLength="101.5996" x="94.4429" y="464.5776">[Form is invalid]</text><g class="message" data-entity-1="part4" data-entity-2="part2" id="msg7"><polygon fill="#000000" points="320.6543,486.6328,310.6543,490.6328,320.6543,494.6328,316.6543,490.6328" style="stroke:#000000;stroke-width:1;"/><line style="stroke:#000000;stroke-width:2;stroke-dasharray:2,2;" x1="314.6543" x2="790.4424" y1="490.6328" y2="490.6328"/><text fill="#000000" font-family="Verdana" font-size="13" lengthAdjust="spacing" textLength="108.0942" x="326.6543" y="485.5669">Validation errors</text></g><g class="message" data-entity-1="part2" data-entity-2="part1" id="msg8"><polygon fill="#000000" points="72.8994,515.7656,62.8994,519.7656,72.8994,523.7656,68.8994,519.7656" style="stroke:#000000;stroke-width:1;"/><line style="stroke:#000000;stroke-width:2;stroke-dasharray:2,2;" x1="66.8994" x2="308.6543" y1="519.7656" y2="519.7656"/><text fill="#000000" font-family="Verdana" font-size="13" lengthAdjust="spacing" textLength="117.4126" x="78.8994" y="514.6997">Show inline errors</text></g><line style="stroke:#000000;stroke-width:1;stroke-dasharray:2,2;" x1="15" x2="888.5586" y1="528.7656" y2="528.7656"/><text fill="#000000" font-family="Verdana" font-size="11" font-weight="bold" lengthAdjust="spacing" textLength="89.998" x="20" y="538.9761">[Form is valid]</text><g class="message" data-entity-1="part2" data-entity-2="part3" id="msg9"><polygon fill="#000000" points="624.7993,574.8359,634.7993,578.8359,624.7993,582.8359,628.7993,578.8359" style="stroke:#000000;stroke-width:1;"/><line style="stroke:#000000;stroke-width:2;" x1="309.6543" x2="630.7993" y1="578.8359" y2="578.8359"/><text fill="#000000" font-family="Verdana" font-size="13" lengthAdjust="spacing" textLength="222.5107" x="316.6543" y="558.6372">POST /api/equipment/reservations</text><text fill="#000000" font-family="Verdana" font-size="13" lengthAdjust="spacing" textLength="303.145" x="316.6543" y="573.77">{ equipmentId, startDate, endDate, quantity }</text></g><rect fill="#FFFFFF" height="3" rx="5" ry="5" style="stroke:#FFFFFF;stroke-width:1;" width="2277.8232" x="5" y="614.4023"/><line style="stroke:#000000;stroke-width:0.5;" x1="5" x2="2282.8232" y1="614.4023" y2="614.4023"/><line style="stroke:#000000;stroke-width:0.5;" x1="5" x2="2282.8232" y1="617.4023" y2="617.4023"/><rect fill="#FFFFFF" height="23.1328" rx="5" ry="5" style="stroke:#000000;stroke-width:1;" width="291.7988" x="998.0122" y="603.8359"/><text fill="#000000" font-family="Verdana" font-size="13" font-weight="bold" lengthAdjust="spacing" textLength="273.2729" x="1004.0122" y="619.9028">Step 3 — Server receives the request</text><g class="message" data-entity-1="part3" data-entity-2="part5" id="msg10"><polygon fill="#000000" points="998.1587,654.1016,1008.1587,658.1016,998.1587,662.1016,1002.1587,658.1016" style="stroke:#000000;stroke-width:1;"/><line style="stroke:#000000;stroke-width:2;" x1="636.7993" x2="1004.1587" y1="658.1016" y2="658.1016"/><text fill="#000000" font-family="Verdana" font-size="13" lengthAdjust="spacing" textLength="200.9351" x="643.7993" y="653.0356">HTTP request + session cookie</text></g><g class="message" data-entity-1="part5" data-entity-2="part6" id="msg11"><polygon fill="#000000" points="1272.8911,683.2344,1282.8911,687.2344,1272.8911,691.2344,1276.8911,687.2344" style="stroke:#000000;stroke-width:1;"/><line style="stroke:#000000;stroke-width:2;" x1="1010.1587" x2="1278.8911" y1="687.2344" y2="687.2344"/><text fill="#000000" font-family="Verdana" font-size="13" lengthAdjust="spacing" textLength="250.7324" x="1017.1587" y="682.1685">Check session / company membership</text></g><path d="M240.2437,702.2344 L299.6865,702.2344 L299.6865,709.3672 L289.6865,719.3672 L235.2437,719.3672 L235.2437,707.2344 A5,5 0 0 1 240.2437,702.2344" fill="#FFFFFF" style="stroke:#000000;stroke-width:1;"/><rect fill="none" height="148.4688" rx="5" ry="5" style="stroke:#000000;stroke-width:1;" width="1124.9331" x="235.2437" y="702.2344"/><text fill="#000000" font-family="Verdana" font-size="13" font-weight="bold" lengthAdjust="spacing" textLength="19.4429" x="250.2437" y="715.3013">alt</text><text fill="#000000" font-family="Verdana" font-size="11" font-weight="bold" lengthAdjust="spacing" textLength="123.1055" x="314.6865" y="714.4448">[Not authenticated]</text><g class="message" data-entity-1="part6" data-entity-2="part5" id="msg12"><polygon fill="#000000" points="1021.1587,736.5,1011.1587,740.5,1021.1587,744.5,1017.1587,740.5" style="stroke:#000000;stroke-width:1;"/><line style="stroke:#000000;stroke-width:2;stroke-dasharray:2,2;" x1="1015.1587" x2="1283.8911" y1="740.5" y2="740.5"/><text fill="#000000" font-family="Verdana" font-size="13" lengthAdjust="spacing" textLength="40.8853" x="1027.1587" y="735.4341">Reject</text></g><g class="message" data-entity-1="part5" data-entity-2="part3" id="msg13"><polygon fill="#000000" points="647.7993,765.6328,637.7993,769.6328,647.7993,773.6328,643.7993,769.6328" style="stroke:#000000;stroke-width:1;"/><line style="stroke:#000000;stroke-width:2;stroke-dasharray:2,2;" x1="641.7993" x2="1009.1587" y1="769.6328" y2="769.6328"/><text fill="#000000" font-family="Verdana" font-size="13" lengthAdjust="spacing" textLength="116.2256" x="653.7993" y="764.5669">401 Unauthorized</text></g><g class="message" data-entity-1="part3" data-entity-2="part2" id="msg14"><polygon fill="#000000" points="320.6543,794.7656,310.6543,798.7656,320.6543,802.7656,316.6543,798.7656" style="stroke:#000000;stroke-width:1;"/><line style="stroke:#000000;stroke-width:2;stroke-dasharray:2,2;" x1="314.6543" x2="635.7993" y1="798.7656" y2="798.7656"/><text fill="#000000" font-family="Verdana" font-size="13" lengthAdjust="spacing" textLength="133.7007" x="326.6543" y="793.6997">Show "please log in"</text></g><line style="stroke:#000000;stroke-width:1;stroke-dasharray:2,2;" x1="235.2437" x2="1360.1768" y1="807.7656" y2="807.7656"/><text fill="#000000" font-family="Verdana" font-size="11" font-weight="bold" lengthAdjust="spacing" textLength="98.3447" x="240.2437" y="817.9761">[Authenticated]</text><g class="message" data-entity-1="part6" data-entity-2="part5" id="msg15"><polygon fill="#000000" points="1021.1587,838.7031,1011.1587,842.7031,1021.1587,846.7031,1017.1587,842.7031" style="stroke:#000000;stroke-width:1;"/><line style="stroke:#000000;stroke-width:2;stroke-dasharray:2,2;" x1="1015.1587" x2="1283.8911" y1="842.7031" y2="842.7031"/><text fill="#000000" font-family="Verdana" font-size="13" lengthAdjust="spacing" textLength="160.7861" x="1027.1587" y="837.6372">user + company context</text></g><rect fill="#FFFFFF" height="3" rx="5" ry="5" style="stroke:#FFFFFF;stroke-width:1;" width="2277.8232" x="5" y="878.2695"/><line style="stroke:#000000;stroke-width:0.5;" x1="5" x2="2282.8232" y1="878.2695" y2="878.2695"/><line style="stroke:#000000;stroke-width:0.5;" x1="5" x2="2282.8232" y1="881.2695" y2="881.2695"/><rect fill="#FFFFFF" height="23.1328" rx="5" ry="5" style="stroke:#000000;stroke-width:1;" width="279.1416" x="1004.3408" y="867.7031"/><text fill="#000000" font-family="Verdana" font-size="13" font-weight="bold" lengthAdjust="spacing" textLength="260.6157" x="1010.3408" y="883.77">Step 4 — Validate the request body</text><g class="message" data-entity-1="part5" data-entity-2="part7" id="msg16"><polygon fill="#000000" points="1444.3745,933.1016,1454.3745,937.1016,1444.3745,941.1016,1448.3745,937.1016" style="stroke:#000000;stroke-width:1;"/><line style="stroke:#000000;stroke-width:2;" x1="1010.1587" x2="1450.3745" y1="937.1016" y2="937.1016"/><text fill="#000000" font-family="Verdana" font-size="13" lengthAdjust="spacing" textLength="141.7178" x="1017.1587" y="916.9028">Validate body against</text><text fill="#000000" font-family="Verdana" font-size="13" lengthAdjust="spacing" textLength="163.5728" x="1017.1587" y="932.0356">reservationInsertSchema</text></g><path d="M240.2437,952.1016 L299.6865,952.1016 L299.6865,959.2344 L289.6865,969.2344 L235.2437,969.2344 L235.2437,957.1016 A5,5 0 0 1 240.2437,952.1016" fill="#FFFFFF" style="stroke:#000000;stroke-width:1;"/><rect fill="none" height="163.6016" rx="5" ry="5" style="stroke:#000000;stroke-width:1;" width="1327.3286" x="235.2437" y="952.1016"/><text fill="#000000" font-family="Verdana" font-size="13" font-weight="bold" lengthAdjust="spacing" textLength="19.4429" x="250.2437" y="965.1685">alt</text><text fill="#000000" font-family="Verdana" font-size="11" font-weight="bold" lengthAdjust="spacing" textLength="104.9082" x="314.6865" y="964.312">[Invalid payload]</text><g class="message" data-entity-1="part7" data-entity-2="part5" id="msg17"><polygon fill="#000000" points="1021.1587,986.3672,1011.1587,990.3672,1021.1587,994.3672,1017.1587,990.3672" style="stroke:#000000;stroke-width:1;"/><line style="stroke:#000000;stroke-width:2;stroke-dasharray:2,2;" x1="1015.1587" x2="1455.3745" y1="990.3672" y2="990.3672"/><text fill="#000000" font-family="Verdana" font-size="13" lengthAdjust="spacing" textLength="61.2295" x="1027.1587" y="985.3013">Zod error</text></g><g class="message" data-entity-1="part5" data-entity-2="part3" id="msg18"><polygon fill="#000000" points="647.7993,1030.6328,637.7993,1034.6328,647.7993,1038.6328,643.7993,1034.6328" style="stroke:#000000;stroke-width:1;"/><line style="stroke:#000000;stroke-width:2;stroke-dasharray:2,2;" x1="641.7993" x2="1009.1587" y1="1034.6328" y2="1034.6328"/><text fill="#000000" font-family="Verdana" font-size="13" lengthAdjust="spacing" textLength="111.6045" x="653.7993" y="1014.4341">400 Bad Request</text><text fill="#000000" font-family="Verdana" font-size="13" lengthAdjust="spacing" textLength="96.0273" x="653.7993" y="1029.5669">{ issues: [...] }</text></g><g class="message" data-entity-1="part3" data-entity-2="part2" id="msg19"><polygon fill="#000000" points="320.6543,1059.7656,310.6543,1063.7656,320.6543,1067.7656,316.6543,1063.7656" style="stroke:#000000;stroke-width:1;"/><line style="stroke:#000000;stroke-width:2;stroke-dasharray:2,2;" x1="314.6543" x2="635.7993" y1="1063.7656" y2="1063.7656"/><text fill="#000000" font-family="Verdana" font-size="13" lengthAdjust="spacing" textLength="146.104" x="326.6543" y="1058.6997">Show validation errors</text></g><line style="stroke:#000000;stroke-width:1;stroke-dasharray:2,2;" x1="235.2437" x2="1562.5723" y1="1072.7656" y2="1072.7656"/><text fill="#000000" font-family="Verdana" font-size="11" font-weight="bold" lengthAdjust="spacing" textLength="94.3271" x="240.2437" y="1082.9761">[Valid payload]</text><g class="message" data-entity-1="part7" data-entity-2="part5" id="msg20"><polygon fill="#000000" points="1021.1587,1103.7031,1011.1587,1107.7031,1021.1587,1111.7031,1017.1587,1107.7031" style="stroke:#000000;stroke-width:1;"/><line style="stroke:#000000;stroke-width:2;stroke-dasharray:2,2;" x1="1015.1587" x2="1455.3745" y1="1107.7031" y2="1107.7031"/><text fill="#000000" font-family="Verdana" font-size="13" lengthAdjust="spacing" textLength="155.7397" x="1027.1587" y="1102.6372">Parsed reservation data</text></g><rect fill="#FFFFFF" height="3" rx="5" ry="5" style="stroke:#FFFFFF;stroke-width:1;" width="2277.8232" x="5" y="1143.2695"/><line style="stroke:#000000;stroke-width:0.5;" x1="5" x2="2282.8232" y1="1143.2695" y2="1143.2695"/><line style="stroke:#000000;stroke-width:0.5;" x1="5" x2="2282.8232" y1="1146.2695" y2="1146.2695"/><rect fill="#FFFFFF" height="23.1328" rx="5" ry="5" style="stroke:#000000;stroke-width:1;" width="239.4814" x="1024.1709" y="1132.7031"/><text fill="#000000" font-family="Verdana" font-size="13" font-weight="bold" lengthAdjust="spacing" textLength="220.9556" x="1030.1709" y="1148.77">Step 5 — Apply business rules</text><g class="message" data-entity-1="part5" data-entity-2="part8" id="msg21"><polygon fill="#000000" points="1638.1772,1182.9688,1648.1772,1186.9688,1638.1772,1190.9688,1642.1772,1186.9688" style="stroke:#000000;stroke-width:1;"/><line style="stroke:#000000;stroke-width:2;" x1="1010.1587" x2="1644.1772" y1="1186.9688" y2="1186.9688"/><text fill="#000000" font-family="Verdana" font-size="13" lengthAdjust="spacing" textLength="287.6567" x="1017.1587" y="1181.9028">createReservation(userId, companyId, data)</text></g><g class="message" data-entity-1="part8" data-entity-2="part9" id="msg22"><polygon fill="#000000" points="1959.7935,1227.2344,1969.7935,1231.2344,1959.7935,1235.2344,1963.7935,1231.2344" style="stroke:#000000;stroke-width:1;"/><line style="stroke:#000000;stroke-width:2;" x1="1650.1772" x2="1965.7935" y1="1231.2344" y2="1231.2344"/><text fill="#000000" font-family="Verdana" font-size="13" lengthAdjust="spacing" textLength="297.6162" x="1657.1772" y="1211.0356">SELECT equipment WHERE id = :equipmentId</text><text fill="#000000" font-family="Verdana" font-size="13" lengthAdjust="spacing" textLength="206.5781" x="1657.1772" y="1226.1685">AND company_id = :companyId</text></g><g class="message" data-entity-1="part9" data-entity-2="part10" id="msg23"><polygon fill="#000000" points="2136.207,1256.3672,2146.207,1260.3672,2136.207,1264.3672,2140.207,1260.3672" style="stroke:#000000;stroke-width:1;"/><line style="stroke:#000000;stroke-width:2;" x1="1971.7935" x2="2142.207" y1="1260.3672" y2="1260.3672"/><text fill="#000000" font-family="Verdana" font-size="13" lengthAdjust="spacing" textLength="25.7271" x="1978.7935" y="1255.3013">SQL</text></g><g class="message" data-entity-1="part10" data-entity-2="part9" id="msg24"><polygon fill="#000000" points="1982.7935,1285.5,1972.7935,1289.5,1982.7935,1293.5,1978.7935,1289.5" style="stroke:#000000;stroke-width:1;"/><line style="stroke:#000000;stroke-width:2;stroke-dasharray:2,2;" x1="1976.7935" x2="2147.207" y1="1289.5" y2="1289.5"/><text fill="#000000" font-family="Verdana" font-size="13" lengthAdjust="spacing" textLength="98.4141" x="1988.7935" y="1284.4341">equipment row</text></g><g class="message" data-entity-1="part9" data-entity-2="part8" id="msg25"><polygon fill="#000000" points="1661.1772,1314.6328,1651.1772,1318.6328,1661.1772,1322.6328,1657.1772,1318.6328" style="stroke:#000000;stroke-width:1;"/><line style="stroke:#000000;stroke-width:2;stroke-dasharray:2,2;" x1="1655.1772" x2="1970.7935" y1="1318.6328" y2="1318.6328"/><text fill="#000000" font-family="Verdana" font-size="13" lengthAdjust="spacing" textLength="106.6978" x="1667.1772" y="1313.5669">equipment | null</text></g><path d="M230.2437,1333.6328 L289.6865,1333.6328 L289.6865,1340.7656 L279.6865,1350.7656 L225.2437,1350.7656 L225.2437,1338.6328 A5,5 0 0 1 230.2437,1333.6328" fill="#FFFFFF" style="stroke:#000000;stroke-width:1;"/><rect fill="none" height="516" rx="5" ry="5" style="stroke:#000000;stroke-width:1;" width="2047.5796" x="225.2437" y="1333.6328"/><text fill="#000000" font-family="Verdana" font-size="13" font-weight="bold" lengthAdjust="spacing" textLength="19.4429" x="240.2437" y="1346.6997">alt</text><text fill="#000000" font-family="Verdana" font-size="11" font-weight="bold" lengthAdjust="spacing" textLength="339.5981" x="304.6865" y="1345.8433">[Equipment not found or belongs to another company]</text><g class="message" data-entity-1="part8" data-entity-2="part5" id="msg26"><polygon fill="#000000" points="1021.1587,1367.8984,1011.1587,1371.8984,1021.1587,1375.8984,1017.1587,1371.8984" style="stroke:#000000;stroke-width:1;"/><line style="stroke:#000000;stroke-width:2;stroke-dasharray:2,2;" x1="1015.1587" x2="1649.1772" y1="1371.8984" y2="1371.8984"/><text fill="#000000" font-family="Verdana" font-size="13" lengthAdjust="spacing" textLength="185.2056" x="1027.1587" y="1366.8325">Throw NotFound / Forbidden</text></g><g class="message" data-entity-1="part5" data-entity-2="part3" id="msg27"><polygon fill="#000000" points="647.7993,1397.0313,637.7993,1401.0313,647.7993,1405.0313,643.7993,1401.0313" style="stroke:#000000;stroke-width:1;"/><line style="stroke:#000000;stroke-width:2;stroke-dasharray:2,2;" x1="641.7993" x2="1009.1587" y1="1401.0313" y2="1401.0313"/><text fill="#000000" font-family="Verdana" font-size="13" lengthAdjust="spacing" textLength="62.2705" x="653.7993" y="1395.9653">404 / 403</text></g><line style="stroke:#000000;stroke-width:1;stroke-dasharray:2,2;" x1="225.2437" x2="2272.8232" y1="1410.0313" y2="1410.0313"/><text fill="#000000" font-family="Verdana" font-size="11" font-weight="bold" lengthAdjust="spacing" textLength="116.6387" x="230.2437" y="1420.2417">[Equipment found]</text><g class="message" data-entity-1="part8" data-entity-2="part9" id="msg28"><polygon fill="#000000" points="1959.7935,1456.1016,1969.7935,1460.1016,1959.7935,1464.1016,1963.7935,1460.1016" style="stroke:#000000;stroke-width:1;"/><line style="stroke:#000000;stroke-width:2;" x1="1650.1772" x2="1965.7935" y1="1460.1016" y2="1460.1016"/><text fill="#000000" font-family="Verdana" font-size="13" lengthAdjust="spacing" textLength="215.1729" x="1657.1772" y="1439.9028">SELECT overlapping reservations</text><text fill="#000000" font-family="Verdana" font-size="13" lengthAdjust="spacing" textLength="247.0063" x="1657.1772" y="1455.0356">for the same equipment &amp; date range</text></g><g class="message" data-entity-1="part9" data-entity-2="part10" id="msg29"><polygon fill="#000000" points="2136.207,1485.2344,2146.207,1489.2344,2136.207,1493.2344,2140.207,1489.2344" style="stroke:#000000;stroke-width:1;"/><line style="stroke:#000000;stroke-width:2;" x1="1971.7935" x2="2142.207" y1="1489.2344" y2="1489.2344"/><text fill="#000000" font-family="Verdana" font-size="13" lengthAdjust="spacing" textLength="25.7271" x="1978.7935" y="1484.1685">SQL</text></g><g class="message" data-entity-1="part10" data-entity-2="part9" id="msg30"><polygon fill="#000000" points="1982.7935,1514.3672,1972.7935,1518.3672,1982.7935,1522.3672,1978.7935,1518.3672" style="stroke:#000000;stroke-width:1;"/><line style="stroke:#000000;stroke-width:2;stroke-dasharray:2,2;" x1="1976.7935" x2="2147.207" y1="1518.3672" y2="1518.3672"/><text fill="#000000" font-family="Verdana" font-size="13" lengthAdjust="spacing" textLength="152.4136" x="1988.7935" y="1513.3013">conflicting reservations</text></g><g class="message" data-entity-1="part9" data-entity-2="part8" id="msg31"><polygon fill="#000000" points="1661.1772,1543.5,1651.1772,1547.5,1661.1772,1551.5,1657.1772,1547.5" style="stroke:#000000;stroke-width:1;"/><line style="stroke:#000000;stroke-width:2;stroke-dasharray:2,2;" x1="1655.1772" x2="1970.7935" y1="1547.5" y2="1547.5"/><text fill="#000000" font-family="Verdana" font-size="13" lengthAdjust="spacing" textLength="64.3018" x="1667.1772" y="1542.4341">conflicts[]</text></g><path d="M240.2437,1562.5 L299.6865,1562.5 L299.6865,1569.6328 L289.6865,1579.6328 L235.2437,1579.6328 L235.2437,1567.5 A5,5 0 0 1 240.2437,1562.5" fill="#FFFFFF" style="stroke:#000000;stroke-width:1;"/><rect fill="none" height="280.1328" rx="5" ry="5" style="stroke:#000000;stroke-width:1;" width="2027.5796" x="235.2437" y="1562.5"/><text fill="#000000" font-family="Verdana" font-size="13" font-weight="bold" lengthAdjust="spacing" textLength="19.4429" x="250.2437" y="1575.5669">alt</text><text fill="#000000" font-family="Verdana" font-size="11" font-weight="bold" lengthAdjust="spacing" textLength="274.2212" x="314.6865" y="1574.7104">[Quantity exceeds availability in the period]</text><g class="message" data-entity-1="part8" data-entity-2="part5" id="msg32"><polygon fill="#000000" points="1021.1587,1596.7656,1011.1587,1600.7656,1021.1587,1604.7656,1017.1587,1600.7656" style="stroke:#000000;stroke-width:1;"/><line style="stroke:#000000;stroke-width:2;stroke-dasharray:2,2;" x1="1015.1587" x2="1649.1772" y1="1600.7656" y2="1600.7656"/><text fill="#000000" font-family="Verdana" font-size="13" lengthAdjust="spacing" textLength="93.5581" x="1027.1587" y="1595.6997">Throw Conflict</text></g><g class="message" data-entity-1="part5" data-entity-2="part3" id="msg33"><polygon fill="#000000" points="647.7993,1641.0313,637.7993,1645.0313,647.7993,1649.0313,643.7993,1645.0313" style="stroke:#000000;stroke-width:1;"/><line style="stroke:#000000;stroke-width:2;stroke-dasharray:2,2;" x1="641.7993" x2="1009.1587" y1="1645.0313" y2="1645.0313"/><text fill="#000000" font-family="Verdana" font-size="13" lengthAdjust="spacing" textLength="78.2603" x="653.7993" y="1624.8325">409 Conflict</text><text fill="#000000" font-family="Verdana" font-size="13" lengthAdjust="spacing" textLength="262.7993" x="653.7993" y="1639.9653">{ reason: "not enough units available" }</text></g><g class="message" data-entity-1="part3" data-entity-2="part2" id="msg34"><polygon fill="#000000" points="320.6543,1670.1641,310.6543,1674.1641,320.6543,1678.1641,316.6543,1674.1641" style="stroke:#000000;stroke-width:1;"/><line style="stroke:#000000;stroke-width:2;stroke-dasharray:2,2;" x1="314.6543" x2="635.7993" y1="1674.1641" y2="1674.1641"/><text fill="#000000" font-family="Verdana" font-size="13" lengthAdjust="spacing" textLength="209.752" x="326.6543" y="1669.0981">Show "equipment not available"</text></g><line style="stroke:#000000;stroke-width:1;stroke-dasharray:2,2;" x1="235.2437" x2="2262.8232" y1="1683.1641" y2="1683.1641"/><text fill="#000000" font-family="Verdana" font-size="11" font-weight="bold" lengthAdjust="spacing" textLength="67.23" x="240.2437" y="1693.3745">[Available]</text><g class="message" data-entity-1="part8" data-entity-2="part9" id="msg35"><polygon fill="#000000" points="1959.7935,1714.1016,1969.7935,1718.1016,1959.7935,1722.1016,1963.7935,1718.1016" style="stroke:#000000;stroke-width:1;"/><line style="stroke:#000000;stroke-width:2;" x1="1650.1772" x2="1965.7935" y1="1718.1016" y2="1718.1016"/><text fill="#000000" font-family="Verdana" font-size="13" lengthAdjust="spacing" textLength="244.6387" x="1657.1772" y="1713.0356">INSERT INTO equipment_reservations</text></g><g class="message" data-entity-1="part9" data-entity-2="part10" id="msg36"><polygon fill="#000000" points="2136.207,1743.2344,2146.207,1747.2344,2136.207,1751.2344,2140.207,1747.2344" style="stroke:#000000;stroke-width:1;"/><line style="stroke:#000000;stroke-width:2;" x1="1971.7935" x2="2142.207" y1="1747.2344" y2="1747.2344"/><text fill="#000000" font-family="Verdana" font-size="13" lengthAdjust="spacing" textLength="25.7271" x="1978.7935" y="1742.1685">SQL</text></g><g class="message" data-entity-1="part10" data-entity-2="part9" id="msg37"><polygon fill="#000000" points="1982.7935,1772.3672,1972.7935,1776.3672,1982.7935,1780.3672,1978.7935,1776.3672" style="stroke:#000000;stroke-width:1;"/><line style="stroke:#000000;stroke-width:2;stroke-dasharray:2,2;" x1="1976.7935" x2="2147.207" y1="1776.3672" y2="1776.3672"/><text fill="#000000" font-family="Verdana" font-size="13" lengthAdjust="spacing" textLength="81.377" x="1988.7935" y="1771.3013">inserted row</text></g><g class="message" data-entity-1="part9" data-entity-2="part8" id="msg38"><polygon fill="#000000" points="1661.1772,1801.5,1651.1772,1805.5,1661.1772,1809.5,1657.1772,1805.5" style="stroke:#000000;stroke-width:1;"/><line style="stroke:#000000;stroke-width:2;stroke-dasharray:2,2;" x1="1655.1772" x2="1970.7935" y1="1805.5" y2="1805.5"/><text fill="#000000" font-family="Verdana" font-size="13" lengthAdjust="spacing" textLength="74.02" x="1667.1772" y="1800.4341">reservation</text></g><g class="message" data-entity-1="part8" data-entity-2="part5" id="msg39"><polygon fill="#000000" points="1021.1587,1830.6328,1011.1587,1834.6328,1021.1587,1838.6328,1017.1587,1834.6328" style="stroke:#000000;stroke-width:1;"/><line style="stroke:#000000;stroke-width:2;stroke-dasharray:2,2;" x1="1015.1587" x2="1649.1772" y1="1834.6328" y2="1834.6328"/><text fill="#000000" font-family="Verdana" font-size="13" lengthAdjust="spacing" textLength="74.02" x="1027.1587" y="1829.5669">reservation</text></g><rect fill="#FFFFFF" height="3" rx="5" ry="5" style="stroke:#FFFFFF;stroke-width:1;" width="2277.8232" x="5" y="1877.1992"/><line style="stroke:#000000;stroke-width:0.5;" x1="5" x2="2282.8232" y1="1877.1992" y2="1877.1992"/><line style="stroke:#000000;stroke-width:0.5;" x1="5" x2="2282.8232" y1="1880.1992" y2="1880.1992"/><rect fill="#FFFFFF" height="23.1328" rx="5" ry="5" style="stroke:#000000;stroke-width:1;" width="245.1245" x="1021.3494" y="1866.6328"/><text fill="#000000" font-family="Verdana" font-size="13" font-weight="bold" lengthAdjust="spacing" textLength="226.5986" x="1027.3494" y="1882.6997">Step 6 — Respond to the client</text><g class="message" data-entity-1="part5" data-entity-2="part3" id="msg40"><polygon fill="#000000" points="647.7993,1932.0313,637.7993,1936.0313,647.7993,1940.0313,643.7993,1936.0313" style="stroke:#000000;stroke-width:1;"/><line style="stroke:#000000;stroke-width:2;stroke-dasharray:2,2;" x1="641.7993" x2="1009.1587" y1="1936.0313" y2="1936.0313"/><text fill="#000000" font-family="Verdana" font-size="13" lengthAdjust="spacing" textLength="80.6787" x="653.7993" y="1915.8325">201 Created</text><text fill="#000000" font-family="Verdana" font-size="13" lengthAdjust="spacing" textLength="98.8267" x="653.7993" y="1930.9653">{ reservation }</text></g><g class="message" data-entity-1="part3" data-entity-2="part2" id="msg41"><polygon fill="#000000" points="320.6543,1961.1641,310.6543,1965.1641,320.6543,1969.1641,316.6543,1965.1641" style="stroke:#000000;stroke-width:1;"/><line style="stroke:#000000;stroke-width:2;stroke-dasharray:2,2;" x1="314.6543" x2="635.7993" y1="1965.1641" y2="1965.1641"/><text fill="#000000" font-family="Verdana" font-size="13" lengthAdjust="spacing" textLength="118.5679" x="326.6543" y="1960.0981">Update local state</text></g><g class="message" data-entity-1="part2" data-entity-2="part1" id="msg42"><polygon fill="#000000" points="72.8994,2005.4297,62.8994,2009.4297,72.8994,2013.4297,68.8994,2009.4297" style="stroke:#000000;stroke-width:1;"/><line style="stroke:#000000;stroke-width:2;stroke-dasharray:2,2;" x1="66.8994" x2="308.6543" y1="2009.4297" y2="2009.4297"/><text fill="#000000" font-family="Verdana" font-size="13" lengthAdjust="spacing" textLength="182.8125" x="78.8994" y="1989.231">Show "Reservation created"</text><text fill="#000000" font-family="Verdana" font-size="13" lengthAdjust="spacing" textLength="223.7549" x="78.8994" y="2004.3638">and the new reservation in the list</text></g><?plantuml-src XLRRRXit47tVhvYgG10ZZkquRe4AS07hOaI0ueiaEq2Z8A1sHn9hYboJb2zf3VGZ-eNzaWvdxvAQmWzUaJE7PyvSo1_y4bS8gH9IH-vEwbHOiOAPYEyMrgnrqZNAMFZnl1_-QXOExzUeOpoprZnEbZA-q-WS7DTCs3ysLgE5TqTHvALN2EFS4NfIBCYi3IDqQ1yG-lThcQvGUvXRim9Y1f-4nQLPEumY4NiYqXfxCPy3hTWM20Stz17HSLx6CXNasgfGRWPJ_Ng4vBYNsGwQbXycaoleAacsl1z-Dot6Ipe_WTzC0YuceGG1Ebuxp7uVU9TXZ_dd1fEdr0PDI0UFv7aeKdc81Rr3os4BButEGKR1i8bn9PnBZVKWrduvrIkP90eVYG4xdD5YqpvGjK5Xv-51A9amFXlV2lLVIYs59bZhYEHixIHdKfc5Z3DUdM7JiMVbjs-KoilHHzwd_nkiZVCBY-Fh8I6M4UzFTVdzTJlwNYUAJazXx365T_3FNtzpSi6ag1qNGyq5viQkuFGqYjZcxQ-Kt3PSaYcKHu3qk9fg2WrYHVK9hRpGMj7D8BXaEMl3q8Xa6xnAkAVGW8J4VK02oxxkrnIfzCzxKGO3RtCIvn8L6U5SQidHmPiY4yOwFZfOqccXydL2z3VFhdGuhdHmwzbA-cqbDaKubqenHmUlIfOaVQx1c64s9RZD268MkZAnKEev4ih3ULYG3gJc82A0ZNXlooe3f5b08G8qWXmlpIEvAoghmWALmnAvmCqOXIPimzNbU0BVwPUf_gDAz23P1qvIhyXHhv4YU8behHBrFOiw3gKGj8zHFc2XQzOvGLEU3aI8cxBDlChzDpJ-d0iXnyRSIOpOA5Y7Zcn3TucaTM5pI5OhQendME5gHcssb2bhUs6olgOOP4oKWme1WCNBpntXxnXxsiYFA2KwENe7Dpgu6sf7ziqevtbXsLkfGa5QKpDJ2bgPy6V_SsGOhXHYGJesskEJRsfumXgMPLCNRsQIPrQm58NCQYN6-s915uxpKrtBwa3JfyydQT1daDKSfE9PKOyILGAfCmtJZajgfpv7qA767cMqGiL8v-Yp3PyF3Ww-K5NiKknXgvnPizll4xaIrc5pY128Q6hs4sjsbgRg6SenQzUAYgyXLsVOXjWYQJMgy5w7h8HApzCIFiCHUr7K6GOl6i8KGd_OxqvgC_3JX_we3qJz5DgrXfdgiujU0VKrsow18u8AYBqE0LuFerw7G-K3AcIwzZF3d76ryoVejL8Hfx2wOpGL-poy282kyHagenVKT0O4RIofuFBZITiGJoNjP4adXLOvP-V3C3TcT0sYtfdq4x8uENgVPQtseWZEENPJAqDJG8aqbNe1pH53iv0Bsmbw8LNXlUBf2bRe1HBYXbW0TRceT-OqT_qcUE5NP3itSv-_HBGLXBikXXS-nOY90_4Wf18pgSAYrCmiHIjD26ktQDqSbWssfVgbD0ZDGGNdZ6v3AoGAjLalbh3MuSR9JrRqvdXXg1rp1XjvhZp8FfivnKf9DbTeS37kZoRqRt89kry7xB6bSbDdoQCZT21LPMcVgri3so5LSpSqRADfV-QcfKPC3LKVrMlGFUP7OxrhIrcFQIntkNcJJDLg8hn43U5kKguZlcp3_KLFl-rxirKR0VbGI5hPeoOGqVZOE2Al2oMT_nS0?></g></svg>