<?plantuml 1.2026.2?>
<svg xmlns="http://www.w3.org/2000/svg" xmlns:xlink="http://www.w3.org/1999/xlink" contentStyleType="text/css" data-diagram-type="SEQUENCE" height="1844px" preserveAspectRatio="none" style="width:2316px;height:1844px;background:#FEFEFE;" version="1.1" viewBox="0 0 2316 1844" width="2316px" zoomAndPan="magnify"><title>Sequence Diagram: Equipment Checkout Request Workflow</title><defs/><g><rect fill="#FEFEFE" height="1844" style="stroke:none;stroke-width:1;" width="2316" x="0" y="0"/><text fill="#000000" font-family="Verdana" font-size="22" font-weight="bold" lengthAdjust="spacing" textLength="741.4902" x="785.908" y="35.4209">Sequence Diagram: Equipment Checkout Request Workflow</text><rect fill="#FFFFFF" height="412.4688" rx="5" ry="5" style="stroke:#000000;stroke-width:1;" width="1677.1582" x="622.1479" y="584.0313"/><path d="M622.1479,659.4297 L2299.3062,659.4297 L2299.3062,991.5 A5,5 0 0 1 2294.3062,996.5 L627.1479,996.5 A5,5 0 0 1 622.1479,991.5 L622.1479,659.4297" fill="#FFFFFF" style="stroke:none;stroke-width:1;"/><rect fill="#FFFFFF" height="266.1328" rx="5" ry="5" style="stroke:#000000;stroke-width:1;" width="1657.1582" x="632.1479" y="723.3672"/><path d="M632.1479,813.8984 L2289.3062,813.8984 L2289.3062,984.5 A5,5 0 0 1 2284.3062,989.5 L637.1479,989.5 A5,5 0 0 1 632.1479,984.5 L632.1479,813.8984" fill="#FFFFFF" style="stroke:none;stroke-width:1;"/><rect fill="#FFFFFF" height="268.3984" rx="5" ry="5" style="stroke:#000000;stroke-width:1;" width="752.6323" x="1536.6738" y="1361.2266"/><path d="M1536.6738,1541.4219 L2289.3062,1541.4219 L2289.3062,1624.625 A5,5 0 0 1 2284.3062,1629.625 L1541.6738,1629.625 A5,5 0 0 1 1536.6738,1624.625 L1536.6738,1541.4219" fill="#FFFFFF" style="stroke:none;stroke-width:1;"/><g class="participant-lifeline" data-entity-uid="part1" data-qualified-name="User" id="part1-lifeline"><g><title>Staff user</title><rect fill="#000000" fill-opacity="0.00000" height="1634.25" width="8" x="42.8994" y="128.9063"/><line style="stroke:#000000;stroke-width:1;stroke-dasharray:5,5;" x1="46" x2="46" y1="128.9063" y2="1763.1563"/></g></g><g class="participant-lifeline" data-entity-uid="part2" data-qualified-name="Manager" id="part2-lifeline"><g><title>Manager . Admin</title><rect fill="#000000" fill-opacity="0.00000" height="1634.25" width="8" x="152.7227" y="128.9063"/><line style="stroke:#000000;stroke-width:1;stroke-dasharray:5,5;" x1="155.7988" x2="155.7988" y1="128.9063" y2="1763.1563"/></g></g><g class="participant-lifeline" data-entity-uid="part3" data-qualified-name="UI" id="part3-lifeline"><g><title>Equipment UI</title><rect fill="#000000" fill-opacity="0.00000" height="1634.25" width="8" x="379.2446" y="128.9063"/><line style="stroke:#000000;stroke-width:1;stroke-dasharray:5,5;" x1="382.834" x2="382.834" y1="128.9063" y2="1763.1563"/></g></g><g class="participant-lifeline" data-entity-uid="part4" data-qualified-name="HTTP" id="part4-lifeline"><g><title>HTTP Client</title><rect fill="#000000" fill-opacity="0.00000" height="1634.25" width="8" x="695.6748" y="128.9063"/><line style="stroke:#000000;stroke-width:1;stroke-dasharray:5,5;" x1="699.1479" x2="699.1479" y1="128.9063" y2="1763.1563"/></g></g><g class="participant-lifeline" data-entity-uid="part5" data-qualified-name="Route" id="part5-lifeline"><g><title>Express route</title><rect fill="#000000" fill-opacity="0.00000" height="1634.25" width="8" x="966.5098" y="128.9063"/><line style="stroke:#000000;stroke-width:1;stroke-dasharray:5,5;" x1="970.3525" x2="970.3525" y1="128.9063" y2="1763.1563"/></g></g><g class="participant-lifeline" data-entity-uid="part6" data-qualified-name="Auth" id="part6-lifeline"><g><title>Express session auth</title><rect fill="#000000" fill-opacity="0.00000" height="1634.25" width="8" x="1239.522" y="128.9063"/><line style="stroke:#000000;stroke-width:1;stroke-dasharray:5,5;" x1="1242.7656" x2="1242.7656" y1="128.9063" y2="1763.1563"/></g></g><g class="participant-lifeline" data-entity-uid="part7" data-qualified-name="Val" id="part7-lifeline"><g><title>Zod request validation</title><rect fill="#000000" fill-opacity="0.00000" height="1634.25" width="8" x="1436.4761" y="128.9063"/><line style="stroke:#000000;stroke-width:1;stroke-dasharray:5,5;" x1="1440.2783" x2="1440.2783" y1="128.9063" y2="1763.1563"/></g></g><g class="participant-lifeline" data-entity-uid="part8" data-qualified-name="BL" id="part8-lifeline"><g><title>Equipment handlers</title><rect fill="#000000" fill-opacity="0.00000" height="1634.25" width="8" x="1630.2788" y="128.9063"/><line style="stroke:#000000;stroke-width:1;stroke-dasharray:5,5;" x1="1633.6738" x2="1633.6738" y1="128.9063" y2="1763.1563"/></g></g><g class="participant-lifeline" data-entity-uid="part9" data-qualified-name="ORM" id="part9-lifeline"><g><title>Drizzle ORM</title><rect fill="#000000" fill-opacity="0.00000" height="1634.25" width="8" x="1951.895" y="128.9063"/><line style="stroke:#000000;stroke-width:1;stroke-dasharray:5,5;" x1="1955.4438" x2="1955.4438" y1="128.9063" y2="1763.1563"/></g></g><g class="participant-lifeline" data-entity-uid="part10" data-qualified-name="DB" id="part10-lifeline"><g><title>PostgreSQL</title><rect fill="#000000" fill-opacity="0.00000" height="1634.25" width="8" x="2148.3262" y="128.9063"/><line style="stroke:#000000;stroke-width:1;stroke-dasharray:5,5;" x1="2151.3462" x2="2151.3462" y1="128.9063" y2="1763.1563"/></g></g><g class="participant participant-head" data-entity-uid="part1" data-qualified-name="User" id="part1-head"><text fill="#000000" font-family="Verdana" font-size="14" lengthAdjust="spacing" textLength="67.7988" x="10" y="125.6045">Staff user</text><ellipse cx="46.8994" cy="60.6094" fill="#FFFFFF" rx="8" ry="8" style="stroke:#000000;stroke-width:1;"/><path d="M46.8994,68.6094 L46.8994,95.6094 M33.8994,76.6094 L59.8994,76.6094 M46.8994,95.6094 L33.8994,110.6094 M46.8994,95.6094 L59.8994,110.6094" fill="none" style="stroke:#000000;stroke-width:1;"/></g><g class="participant participant-tail" data-entity-uid="part1" data-qualified-name="User" id="part1-tail"><text fill="#000000" font-family="Verdana" font-size="14" lengthAdjust="spacing" textLength="67.7988" x="10" y="1775.1514">Staff user</text><ellipse cx="46.8994" cy="1787.4531" fill="#FFFFFF" rx="8" ry="8" style="stroke:#000000;stroke-width:1;"/><path d="M46.8994,1795.4531 L46.8994,1822.4531 M33.8994,1803.4531 L59.8994,1803.4531 M46.8994,1822.4531 L33.8994,1837.4531 M46.8994,1822.4531 L59.8994,1837.4531" fill="none" style="stroke:#000000;stroke-width:1;"/></g><g class="participant participant-head" data-entity-uid="part2" data-qualified-name="Manager" id="part2-head"><text fill="#000000" font-family="Verdana" font-size="14" lengthAdjust="spacing" textLength="119.8477" x="93.7988" y="125.6045">Manager / Admin</text><ellipse cx="156.7227" cy="60.6094" fill="#FFFFFF" rx="8" ry="8" style="stroke:#000000;stroke-width:1;"/><path d="M156.7227,68.6094 L156.7227,95.6094 M143.7227,76.6094 L169.7227,76.6094 M156.7227,95.6094 L143.7227,110.6094 M156.7227,95.6094 L169.7227,110.6094" fill="none" style="stroke:#000000;stroke-width:1;"/></g><g class="participant participant-tail" data-entity-uid="part2" data-qualified-name="Manager" id="part2-tail"><text fill="#000000" font-family="Verdana" font-size="14" lengthAdjust="spacing" textLength="119.8477" x="93.7988" y="1775.1514">Manager / Admin</text><ellipse cx="156.7227" cy="1787.4531" fill="#FFFFFF" rx="8" ry="8" style="stroke:#000000;stroke-width:1;"/><path d="M156.7227,1795.4531 L156.7227,1822.4531 M143.7227,1803.4531 L169.7227,1803.4531 M156.7227,1822.4531 L143.7227,1837.4531 M156.7227,1822.4531 L169.7227,1837.4531" fill="none" style="stroke:#000000;stroke-width:1;"/></g><g class="participant participant-head" data-entity-uid="part3" data-qualified-name="UI" id="part3-head"><rect fill="#FFFFFF" height="46.5938" rx="5" ry="5" style="stroke:#000000;stroke-width:1;" width="108.8213" x="328.834" y="81.3125"/><text fill="#000000" font-family="Verdana" font-size="14" lengthAdjust="spacing" textLength="94.8213" x="335.834" y="101.3076">Equipment UI</text><text fill="#000000" font-family="Verdana" font-size="14" lengthAdjust="spacing" textLength="51.0303" x="357.7295" y="117.6045">(React)</text></g><g class="participant participant-tail" data-entity-uid="part3" data-qualified-name="UI" id="part3-tail"><rect fill="#FFFFFF" height="46.5938" rx="5" ry="5" style="stroke:#000000;stroke-width:1;" width="108.8213" x="328.834" y="1762.1563"/><text fill="#000000" font-family="Verdana" font-size="14" lengthAdjust="spacing" textLength="94.8213" x="335.834" y="1782.1514">Equipment UI</text><text fill="#000000" font-family="Verdana" font-size="14" lengthAdjust="spacing" textLength="51.0303" x="357.7295" y="1798.4482">(React)</text></g><g class="participant participant-head" data-entity-uid="part4" data-qualified-name="HTTP" id="part4-head"><rect fill="#FFFFFF" height="30.2969" rx="5" ry="5" style="stroke:#000000;stroke-width:1;" width="95.0537" x="652.1479" y="97.6094"/><text fill="#000000" font-family="Verdana" font-size="14" lengthAdjust="spacing" textLength="81.0537" x="659.1479" y="117.6045">HTTP Client</text></g><g class="participant participant-tail" data-entity-uid="part4" data-qualified-name="HTTP" id="part4-tail"><rect fill="#FFFFFF" height="30.2969" rx="5" ry="5" style="stroke:#000000;stroke-width:1;" width="95.0537" x="652.1479" y="1762.1563"/><text fill="#000000" font-family="Verdana" font-size="14" lengthAdjust="spacing" textLength="81.0537" x="659.1479" y="1782.1514">HTTP Client</text></g><g class="participant participant-head" data-entity-uid="part5" data-qualified-name="Route" id="part5-head"><rect fill="#FFFFFF" height="46.5938" rx="5" ry="5" style="stroke:#000000;stroke-width:1;" width="266.3145" x="837.3525" y="81.3125"/><text fill="#000000" font-family="Verdana" font-size="14" lengthAdjust="spacing" textLength="96.7217" x="922.1489" y="101.3076">Express route</text><text fill="#000000" font-family="Verdana" font-size="14" lengthAdjust="spacing" textLength="252.3145" x="844.3525" y="117.6045">(/api/equipment-checkout-requests)</text></g><g class="participant participant-tail" data-entity-uid="part5" data-qualified-name="Route" id="part5-tail"><rect fill="#FFFFFF" height="46.5938" rx="5" ry="5" style="stroke:#000000;stroke-width:1;" width="266.3145" x="837.3525" y="1762.1563"/><text fill="#000000" font-family="Verdana" font-size="14" lengthAdjust="spacing" textLength="96.7217" x="922.1489" y="1782.1514">Express route</text><text fill="#000000" font-family="Verdana" font-size="14" lengthAdjust="spacing" textLength="252.3145" x="844.3525" y="1798.4482">(/api/equipment-checkout-requests)</text></g><g class="participant participant-head" data-entity-uid="part6" data-qualified-name="Auth" id="part6-head"><rect fill="#FFFFFF" height="30.2969" rx="5" ry="5" style="stroke:#000000;stroke-width:1;" width="161.5127" x="1162.7656" y="97.6094"/><text fill="#000000" font-family="Verdana" font-size="14" lengthAdjust="spacing" textLength="147.5127" x="1169.7656" y="117.6045">Express session auth</text></g><g class="participant participant-tail" data-entity-uid="part6" data-qualified-name="Auth" id="part6-tail"><rect fill="#FFFFFF" height="30.2969" rx="5" ry="5" style="stroke:#000000;stroke-width:1;" width="161.5127" x="1162.7656" y="1762.1563"/><text fill="#000000" font-family="Verdana" font-size="14" lengthAdjust="spacing" textLength="147.5127" x="1169.7656" y="1782.1514">Express session auth</text></g><g class="participant participant-head" data-entity-uid="part7" data-qualified-name="Val" id="part7-head"><rect fill="#FFFFFF" height="30.2969" rx="5" ry="5" style="stroke:#000000;stroke-width:1;" width="172.3955" x="1354.2783" y="97.6094"/><text fill="#000000" font-family="Verdana" font-size="14" lengthAdjust="spacing" textLength="158.3955" x="1361.2783" y="117.6045">Zod request validation</text></g><g class="participant participant-tail" data-entity-uid="part7" data-qualified-name="Val" id="part7-tail"><rect fill="#FFFFFF" height="30.2969" rx="5" ry="5" style="stroke:#000000;stroke-width:1;" width="172.3955" x="1354.2783" y="1762.1563"/><text fill="#000000" font-family="Verdana" font-size="14" lengthAdjust="spacing" textLength="158.3955" x="1361.2783" y="1782.1514">Zod request validation</text></g><g class="participant participant-head" data-entity-uid="part8" data-qualified-name="BL" id="part8-head"><rect fill="#FFFFFF" height="46.5938" rx="5" ry="5" style="stroke:#000000;stroke-width:1;" width="155.21" x="1556.6738" y="81.3125"/><text fill="#000000" font-family="Verdana" font-size="14" lengthAdjust="spacing" textLength="141.21" x="1563.6738" y="101.3076">Equipment handlers</text><text fill="#000000" font-family="Verdana" font-size="14" lengthAdjust="spacing" textLength="109.3203" x="1579.6187" y="117.6045">(business logic)</text></g><g class="participant participant-tail" data-entity-uid="part8" data-qualified-name="BL" id="part8-tail"><rect fill="#FFFFFF" height="46.5938" rx="5" ry="5" style="stroke:#000000;stroke-width:1;" width="155.21" x="1556.6738" y="1762.1563"/><text fill="#000000" font-family="Verdana" font-size="14" lengthAdjust="spacing" textLength="141.21" x="1563.6738" y="1782.1514">Equipment handlers</text><text fill="#000000" font-family="Verdana" font-size="14" lengthAdjust="spacing" textLength="109.3203" x="1579.6187" y="1798.4482">(business logic)</text></g><g class="participant participant-head" data-entity-uid="part9" data-qualified-name="ORM" id="part9-head"><rect fill="#FFFFFF" height="30.2969" rx="5" ry="5" style="stroke:#000000;stroke-width:1;" width="98.9023" x="1906.4438" y="97.6094"/><text fill="#000000" font-family="Verdana" font-size="14" lengthAdjust="spacing" textLength="84.9023" x="1913.4438" y="117.6045">Drizzle ORM</text></g><g class="participant participant-tail" data-entity-uid="part9" data-qualified-name="ORM" id="part9-tail"><rect fill="#FFFFFF" height="30.2969" rx="5" ry="5" style="stroke:#000000;stroke-width:1;" width="98.9023" x="1906.4438" y="1762.1563"/><text fill="#000000" font-family="Verdana" font-size="14" lengthAdjust="spacing" textLength="84.9023" x="1913.4438" y="1782.1514">Drizzle ORM</text></g><g class="participant participant-head" data-entity-uid="part10" data-qualified-name="DB" id="part10-head"><rect fill="#FFFFFF" height="62.8906" rx="5" ry="5" style="stroke:#000000;stroke-width:1;" width="233.96" x="2035.3462" y="65.0156"/><text fill="#000000" font-family="Verdana" font-size="14" lengthAdjust="spacing" textLength="80.7529" x="2111.9497" y="85.0107">PostgreSQL</text><text fill="#000000" font-family="Verdana" font-size="14" lengthAdjust="spacing" textLength="85.6748" x="2109.4888" y="101.3076">(equipment,</text><text fill="#000000" font-family="Verdana" font-size="14" lengthAdjust="spacing" textLength="219.96" x="2042.3462" y="117.6045">equipment_checkout_requests)</text></g><g class="participant participant-tail" data-entity-uid="part10" data-qualified-name="DB" id="part10-tail"><rect fill="#FFFFFF" height="62.8906" rx="5" ry="5" style="stroke:#000000;stroke-width:1;" width="233.96" x="2035.3462" y="1762.1563"/><text fill="#000000" font-family="Verdana" font-size="14" lengthAdjust="spacing" textLength="80.7529" x="2111.9497" y="1782.1514">PostgreSQL</text><text fill="#000000" font-family="Verdana" font-size="14" lengthAdjust="spacing" textLength="85.6748" x="2109.4888" y="1798.4482">(equipment,</text><text fill="#000000" font-family="Verdana" font-size="14" lengthAdjust="spacing" textLength="219.96" x="2042.3462" y="1814.7451">equipment_checkout_requests)</text></g><rect fill="#FFFFFF" height="3" rx="5" ry="5" style="stroke:#FFFFFF;stroke-width:1;" width="2304.3062" x="5" y="159.4727"/><line style="stroke:#000000;stroke-width:0.5;" x1="5" x2="2309.3062" y1="159.4727" y2="159.4727"/><line style="stroke:#000000;stroke-width:0.5;" x1="5" x2="2309.3062" y1="162.4727" y2="162.4727"/><rect fill="#FFFFFF" height="23.1328" rx="5" ry="5" style="stroke:#000000;stroke-width:1;" width="300.1333" x="1007.0864" y="148.9063"/><text fill="#000000" font-family="Verdana" font-size="13" font-weight="bold" lengthAdjust="spacing" textLength="281.6074" x="1013.0864" y="164.9731">Step 1 — Staff user requests checkout</text><g class="message" data-entity-1="part1" data-entity-2="part3" id="msg1"><polygon fill="#000000" points="371.2446,214.3047,381.2446,218.3047,371.2446,222.3047,375.2446,218.3047" style="stroke:#000000;stroke-width:1;"/><line style="stroke:#000000;stroke-width:2;" x1="46.8994" x2="377.2446" y1="218.3047" y2="218.3047"/><text fill="#000000" font-family="Verdana" font-size="13" lengthAdjust="spacing" textLength="148.0908" x="53.8994" y="198.106">Select equipment item</text><text fill="#000000" font-family="Verdana" font-size="13" lengthAdjust="spacing" textLength="192.5308" x="53.8994" y="213.2388">and click "Request Checkout"</text></g><g class="message" data-entity-1="part3" data-entity-2="part4" id="msg2"><polygon fill="#000000" points="687.6748,258.5703,697.6748,262.5703,687.6748,266.5703,691.6748,262.5703" style="stroke:#000000;stroke-width:1;"/><line style="stroke:#000000;stroke-width:2;" x1="383.2446" x2="693.6748" y1="262.5703" y2="262.5703"/><text fill="#000000" font-family="Verdana" font-size="13" lengthAdjust="spacing" textLength="262.5454" x="390.2446" y="242.3716">POST /api/equipment-checkout-requests</text><text fill="#000000" font-family="Verdana" font-size="13" lengthAdjust="spacing" textLength="187.751" x="390.2446" y="257.5044">{ equipmentId, location, ... }</text></g><g class="message" data-entity-1="part4" data-entity-2="part5" id="msg3"><polygon fill="#000000" points="958.5098,287.7031,968.5098,291.7031,958.5098,295.7031,962.5098,291.7031" style="stroke:#000000;stroke-width:1;"/><line style="stroke:#000000;stroke-width:2;" x1="699.6748" x2="964.5098" y1="291.7031" y2="291.7031"/><text fill="#000000" font-family="Verdana" font-size="13" lengthAdjust="spacing" textLength="200.9351" x="706.6748" y="286.6372">HTTP request + session cookie</text></g><g class="message" data-entity-1="part5" data-entity-2="part6" id="msg4"><polygon fill="#000000" points="1231.522,316.8359,1241.522,320.8359,1231.522,324.8359,1235.522,320.8359" style="stroke:#000000;stroke-width:1;"/><line style="stroke:#000000;stroke-width:2;" x1="970.5098" x2="1237.522" y1="320.8359" y2="320.8359"/><text fill="#000000" font-family="Verdana" font-size="13" lengthAdjust="spacing" textLength="222.4219" x="977.5098" y="315.77">Check session / workspace access</text></g><g class="message" data-entity-1="part6" data-entity-2="part5" id="msg5"><polygon fill="#000000" points="981.5098,345.9688,971.5098,349.9688,981.5098,353.9688,977.5098,349.9688" style="stroke:#000000;stroke-width:1;"/><line style="stroke:#000000;stroke-width:2;stroke-dasharray:2,2;" x1="975.5098" x2="1242.522" y1="349.9688" y2="349.9688"/><text fill="#000000" font-family="Verdana" font-size="13" lengthAdjust="spacing" textLength="249.0122" x="987.5098" y="344.9028">✓ Authenticated + workspace context</text></g><g class="message" data-entity-1="part5" data-entity-2="part7" id="msg6"><polygon fill="#000000" points="1428.4761,375.1016,1438.4761,379.1016,1428.4761,383.1016,1432.4761,379.1016" style="stroke:#000000;stroke-width:1;"/><line style="stroke:#000000;stroke-width:2;" x1="970.5098" x2="1434.4761" y1="379.1016" y2="379.1016"/><text fill="#000000" font-family="Verdana" font-size="13" lengthAdjust="spacing" textLength="89.6797" x="977.5098" y="374.0356">Validate body</text></g><g class="message" data-entity-1="part7" data-entity-2="part5" id="msg7"><polygon fill="#000000" points="981.5098,404.2344,971.5098,408.2344,981.5098,412.2344,977.5098,408.2344" style="stroke:#000000;stroke-width:1;"/><line style="stroke:#000000;stroke-width:2;stroke-dasharray:2,2;" x1="975.5098" x2="1439.4761" y1="408.2344" y2="408.2344"/><text fill="#000000" font-family="Verdana" font-size="13" lengthAdjust="spacing" textLength="47.3599" x="987.5098" y="403.1685">✓ Valid</text></g><g class="message" data-entity-1="part5" data-entity-2="part8" id="msg8"><polygon fill="#000000" points="1622.2788,433.3672,1632.2788,437.3672,1622.2788,441.3672,1626.2788,437.3672" style="stroke:#000000;stroke-width:1;"/><line style="stroke:#000000;stroke-width:2;" x1="970.5098" x2="1628.2788" y1="437.3672" y2="437.3672"/><text fill="#000000" font-family="Verdana" font-size="13" lengthAdjust="spacing" textLength="324.6191" x="977.5098" y="432.3013">createCheckoutRequest(userId, companyId, data)</text></g><g class="message" data-entity-1="part8" data-entity-2="part9" id="msg9"><polygon fill="#000000" points="1943.895,477.6328,1953.895,481.6328,1943.895,485.6328,1947.895,481.6328" style="stroke:#000000;stroke-width:1;"/><line style="stroke:#000000;stroke-width:2;" x1="1634.2788" x2="1949.895" y1="481.6328" y2="481.6328"/><text fill="#000000" font-family="Verdana" font-size="13" lengthAdjust="spacing" textLength="297.6162" x="1641.2788" y="461.4341">SELECT equipment WHERE id = :equipmentId</text><text fill="#000000" font-family="Verdana" font-size="13" lengthAdjust="spacing" textLength="206.5781" x="1641.2788" y="476.5669">AND company_id = :companyId</text></g><g class="message" data-entity-1="part9" data-entity-2="part10" id="msg10"><polygon fill="#000000" points="2140.3262,506.7656,2150.3262,510.7656,2140.3262,514.7656,2144.3262,510.7656" style="stroke:#000000;stroke-width:1;"/><line style="stroke:#000000;stroke-width:2;" x1="1955.895" x2="2146.3262" y1="510.7656" y2="510.7656"/><text fill="#000000" font-family="Verdana" font-size="13" lengthAdjust="spacing" textLength="25.7271" x="1962.895" y="505.6997">SQL</text></g><g class="message" data-entity-1="part10" data-entity-2="part9" id="msg11"><polygon fill="#000000" points="1966.895,535.8984,1956.895,539.8984,1966.895,543.8984,1962.895,539.8984" style="stroke:#000000;stroke-width:1;"/><line style="stroke:#000000;stroke-width:2;stroke-dasharray:2,2;" x1="1960.895" x2="2151.3262" y1="539.8984" y2="539.8984"/><text fill="#000000" font-family="Verdana" font-size="13" lengthAdjust="spacing" textLength="98.4141" x="1972.895" y="534.8325">equipment row</text></g><g class="message" data-entity-1="part9" data-entity-2="part8" id="msg12"><polygon fill="#000000" points="1645.2788,565.0313,1635.2788,569.0313,1645.2788,573.0313,1641.2788,569.0313" style="stroke:#000000;stroke-width:1;"/><line style="stroke:#000000;stroke-width:2;stroke-dasharray:2,2;" x1="1639.2788" x2="1954.895" y1="569.0313" y2="569.0313"/><text fill="#000000" font-family="Verdana" font-size="13" lengthAdjust="spacing" textLength="106.6978" x="1651.2788" y="563.9653">equipment | null</text></g><path d="M627.1479,584.0313 L686.5908,584.0313 L686.5908,591.1641 L676.5908,601.1641 L622.1479,601.1641 L622.1479,589.0313 A5,5 0 0 1 627.1479,584.0313" fill="#FFFFFF" style="stroke:#000000;stroke-width:1;"/><rect fill="none" height="412.4688" rx="5" ry="5" style="stroke:#000000;stroke-width:1;" width="1677.1582" x="622.1479" y="584.0313"/><text fill="#000000" font-family="Verdana" font-size="13" font-weight="bold" lengthAdjust="spacing" textLength="19.4429" x="637.1479" y="597.0981">alt</text><text fill="#000000" font-family="Verdana" font-size="11" font-weight="bold" lengthAdjust="spacing" textLength="336.3809" x="701.5908" y="596.2417">[Equipment not found, archived, or wrong workspace]</text><g class="message" data-entity-1="part8" data-entity-2="part5" id="msg13"><polygon fill="#000000" points="981.5098,618.2969,971.5098,622.2969,981.5098,626.2969,977.5098,622.2969" style="stroke:#000000;stroke-width:1;"/><line style="stroke:#000000;stroke-width:2;stroke-dasharray:2,2;" x1="975.5098" x2="1633.2788" y1="622.2969" y2="622.2969"/><text fill="#000000" font-family="Verdana" font-size="13" lengthAdjust="spacing" textLength="185.2056" x="987.5098" y="617.231">Throw NotFound / Forbidden</text></g><g class="message" data-entity-1="part5" data-entity-2="part4" id="msg14"><polygon fill="#000000" points="710.6748,647.4297,700.6748,651.4297,710.6748,655.4297,706.6748,651.4297" style="stroke:#000000;stroke-width:1;"/><line style="stroke:#000000;stroke-width:2;stroke-dasharray:2,2;" x1="704.6748" x2="969.5098" y1="651.4297" y2="651.4297"/><text fill="#000000" font-family="Verdana" font-size="13" lengthAdjust="spacing" textLength="62.2705" x="716.6748" y="646.3638">404 / 403</text></g><line style="stroke:#000000;stroke-width:1;stroke-dasharray:2,2;" x1="622.1479" x2="2299.3062" y1="660.4297" y2="660.4297"/><text fill="#000000" font-family="Verdana" font-size="11" font-weight="bold" lengthAdjust="spacing" textLength="116.6387" x="627.1479" y="670.6401">[Equipment found]</text><g class="message" data-entity-1="part8" data-entity-2="part8" id="msg15"><line style="stroke:#000000;stroke-width:2;" x1="1634.2788" x2="1676.2788" y1="695.3672" y2="695.3672"/><line style="stroke:#000000;stroke-width:2;" x1="1676.2788" x2="1676.2788" y1="695.3672" y2="708.3672"/><line style="stroke:#000000;stroke-width:2;" x1="1635.2788" x2="1676.2788" y1="708.3672" y2="708.3672"/><polygon fill="#000000" points="1645.2788,704.3672,1635.2788,708.3672,1645.2788,712.3672,1641.2788,708.3672" style="stroke:#000000;stroke-width:1;"/><text fill="#000000" font-family="Verdana" font-size="13" lengthAdjust="spacing" textLength="154.9399" x="1641.2788" y="690.3013">Check operabilityStatus</text></g><path d="M637.1479,723.3672 L696.5908,723.3672 L696.5908,730.5 L686.5908,740.5 L632.1479,740.5 L632.1479,728.3672 A5,5 0 0 1 637.1479,723.3672" fill="#FFFFFF" style="stroke:#000000;stroke-width:1;"/><rect fill="none" height="266.1328" rx="5" ry="5" style="stroke:#000000;stroke-width:1;" width="1657.1582" x="632.1479" y="723.3672"/><text fill="#000000" font-family="Verdana" font-size="13" font-weight="bold" lengthAdjust="spacing" textLength="19.4429" x="647.1479" y="736.4341">alt</text><text fill="#000000" font-family="Verdana" font-size="11" font-weight="bold" lengthAdjust="spacing" textLength="169.3184" x="711.5908" y="735.5776">[Equipment is not working]</text><g class="message" data-entity-1="part8" data-entity-2="part5" id="msg16"><polygon fill="#000000" points="981.5098,757.6328,971.5098,761.6328,981.5098,765.6328,977.5098,761.6328" style="stroke:#000000;stroke-width:1;"/><line style="stroke:#000000;stroke-width:2;stroke-dasharray:2,2;" x1="975.5098" x2="1633.2788" y1="761.6328" y2="761.6328"/><text fill="#000000" font-family="Verdana" font-size="13" lengthAdjust="spacing" textLength="122.77" x="987.5098" y="756.5669">Throw BadRequest</text></g><g class="message" data-entity-1="part5" data-entity-2="part4" id="msg17"><polygon fill="#000000" points="710.6748,801.8984,700.6748,805.8984,710.6748,809.8984,706.6748,805.8984" style="stroke:#000000;stroke-width:1;"/><line style="stroke:#000000;stroke-width:2;stroke-dasharray:2,2;" x1="704.6748" x2="969.5098" y1="805.8984" y2="805.8984"/><text fill="#000000" font-family="Verdana" font-size="13" lengthAdjust="spacing" textLength="111.6045" x="716.6748" y="785.6997">400 Bad Request</text><text fill="#000000" font-family="Verdana" font-size="13" lengthAdjust="spacing" textLength="246.835" x="716.6748" y="800.8325">{ reason: "equipment not operable" }</text></g><line style="stroke:#000000;stroke-width:1;stroke-dasharray:2,2;" x1="632.1479" x2="2289.3062" y1="814.8984" y2="814.8984"/><text fill="#000000" font-family="Verdana" font-size="11" font-weight="bold" lengthAdjust="spacing" textLength="144.8423" x="637.1479" y="825.1089">[Equipment is working]</text><g class="message" data-entity-1="part8" data-entity-2="part9" id="msg18"><polygon fill="#000000" points="1943.895,860.9688,1953.895,864.9688,1943.895,868.9688,1947.895,864.9688" style="stroke:#000000;stroke-width:1;"/><line style="stroke:#000000;stroke-width:2;" x1="1634.2788" x2="1949.895" y1="864.9688" y2="864.9688"/><text fill="#000000" font-family="Verdana" font-size="13" lengthAdjust="spacing" textLength="286.1714" x="1641.2788" y="844.77">INSERT INTO equipment_checkout_requests</text><text fill="#000000" font-family="Verdana" font-size="13" lengthAdjust="spacing" textLength="129.2383" x="1641.2788" y="859.9028">(status = 'pending')</text></g><g class="message" data-entity-1="part9" data-entity-2="part10" id="msg19"><polygon fill="#000000" points="2140.3262,890.1016,2150.3262,894.1016,2140.3262,898.1016,2144.3262,894.1016" style="stroke:#000000;stroke-width:1;"/><line style="stroke:#000000;stroke-width:2;" x1="1955.895" x2="2146.3262" y1="894.1016" y2="894.1016"/><text fill="#000000" font-family="Verdana" font-size="13" lengthAdjust="spacing" textLength="25.7271" x="1962.895" y="889.0356">SQL</text></g><g class="message" data-entity-1="part10" data-entity-2="part9" id="msg20"><polygon fill="#000000" points="1966.895,919.2344,1956.895,923.2344,1966.895,927.2344,1962.895,923.2344" style="stroke:#000000;stroke-width:1;"/><line style="stroke:#000000;stroke-width:2;stroke-dasharray:2,2;" x1="1960.895" x2="2151.3262" y1="923.2344" y2="923.2344"/><text fill="#000000" font-family="Verdana" font-size="13" lengthAdjust="spacing" textLength="81.377" x="1972.895" y="918.1685">inserted row</text></g><g class="message" data-entity-1="part9" data-entity-2="part8" id="msg21"><polygon fill="#000000" points="1645.2788,948.3672,1635.2788,952.3672,1645.2788,956.3672,1641.2788,952.3672" style="stroke:#000000;stroke-width:1;"/><line style="stroke:#000000;stroke-width:2;stroke-dasharray:2,2;" x1="1639.2788" x2="1954.895" y1="952.3672" y2="952.3672"/><text fill="#000000" font-family="Verdana" font-size="13" lengthAdjust="spacing" textLength="113.1851" x="1651.2788" y="947.3013">checkout request</text></g><g class="message" data-entity-1="part8" data-entity-2="part5" id="msg22"><polygon fill="#000000" points="981.5098,977.5,971.5098,981.5,981.5098,985.5,977.5098,981.5" style="stroke:#000000;stroke-width:1;"/><line style="stroke:#000000;stroke-width:2;stroke-dasharray:2,2;" x1="975.5098" x2="1633.2788" y1="981.5" y2="981.5"/><text fill="#000000" font-family="Verdana" font-size="13" lengthAdjust="spacing" textLength="113.1851" x="987.5098" y="976.4341">checkout request</text></g><g class="message" data-entity-1="part5" data-entity-2="part4" id="msg23"><polygon fill="#000000" points="710.6748,1035.7656,700.6748,1039.7656,710.6748,1043.7656,706.6748,1039.7656" style="stroke:#000000;stroke-width:1;"/><line style="stroke:#000000;stroke-width:2;stroke-dasharray:2,2;" x1="704.6748" x2="969.5098" y1="1039.7656" y2="1039.7656"/><text fill="#000000" font-family="Verdana" font-size="13" lengthAdjust="spacing" textLength="80.6787" x="716.6748" y="1019.5669">201 Created</text><text fill="#000000" font-family="Verdana" font-size="13" lengthAdjust="spacing" textLength="137.9917" x="716.6748" y="1034.6997">{ checkout request }</text></g><g class="message" data-entity-1="part4" data-entity-2="part3" id="msg24"><polygon fill="#000000" points="394.2446,1064.8984,384.2446,1068.8984,394.2446,1072.8984,390.2446,1068.8984" style="stroke:#000000;stroke-width:1;"/><line style="stroke:#000000;stroke-width:2;stroke-dasharray:2,2;" x1="388.2446" x2="698.6748" y1="1068.8984" y2="1068.8984"/><text fill="#000000" font-family="Verdana" font-size="13" lengthAdjust="spacing" textLength="118.5679" x="400.2446" y="1063.8325">Update local state</text></g><g class="message" data-entity-1="part3" data-entity-2="part1" id="msg25"><polygon fill="#000000" points="57.8994,1094.0313,47.8994,1098.0313,57.8994,1102.0313,53.8994,1098.0313" style="stroke:#000000;stroke-width:1;"/><line style="stroke:#000000;stroke-width:2;stroke-dasharray:2,2;" x1="51.8994" x2="382.2446" y1="1098.0313" y2="1098.0313"/><text fill="#000000" font-family="Verdana" font-size="13" lengthAdjust="spacing" textLength="220.2192" x="63.8994" y="1092.9653">Show "Checkout request created"</text></g><rect fill="#FFFFFF" height="3" rx="5" ry="5" style="stroke:#FFFFFF;stroke-width:1;" width="2304.3062" x="5" y="1126.5977"/><line style="stroke:#000000;stroke-width:0.5;" x1="5" x2="2309.3062" y1="1126.5977" y2="1126.5977"/><line style="stroke:#000000;stroke-width:0.5;" x1="5" x2="2309.3062" y1="1129.5977" y2="1129.5977"/><rect fill="#FFFFFF" height="23.1328" rx="5" ry="5" style="stroke:#000000;stroke-width:1;" width="298.9526" x="1007.6768" y="1116.0313"/><text fill="#000000" font-family="Verdana" font-size="13" font-weight="bold" lengthAdjust="spacing" textLength="280.4268" x="1013.6768" y="1132.0981">Step 2 — Manager approves or rejects</text><g class="message" data-entity-1="part2" data-entity-2="part3" id="msg26"><polygon fill="#000000" points="371.2446,1181.4297,381.2446,1185.4297,371.2446,1189.4297,375.2446,1185.4297" style="stroke:#000000;stroke-width:1;"/><line style="stroke:#000000;stroke-width:2;" x1="156.7227" x2="377.2446" y1="1185.4297" y2="1185.4297"/><text fill="#000000" font-family="Verdana" font-size="13" lengthAdjust="spacing" textLength="152.0391" x="163.7227" y="1165.231">Open checkout request</text><text fill="#000000" font-family="Verdana" font-size="13" lengthAdjust="spacing" textLength="202.522" x="163.7227" y="1180.3638">and click "Approve" or "Reject"</text></g><g class="message" data-entity-1="part3" data-entity-2="part4" id="msg27"><polygon fill="#000000" points="687.6748,1225.6953,697.6748,1229.6953,687.6748,1233.6953,691.6748,1229.6953" style="stroke:#000000;stroke-width:1;"/><line style="stroke:#000000;stroke-width:2;" x1="383.2446" x2="693.6748" y1="1229.6953" y2="1229.6953"/><text fill="#000000" font-family="Verdana" font-size="13" lengthAdjust="spacing" textLength="292.4302" x="390.2446" y="1209.4966">PATCH /api/equipment-checkout-requests/:id</text><text fill="#000000" font-family="Verdana" font-size="13" lengthAdjust="spacing" textLength="215.3633" x="390.2446" y="1224.6294">{ status: 'approved' | 'rejected' }</text></g><g class="message" data-entity-1="part4" data-entity-2="part5" id="msg28"><polygon fill="#000000" points="958.5098,1254.8281,968.5098,1258.8281,958.5098,1262.8281,962.5098,1258.8281" style="stroke:#000000;stroke-width:1;"/><line style="stroke:#000000;stroke-width:2;" x1="699.6748" x2="964.5098" y1="1258.8281" y2="1258.8281"/><text fill="#000000" font-family="Verdana" font-size="13" lengthAdjust="spacing" textLength="200.9351" x="706.6748" y="1253.7622">HTTP request + session cookie</text></g><g class="message" data-entity-1="part5" data-entity-2="part6" id="msg29"><polygon fill="#000000" points="1231.522,1283.9609,1241.522,1287.9609,1231.522,1291.9609,1235.522,1287.9609" style="stroke:#000000;stroke-width:1;"/><line style="stroke:#000000;stroke-width:2;" x1="970.5098" x2="1237.522" y1="1287.9609" y2="1287.9609"/><text fill="#000000" font-family="Verdana" font-size="13" lengthAdjust="spacing" textLength="245.4448" x="977.5098" y="1282.895">Check session / manager permissions</text></g><g class="message" data-entity-1="part6" data-entity-2="part5" id="msg30"><polygon fill="#000000" points="981.5098,1313.0938,971.5098,1317.0938,981.5098,1321.0938,977.5098,1317.0938" style="stroke:#000000;stroke-width:1;"/><line style="stroke:#000000;stroke-width:2;stroke-dasharray:2,2;" x1="975.5098" x2="1242.522" y1="1317.0938" y2="1317.0938"/><text fill="#000000" font-family="Verdana" font-size="13" lengthAdjust="spacing" textLength="85.4775" x="987.5098" y="1312.0278">✓ Authorized</text></g><g class="message" data-entity-1="part5" data-entity-2="part8" id="msg31"><polygon fill="#000000" points="1622.2788,1342.2266,1632.2788,1346.2266,1622.2788,1350.2266,1626.2788,1346.2266" style="stroke:#000000;stroke-width:1;"/><line style="stroke:#000000;stroke-width:2;" x1="970.5098" x2="1628.2788" y1="1346.2266" y2="1346.2266"/><text fill="#000000" font-family="Verdana" font-size="13" lengthAdjust="spacing" textLength="272.1177" x="977.5098" y="1341.1606">updateCheckoutRequestStatus(id, status)</text></g><path d="M1541.6738,1361.2266 L1601.1167,1361.2266 L1601.1167,1368.3594 L1591.1167,1378.3594 L1536.6738,1378.3594 L1536.6738,1366.2266 A5,5 0 0 1 1541.6738,1361.2266" fill="#FFFFFF" style="stroke:#000000;stroke-width:1;"/><rect fill="none" height="268.3984" rx="5" ry="5" style="stroke:#000000;stroke-width:1;" width="752.6323" x="1536.6738" y="1361.2266"/><text fill="#000000" font-family="Verdana" font-size="13" font-weight="bold" lengthAdjust="spacing" textLength="19.4429" x="1551.6738" y="1374.2935">alt</text><text fill="#000000" font-family="Verdana" font-size="11" font-weight="bold" lengthAdjust="spacing" textLength="133.665" x="1616.1167" y="1373.437">[Status is 'approved']</text><g class="message" data-entity-1="part8" data-entity-2="part9" id="msg32"><polygon fill="#000000" points="1943.895,1410.625,1953.895,1414.625,1943.895,1418.625,1947.895,1414.625" style="stroke:#000000;stroke-width:1;"/><line style="stroke:#000000;stroke-width:2;" x1="1634.2788" x2="1949.895" y1="1414.625" y2="1414.625"/><text fill="#000000" font-family="Verdana" font-size="13" lengthAdjust="spacing" textLength="255.7217" x="1641.2788" y="1394.4263">UPDATE equipment_checkout_requests</text><text fill="#000000" font-family="Verdana" font-size="13" lengthAdjust="spacing" textLength="156.5015" x="1641.2788" y="1409.5591">SET status = 'approved'</text></g><g class="message" data-entity-1="part8" data-entity-2="part9" id="msg33"><polygon fill="#000000" points="1943.895,1500.2891,1953.895,1504.2891,1943.895,1508.2891,1947.895,1504.2891" style="stroke:#000000;stroke-width:1;"/><line style="stroke:#000000;stroke-width:2;" x1="1634.2788" x2="1949.895" y1="1504.2891" y2="1504.2891"/><text fill="#000000" font-family="Verdana" font-size="13" lengthAdjust="spacing" textLength="126.896" x="1641.2788" y="1438.6919">UPDATE equipment</text><text fill="#000000" font-family="Verdana" font-size="13" lengthAdjust="spacing" textLength="138.4741" x="1641.2788" y="1453.8247">SET status = 'in-use',</text><text fill="#000000" font-family="Verdana" font-size="13" lengthAdjust="spacing" textLength="179.6133" x="1641.2788" y="1468.9575">assignedTo = requestedBy,</text><text fill="#000000" font-family="Verdana" font-size="13" lengthAdjust="spacing" textLength="244.7212" x="1641.2788" y="1484.0903">location = request.location || current,</text><text fill="#000000" font-family="Verdana" font-size="13" lengthAdjust="spacing" textLength="112.1123" x="1641.2788" y="1499.2231">lastUsed = now()</text></g><g class="message" data-entity-1="part9" data-entity-2="part10" id="msg34"><polygon fill="#000000" points="2140.3262,1529.4219,2150.3262,1533.4219,2140.3262,1537.4219,2144.3262,1533.4219" style="stroke:#000000;stroke-width:1;"/><line style="stroke:#000000;stroke-width:2;" x1="1955.895" x2="2146.3262" y1="1533.4219" y2="1533.4219"/><text fill="#000000" font-family="Verdana" font-size="13" lengthAdjust="spacing" textLength="25.7271" x="1962.895" y="1528.356">SQL</text></g><line style="stroke:#000000;stroke-width:1;stroke-dasharray:2,2;" x1="1536.6738" x2="2289.3062" y1="1542.4219" y2="1542.4219"/><text fill="#000000" font-family="Verdana" font-size="11" font-weight="bold" lengthAdjust="spacing" textLength="126.2368" x="1541.6738" y="1552.6323">[Status is 'rejected']</text><g class="message" data-entity-1="part8" data-entity-2="part9" id="msg35"><polygon fill="#000000" points="1943.895,1588.4922,1953.895,1592.4922,1943.895,1596.4922,1947.895,1592.4922" style="stroke:#000000;stroke-width:1;"/><line style="stroke:#000000;stroke-width:2;" x1="1634.2788" x2="1949.895" y1="1592.4922" y2="1592.4922"/><text fill="#000000" font-family="Verdana" font-size="13" lengthAdjust="spacing" textLength="255.7217" x="1641.2788" y="1572.2935">UPDATE equipment_checkout_requests</text><text fill="#000000" font-family="Verdana" font-size="13" lengthAdjust="spacing" textLength="148.2368" x="1641.2788" y="1587.4263">SET status = 'rejected'</text></g><g class="message" data-entity-1="part9" data-entity-2="part10" id="msg36"><polygon fill="#000000" points="2140.3262,1617.625,2150.3262,1621.625,2140.3262,1625.625,2144.3262,1621.625" style="stroke:#000000;stroke-width:1;"/><line style="stroke:#000000;stroke-width:2;" x1="1955.895" x2="2146.3262" y1="1621.625" y2="1621.625"/><text fill="#000000" font-family="Verdana" font-size="13" lengthAdjust="spacing" textLength="25.7271" x="1962.895" y="1616.5591">SQL</text></g><g class="message" data-entity-1="part8" data-entity-2="part5" id="msg37"><polygon fill="#000000" points="981.5098,1653.7578,971.5098,1657.7578,981.5098,1661.7578,977.5098,1657.7578" style="stroke:#000000;stroke-width:1;"/><line style="stroke:#000000;stroke-width:2;stroke-dasharray:2,2;" x1="975.5098" x2="1633.2788" y1="1657.7578" y2="1657.7578"/><text fill="#000000" font-family="Verdana" font-size="13" lengthAdjust="spacing" textLength="70.3574" x="987.5098" y="1652.6919">✓ Updated</text></g><g class="message" data-entity-1="part5" data-entity-2="part4" id="msg38"><polygon fill="#000000" points="710.6748,1682.8906,700.6748,1686.8906,710.6748,1690.8906,706.6748,1686.8906" style="stroke:#000000;stroke-width:1;"/><line style="stroke:#000000;stroke-width:2;stroke-dasharray:2,2;" x1="704.6748" x2="969.5098" y1="1686.8906" y2="1686.8906"/><text fill="#000000" font-family="Verdana" font-size="13" lengthAdjust="spacing" textLength="47.7026" x="716.6748" y="1681.8247">200 OK</text></g><g class="message" data-entity-1="part4" data-entity-2="part3" id="msg39"><polygon fill="#000000" points="394.2446,1712.0234,384.2446,1716.0234,394.2446,1720.0234,390.2446,1716.0234" style="stroke:#000000;stroke-width:1;"/><line style="stroke:#000000;stroke-width:2;stroke-dasharray:2,2;" x1="388.2446" x2="698.6748" y1="1716.0234" y2="1716.0234"/><text fill="#000000" font-family="Verdana" font-size="13" lengthAdjust="spacing" textLength="64.562" x="400.2446" y="1710.9575">Update UI</text></g><g class="message" data-entity-1="part3" data-entity-2="part2" id="msg40"><polygon fill="#000000" points="167.7227,1741.1563,157.7227,1745.1563,167.7227,1749.1563,163.7227,1745.1563" style="stroke:#000000;stroke-width:1;"/><line style="stroke:#000000;stroke-width:2;stroke-dasharray:2,2;" x1="161.7227" x2="382.2446" y1="1745.1563" y2="1745.1563"/><text fill="#000000" font-family="Verdana" font-size="13" lengthAdjust="spacing" textLength="137.3442" x="173.7227" y="1740.0903">Show updated status</text></g><?plantuml-src hLRRRXit47tdLqpL1zceBuhZfmLSG3V3HXNRaTODK1Wmw5rQOhKYDoJNZbCNw3-qZ_swV4bdoBreDqvIe8LXQqNEdBcScRF-pgt4Ha2USQcONKkLSyCtSCUJzTBeGgLZdMa3tvzEwMVBmehtXL2961gZ7-ELJDPAM0j7MoRUFz562GEl1emvwJ81Yz8H9f8lqIo2wVj2vXkX78nN8bdhmi6SZAo3TzgixpFzo1XF7ERHMpX-Vm-55QO7tC8rFbHNRxZYImnr2CDq8vM_ByyO9kHa8dEEGNfDlElp6xKp5mYm6-3EsvPdSNm5uqoYhR-dxnsi3xcXkh5M9n3iaEVoK5G1zfEoe7qJ2h8XpfoiNmQo-4Tg1RnmAsyxn8UswIywXH8F7dWcK-xGmnl_pBClrRhYAis4iPZaNM6bPolJIvc4b4QpjkF4o8yVaQxB-Hj_ZvzjWojjtTA8nTiP8jOLxzse-lcsglwsNVranDZ92IoSoE4LVFhZBsXOhGgpK3d3oGbZn3Fi_uW4HJX0cKWSr650Eh6vKLWU91dE8VIgwQd6gSUkpycRw8lWwd8HmxTukb6_DH7EqpriLUBRl0S71mVmE_EZWPYUoiX3rwJyKBEOQBsMWdaZiYOoev1NRNC8ZpZbDkUu4pn9y9IH6Umtw9_-_jExOYuIqn0fXcYS4gsS-E2QA3W54VsXoH1mfzCdXj-wWDwWSHhD8aYCG8-gRMKRTuWNQa6YDqZz4pqYCDzbR3GZJnmDP6KwcuxZBLRUdKtdKv0fd42qrSaRDRoOL52tuRe6PWX5Y9CH0hwTiSd89-q3DCWeEC6mpBgvUGPLP1cAHUQsL4Lf1_UaHNl0JRAI3mAVK34UZLRBfeyCWEffcXIlC19SQ7TApiZJgJPtCas5GjEoR_LK7G-EqU9uy9g9p8gjw3voYHto3VJhN1X-9pFfdd3yNM7Hffstj3vrIb2g9Lw_dE28foLJtkJpn0PaKaag3JQoRBMAe2TQFGePPQA7umtGAGEJwIPI4dD-iPZEO_o8B-4hkuygONsTo7W_5of5gFwk1-kmJaVRp4k50qX3JyJNzjN8LZ9XjdhGRjCB9XYUqI_hTkjey0h6VWjIwbJNjLxyKekkSxzY90uPK7d2ImtTOivOpWe9wesxA67FqbwZWqTU1wjN6Czpen-4fIarubUKE-jbiBelerzY6pzBiQM4mm3K8o2KHKBgYE4m7fzzKmqF8-dR4GYCe5yccFPnvVeXG_ho_yhYfgmMnt8Z_U6NbL7ZwqfqrApmv7JKBEpQZaG92DNi1ha8vpJcJN6iDUVNLvDXFFtwY2-cCJHJ_Y-1kcvIxQFazl5Loh7gfH9fhF6yZ2BIqHDULU-ZvkAWFdf-XgGm9hoECsuT3YC9hTAFExHndNtpcxvLVytdVwr_6wWRavQllQP4PTYdz8Mr7C3bJo_k7lxFLgvSkHtbrWNsqpATVm00?></g></svg>