<?plantuml 1.2026.2?>
<svg xmlns="http://www.w3.org/2000/svg" xmlns:xlink="http://www.w3.org/1999/xlink" contentStyleType="text/css" data-diagram-type="SEQUENCE" height="1998px" preserveAspectRatio="none" style="width:1965px;height:1998px;background:#FEFEFE;" version="1.1" viewBox="0 0 1965 1998" width="1965px" zoomAndPan="magnify"><title>Sequence Diagram: Create a Kanban Card</title><defs/><g><rect fill="#FEFEFE" height="1998" style="stroke:none;stroke-width:1;" width="1965" x="0" y="0"/><text fill="#000000" font-family="Verdana" font-size="22" font-weight="bold" lengthAdjust="spacing" textLength="521.2754" x="720.5981" y="35.4209">Sequence Diagram: Create a Kanban Card</text><rect fill="#FFFFFF" height="134.4688" rx="5" ry="5" style="stroke:#000000;stroke-width:1;" width="685.7002" x="15" y="471.5547"/><path d="M15,546.9531 L700.7002,546.9531 L700.7002,601.0234 A5,5 0 0 1 695.7002,606.0234 L20,606.0234 A5,5 0 0 1 15,601.0234 L15,546.9531" fill="#FFFFFF" style="stroke:none;stroke-width:1;"/><rect fill="#FFFFFF" height="148.4688" rx="5" ry="5" style="stroke:#000000;stroke-width:1;" width="1024.9668" x="111.022" y="721.4219"/><path d="M111.022,825.9531 L1135.9888,825.9531 L1135.9888,864.8906 A5,5 0 0 1 1130.9888,869.8906 L116.022,869.8906 A5,5 0 0 1 111.022,864.8906 L111.022,825.9531" fill="#FFFFFF" style="stroke:none;stroke-width:1;"/><rect fill="#FFFFFF" height="163.6016" rx="5" ry="5" style="stroke:#000000;stroke-width:1;" width="1227.3623" x="111.022" y="971.2891"/><path d="M111.022,1090.9531 L1338.3843,1090.9531 L1338.3843,1129.8906 A5,5 0 0 1 1333.3843,1134.8906 L116.022,1134.8906 A5,5 0 0 1 111.022,1129.8906 L111.022,1090.9531" fill="#FFFFFF" style="stroke:none;stroke-width:1;"/><rect fill="#FFFFFF" height="367.5313" rx="5" ry="5" style="stroke:#000000;stroke-width:1;" width="1567.0576" x="381.4141" y="1352.8203"/><path d="M381.4141,1428.2188 L1948.4717,1428.2188 L1948.4717,1715.3516 A5,5 0 0 1 1943.4717,1720.3516 L386.4141,1720.3516 A5,5 0 0 1 381.4141,1715.3516 L381.4141,1428.2188" fill="#FFFFFF" style="stroke:none;stroke-width:1;"/><g class="participant-lifeline" data-entity-uid="part1" data-qualified-name="User" id="part1-lifeline"><g><title>User</title><rect fill="#000000" fill-opacity="0.00000" height="1750.0547" width="8" x="39.9551" y="148.0938"/><line style="stroke:#000000;stroke-width:1;stroke-dasharray:5,5;" x1="43" x2="43" y1="148.0938" y2="1898.1484"/></g></g><g class="participant-lifeline" data-entity-uid="part2" data-qualified-name="UI" id="part2-lifeline"><g><title>Task Manager UI</title><rect fill="#000000" fill-opacity="0.00000" height="1750.0547" width="8" x="192.6094" y="148.0938"/><line style="stroke:#000000;stroke-width:1;stroke-dasharray:5,5;" x1="196.022" x2="196.022" y1="148.0938" y2="1898.1484"/></g></g><g class="participant-lifeline" data-entity-uid="part3" data-qualified-name="HTTP" id="part3-lifeline"><g><title>HTTP Client</title><rect fill="#000000" fill-opacity="0.00000" height="1750.0547" width="8" x="444.9409" y="148.0938"/><line style="stroke:#000000;stroke-width:1;stroke-dasharray:5,5;" x1="448.4141" x2="448.4141" y1="148.0938" y2="1898.1484"/></g></g><g class="participant-lifeline" data-entity-uid="part4" data-qualified-name="Schema" id="part4-lifeline"><g><title>Shared Zod schema</title><rect fill="#000000" fill-opacity="0.00000" height="1750.0547" width="8" x="599.584" y="148.0938"/><line style="stroke:#000000;stroke-width:1;stroke-dasharray:5,5;" x1="603.4678" x2="603.4678" y1="148.0938" y2="1898.1484"/></g></g><g class="participant-lifeline" data-entity-uid="part5" data-qualified-name="Route" id="part5-lifeline"><g><title>Express route</title><rect fill="#000000" fill-opacity="0.00000" height="1750.0547" width="8" x="781.9707" y="148.0938"/><line style="stroke:#000000;stroke-width:1;stroke-dasharray:5,5;" x1="785.7002" x2="785.7002" y1="148.0938" y2="1898.1484"/></g></g><g class="participant-lifeline" data-entity-uid="part6" data-qualified-name="Auth" id="part6-lifeline"><g><title>Passport auth</title><rect fill="#000000" fill-opacity="0.00000" height="1750.0547" width="8" x="1056.7031" y="148.0938"/><line style="stroke:#000000;stroke-width:1;stroke-dasharray:5,5;" x1="1060.4175" x2="1060.4175" y1="148.0938" y2="1898.1484"/></g></g><g class="participant-lifeline" data-entity-uid="part7" data-qualified-name="Val" id="part7-lifeline"><g><title>Zod request validation</title><rect fill="#000000" fill-opacity="0.00000" height="1750.0547" width="8" x="1228.1865" y="148.0938"/><line style="stroke:#000000;stroke-width:1;stroke-dasharray:5,5;" x1="1231.9888" x2="1231.9888" y1="148.0938" y2="1898.1484"/></g></g><g class="participant-lifeline" data-entity-uid="part8" data-qualified-name="BL" id="part8-lifeline"><g><title>Kanban handlers</title><rect fill="#000000" fill-opacity="0.00000" height="1750.0547" width="8" x="1410.4775" y="148.0938"/><line style="stroke:#000000;stroke-width:1;stroke-dasharray:5,5;" x1="1414.3843" x2="1414.3843" y1="148.0938" y2="1898.1484"/></g></g><g class="participant-lifeline" data-entity-uid="part9" data-qualified-name="ORM" id="part9-lifeline"><g><title>Drizzle ORM</title><rect fill="#000000" fill-opacity="0.00000" height="1750.0547" width="8" x="1680.5889" y="148.0938"/><line style="stroke:#000000;stroke-width:1;stroke-dasharray:5,5;" x1="1684.1377" x2="1684.1377" y1="148.0938" y2="1898.1484"/></g></g><g class="participant-lifeline" data-entity-uid="part10" data-qualified-name="DB" id="part10-lifeline"><g><title>PostgreSQL</title><rect fill="#000000" fill-opacity="0.00000" height="1750.0547" width="8" x="1842.2559" y="148.0938"/><line style="stroke:#000000;stroke-width:1;stroke-dasharray:5,5;" x1="1846.04" x2="1846.04" y1="148.0938" y2="1898.1484"/></g></g><g class="participant participant-head" data-entity-uid="part1" data-qualified-name="User" id="part1-head"><text fill="#000000" font-family="Verdana" font-size="14" lengthAdjust="spacing" textLength="31.9102" x="25" y="144.792">User</text><ellipse cx="43.9551" cy="79.7969" fill="#FFFFFF" rx="8" ry="8" style="stroke:#000000;stroke-width:1;"/><path d="M43.9551,87.7969 L43.9551,114.7969 M30.9551,95.7969 L56.9551,95.7969 M43.9551,114.7969 L30.9551,129.7969 M43.9551,114.7969 L56.9551,129.7969" fill="none" style="stroke:#000000;stroke-width:1;"/></g><g class="participant participant-tail" data-entity-uid="part1" data-qualified-name="User" id="part1-tail"><text fill="#000000" font-family="Verdana" font-size="14" lengthAdjust="spacing" textLength="31.9102" x="25" y="1910.1436">User</text><ellipse cx="43.9551" cy="1922.4453" fill="#FFFFFF" rx="8" ry="8" style="stroke:#000000;stroke-width:1;"/><path d="M43.9551,1930.4453 L43.9551,1957.4453 M30.9551,1938.4453 L56.9551,1938.4453 M43.9551,1957.4453 L30.9551,1972.4453 M43.9551,1957.4453 L56.9551,1972.4453" fill="none" style="stroke:#000000;stroke-width:1;"/></g><g class="participant participant-head" data-entity-uid="part2" data-qualified-name="UI" id="part2-head"><rect fill="#FFFFFF" height="46.5938" rx="5" ry="5" style="stroke:#000000;stroke-width:1;" width="131.1748" x="131.022" y="100.5"/><text fill="#000000" font-family="Verdana" font-size="14" lengthAdjust="spacing" textLength="117.1748" x="138.022" y="120.4951">Task Manager UI</text><text fill="#000000" font-family="Verdana" font-size="14" lengthAdjust="spacing" textLength="51.0303" x="171.0942" y="136.792">(React)</text></g><g class="participant participant-tail" data-entity-uid="part2" data-qualified-name="UI" id="part2-tail"><rect fill="#FFFFFF" height="46.5938" rx="5" ry="5" style="stroke:#000000;stroke-width:1;" width="131.1748" x="131.022" y="1897.1484"/><text fill="#000000" font-family="Verdana" font-size="14" lengthAdjust="spacing" textLength="117.1748" x="138.022" y="1917.1436">Task Manager UI</text><text fill="#000000" font-family="Verdana" font-size="14" lengthAdjust="spacing" textLength="51.0303" x="171.0942" y="1933.4404">(React)</text></g><g class="participant participant-head" data-entity-uid="part3" data-qualified-name="HTTP" id="part3-head"><rect fill="#FFFFFF" height="30.2969" rx="5" ry="5" style="stroke:#000000;stroke-width:1;" width="95.0537" x="401.4141" y="116.7969"/><text fill="#000000" font-family="Verdana" font-size="14" lengthAdjust="spacing" textLength="81.0537" x="408.4141" y="136.792">HTTP Client</text></g><g class="participant participant-tail" data-entity-uid="part3" data-qualified-name="HTTP" id="part3-tail"><rect fill="#FFFFFF" height="30.2969" rx="5" ry="5" style="stroke:#000000;stroke-width:1;" width="95.0537" x="401.4141" y="1897.1484"/><text fill="#000000" font-family="Verdana" font-size="14" lengthAdjust="spacing" textLength="81.0537" x="408.4141" y="1917.1436">HTTP Client</text></g><g class="participant participant-head" data-entity-uid="part4" data-qualified-name="Schema" id="part4-head"><rect fill="#FFFFFF" height="46.5938" rx="5" ry="5" style="stroke:#000000;stroke-width:1;" width="154.2324" x="526.4678" y="100.5"/><text fill="#000000" font-family="Verdana" font-size="14" lengthAdjust="spacing" textLength="140.2324" x="533.4678" y="120.4951">Shared Zod schema</text><text fill="#000000" font-family="Verdana" font-size="14" lengthAdjust="spacing" textLength="135.5703" x="535.7988" y="136.792">(shared/schema.ts)</text></g><g class="participant participant-tail" data-entity-uid="part4" data-qualified-name="Schema" id="part4-tail"><rect fill="#FFFFFF" height="46.5938" rx="5" ry="5" style="stroke:#000000;stroke-width:1;" width="154.2324" x="526.4678" y="1897.1484"/><text fill="#000000" font-family="Verdana" font-size="14" lengthAdjust="spacing" textLength="140.2324" x="533.4678" y="1917.1436">Shared Zod schema</text><text fill="#000000" font-family="Verdana" font-size="14" lengthAdjust="spacing" textLength="135.5703" x="535.7988" y="1933.4404">(shared/schema.ts)</text></g><g class="participant participant-head" data-entity-uid="part5" data-qualified-name="Route" id="part5-head"><rect fill="#FFFFFF" height="46.5938" rx="5" ry="5" style="stroke:#000000;stroke-width:1;" width="150.541" x="710.7002" y="100.5"/><text fill="#000000" font-family="Verdana" font-size="14" lengthAdjust="spacing" textLength="96.7217" x="737.6099" y="120.4951">Express route</text><text fill="#000000" font-family="Verdana" font-size="14" lengthAdjust="spacing" textLength="136.541" x="717.7002" y="136.792">(/api/kanban/cards)</text></g><g class="participant participant-tail" data-entity-uid="part5" data-qualified-name="Route" id="part5-tail"><rect fill="#FFFFFF" height="46.5938" rx="5" ry="5" style="stroke:#000000;stroke-width:1;" width="150.541" x="710.7002" y="1897.1484"/><text fill="#000000" font-family="Verdana" font-size="14" lengthAdjust="spacing" textLength="96.7217" x="737.6099" y="1917.1436">Express route</text><text fill="#000000" font-family="Verdana" font-size="14" lengthAdjust="spacing" textLength="136.541" x="717.7002" y="1933.4404">(/api/kanban/cards)</text></g><g class="participant participant-head" data-entity-uid="part6" data-qualified-name="Auth" id="part6-head"><rect fill="#FFFFFF" height="46.5938" rx="5" ry="5" style="stroke:#000000;stroke-width:1;" width="110.5713" x="1005.4175" y="100.5"/><text fill="#000000" font-family="Verdana" font-size="14" lengthAdjust="spacing" textLength="96.5713" x="1012.4175" y="120.4951">Passport auth</text><text fill="#000000" font-family="Verdana" font-size="14" lengthAdjust="spacing" textLength="82.2021" x="1019.6021" y="136.792">middleware</text></g><g class="participant participant-tail" data-entity-uid="part6" data-qualified-name="Auth" id="part6-tail"><rect fill="#FFFFFF" height="46.5938" rx="5" ry="5" style="stroke:#000000;stroke-width:1;" width="110.5713" x="1005.4175" y="1897.1484"/><text fill="#000000" font-family="Verdana" font-size="14" lengthAdjust="spacing" textLength="96.5713" x="1012.4175" y="1917.1436">Passport auth</text><text fill="#000000" font-family="Verdana" font-size="14" lengthAdjust="spacing" textLength="82.2021" x="1019.6021" y="1933.4404">middleware</text></g><g class="participant participant-head" data-entity-uid="part7" data-qualified-name="Val" id="part7-head"><rect fill="#FFFFFF" height="30.2969" rx="5" ry="5" style="stroke:#000000;stroke-width:1;" width="172.3955" x="1145.9888" y="116.7969"/><text fill="#000000" font-family="Verdana" font-size="14" lengthAdjust="spacing" textLength="158.3955" x="1152.9888" y="136.792">Zod request validation</text></g><g class="participant participant-tail" data-entity-uid="part7" data-qualified-name="Val" id="part7-tail"><rect fill="#FFFFFF" height="30.2969" rx="5" ry="5" style="stroke:#000000;stroke-width:1;" width="172.3955" x="1145.9888" y="1897.1484"/><text fill="#000000" font-family="Verdana" font-size="14" lengthAdjust="spacing" textLength="158.3955" x="1152.9888" y="1917.1436">Zod request validation</text></g><g class="participant participant-head" data-entity-uid="part8" data-qualified-name="BL" id="part8-head"><rect fill="#FFFFFF" height="46.5938" rx="5" ry="5" style="stroke:#000000;stroke-width:1;" width="132.1865" x="1348.3843" y="100.5"/><text fill="#000000" font-family="Verdana" font-size="14" lengthAdjust="spacing" textLength="118.1865" x="1355.3843" y="120.4951">Kanban handlers</text><text fill="#000000" font-family="Verdana" font-size="14" lengthAdjust="spacing" textLength="109.3203" x="1359.8174" y="136.792">(business logic)</text></g><g class="participant participant-tail" data-entity-uid="part8" data-qualified-name="BL" id="part8-tail"><rect fill="#FFFFFF" height="46.5938" rx="5" ry="5" style="stroke:#000000;stroke-width:1;" width="132.1865" x="1348.3843" y="1897.1484"/><text fill="#000000" font-family="Verdana" font-size="14" lengthAdjust="spacing" textLength="118.1865" x="1355.3843" y="1917.1436">Kanban handlers</text><text fill="#000000" font-family="Verdana" font-size="14" lengthAdjust="spacing" textLength="109.3203" x="1359.8174" y="1933.4404">(business logic)</text></g><g class="participant participant-head" data-entity-uid="part9" data-qualified-name="ORM" id="part9-head"><rect fill="#FFFFFF" height="30.2969" rx="5" ry="5" style="stroke:#000000;stroke-width:1;" width="98.9023" x="1635.1377" y="116.7969"/><text fill="#000000" font-family="Verdana" font-size="14" lengthAdjust="spacing" textLength="84.9023" x="1642.1377" y="136.792">Drizzle ORM</text></g><g class="participant participant-tail" data-entity-uid="part9" data-qualified-name="ORM" id="part9-tail"><rect fill="#FFFFFF" height="30.2969" rx="5" ry="5" style="stroke:#000000;stroke-width:1;" width="98.9023" x="1635.1377" y="1897.1484"/><text fill="#000000" font-family="Verdana" font-size="14" lengthAdjust="spacing" textLength="84.9023" x="1642.1377" y="1917.1436">Drizzle ORM</text></g><g class="participant participant-head" data-entity-uid="part10" data-qualified-name="DB" id="part10-head"><rect fill="#FFFFFF" height="95.4844" rx="5" ry="5" style="stroke:#000000;stroke-width:1;" width="164.4316" x="1764.04" y="51.6094"/><text fill="#000000" font-family="Verdana" font-size="14" lengthAdjust="spacing" textLength="80.7529" x="1805.8794" y="71.6045">PostgreSQL</text><text fill="#000000" font-family="Verdana" font-size="14" lengthAdjust="spacing" textLength="116.7783" x="1787.8667" y="87.9014">(kanban_boards,</text><text fill="#000000" font-family="Verdana" font-size="14" lengthAdjust="spacing" textLength="91.2051" x="1800.6533" y="104.1982">kanban_lists,</text><text fill="#000000" font-family="Verdana" font-size="14" lengthAdjust="spacing" textLength="101.5615" x="1795.4751" y="120.4951">kanban_cards,</text><text fill="#000000" font-family="Verdana" font-size="14" lengthAdjust="spacing" textLength="150.4316" x="1771.04" y="136.792">kanban_card_history)</text></g><g class="participant participant-tail" data-entity-uid="part10" data-qualified-name="DB" id="part10-tail"><rect fill="#FFFFFF" height="95.4844" rx="5" ry="5" style="stroke:#000000;stroke-width:1;" width="164.4316" x="1764.04" y="1897.1484"/><text fill="#000000" font-family="Verdana" font-size="14" lengthAdjust="spacing" textLength="80.7529" x="1805.8794" y="1917.1436">PostgreSQL</text><text fill="#000000" font-family="Verdana" font-size="14" lengthAdjust="spacing" textLength="116.7783" x="1787.8667" y="1933.4404">(kanban_boards,</text><text fill="#000000" font-family="Verdana" font-size="14" lengthAdjust="spacing" textLength="91.2051" x="1800.6533" y="1949.7373">kanban_lists,</text><text fill="#000000" font-family="Verdana" font-size="14" lengthAdjust="spacing" textLength="101.5615" x="1795.4751" y="1966.0342">kanban_cards,</text><text fill="#000000" font-family="Verdana" font-size="14" lengthAdjust="spacing" textLength="150.4316" x="1771.04" y="1982.3311">kanban_card_history)</text></g><rect fill="#FFFFFF" height="3" rx="5" ry="5" style="stroke:#FFFFFF;stroke-width:1;" width="1953.4717" x="5" y="178.6602"/><line style="stroke:#000000;stroke-width:0.5;" x1="5" x2="1958.4717" y1="178.6602" y2="178.6602"/><line style="stroke:#000000;stroke-width:0.5;" x1="5" x2="1958.4717" y1="181.6602" y2="181.6602"/><rect fill="#FFFFFF" height="23.1328" rx="5" ry="5" style="stroke:#000000;stroke-width:1;" width="341.1899" x="811.1409" y="168.0938"/><text fill="#000000" font-family="Verdana" font-size="13" font-weight="bold" lengthAdjust="spacing" textLength="322.6641" x="817.1409" y="184.1606">Step 1 — User opens the "Create card" form</text><g class="message" data-entity-1="part1" data-entity-2="part2" id="msg1"><polygon fill="#000000" points="184.6094,233.4922,194.6094,237.4922,184.6094,241.4922,188.6094,237.4922" style="stroke:#000000;stroke-width:1;"/><line style="stroke:#000000;stroke-width:2;" x1="43.9551" x2="190.6094" y1="237.4922" y2="237.4922"/><text fill="#000000" font-family="Verdana" font-size="13" lengthAdjust="spacing" textLength="105.3076" x="50.9551" y="217.2935">Click "Add card"</text><text fill="#000000" font-family="Verdana" font-size="13" lengthAdjust="spacing" textLength="100.4961" x="50.9551" y="232.4263">in a Kanban list</text></g><g class="message" data-entity-1="part2" data-entity-2="part4" id="msg2"><polygon fill="#000000" points="591.584,277.7578,601.584,281.7578,591.584,285.7578,595.584,281.7578" style="stroke:#000000;stroke-width:1;"/><line style="stroke:#000000;stroke-width:2;" x1="196.6094" x2="597.584" y1="281.7578" y2="281.7578"/><text fill="#000000" font-family="Verdana" font-size="13" lengthAdjust="spacing" textLength="153.8481" x="203.6094" y="261.5591">Load card form schema</text><text fill="#000000" font-family="Verdana" font-size="13" lengthAdjust="spacing" textLength="213.6685" x="203.6094" y="276.6919">(title, description, listId, boardId)</text></g><g class="message" data-entity-1="part4" data-entity-2="part2" id="msg3"><polygon fill="#000000" points="207.6094,306.8906,197.6094,310.8906,207.6094,314.8906,203.6094,310.8906" style="stroke:#000000;stroke-width:1;"/><line style="stroke:#000000;stroke-width:2;stroke-dasharray:2,2;" x1="201.6094" x2="602.584" y1="310.8906" y2="310.8906"/><text fill="#000000" font-family="Verdana" font-size="13" lengthAdjust="spacing" textLength="186.4751" x="213.6094" y="305.8247">Field definitions + validators</text></g><g class="message" data-entity-1="part2" data-entity-2="part1" id="msg4"><polygon fill="#000000" points="54.9551,336.0234,44.9551,340.0234,54.9551,344.0234,50.9551,340.0234" style="stroke:#000000;stroke-width:1;"/><line style="stroke:#000000;stroke-width:2;stroke-dasharray:2,2;" x1="48.9551" x2="195.6094" y1="340.0234" y2="340.0234"/><text fill="#000000" font-family="Verdana" font-size="13" lengthAdjust="spacing" textLength="114.3784" x="60.9551" y="334.9575">Render card form</text></g><rect fill="#FFFFFF" height="3" rx="5" ry="5" style="stroke:#FFFFFF;stroke-width:1;" width="1953.4717" x="5" y="368.5898"/><line style="stroke:#000000;stroke-width:0.5;" x1="5" x2="1958.4717" y1="368.5898" y2="368.5898"/><line style="stroke:#000000;stroke-width:0.5;" x1="5" x2="1958.4717" y1="371.5898" y2="371.5898"/><rect fill="#FFFFFF" height="23.1328" rx="5" ry="5" style="stroke:#000000;stroke-width:1;" width="284.2896" x="839.5911" y="358.0234"/><text fill="#000000" font-family="Verdana" font-size="13" font-weight="bold" lengthAdjust="spacing" textLength="265.7637" x="845.5911" y="374.0903">Step 2 — User submits the new card</text><g class="message" data-entity-1="part1" data-entity-2="part2" id="msg5"><polygon fill="#000000" points="184.6094,423.4219,194.6094,427.4219,184.6094,431.4219,188.6094,427.4219" style="stroke:#000000;stroke-width:1;"/><line style="stroke:#000000;stroke-width:2;" x1="43.9551" x2="190.6094" y1="427.4219" y2="427.4219"/><text fill="#000000" font-family="Verdana" font-size="13" lengthAdjust="spacing" textLength="128.6543" x="50.9551" y="407.2231">Fill title/description,</text><text fill="#000000" font-family="Verdana" font-size="13" lengthAdjust="spacing" textLength="88.6196" x="50.9551" y="422.356">click "Create"</text></g><g class="message" data-entity-1="part2" data-entity-2="part4" id="msg6"><polygon fill="#000000" points="591.584,452.5547,601.584,456.5547,591.584,460.5547,595.584,456.5547" style="stroke:#000000;stroke-width:1;"/><line style="stroke:#000000;stroke-width:2;" x1="196.6094" x2="597.584" y1="456.5547" y2="456.5547"/><text fill="#000000" font-family="Verdana" font-size="13" lengthAdjust="spacing" textLength="133.7959" x="203.6094" y="451.4888">Validate form locally</text></g><path d="M20,471.5547 L79.4429,471.5547 L79.4429,478.6875 L69.4429,488.6875 L15,488.6875 L15,476.5547 A5,5 0 0 1 20,471.5547" fill="#FFFFFF" style="stroke:#000000;stroke-width:1;"/><rect fill="none" height="134.4688" rx="5" ry="5" style="stroke:#000000;stroke-width:1;" width="685.7002" x="15" y="471.5547"/><text fill="#000000" font-family="Verdana" font-size="13" font-weight="bold" lengthAdjust="spacing" textLength="19.4429" x="30" y="484.6216">alt</text><text fill="#000000" font-family="Verdana" font-size="11" font-weight="bold" lengthAdjust="spacing" textLength="101.5996" x="94.4429" y="483.7651">[Form is invalid]</text><g class="message" data-entity-1="part4" data-entity-2="part2" id="msg7"><polygon fill="#000000" points="207.6094,505.8203,197.6094,509.8203,207.6094,513.8203,203.6094,509.8203" style="stroke:#000000;stroke-width:1;"/><line style="stroke:#000000;stroke-width:2;stroke-dasharray:2,2;" x1="201.6094" x2="602.584" y1="509.8203" y2="509.8203"/><text fill="#000000" font-family="Verdana" font-size="13" lengthAdjust="spacing" textLength="108.0942" x="213.6094" y="504.7544">Validation errors</text></g><g class="message" data-entity-1="part2" data-entity-2="part1" id="msg8"><polygon fill="#000000" points="54.9551,534.9531,44.9551,538.9531,54.9551,542.9531,50.9551,538.9531" style="stroke:#000000;stroke-width:1;"/><line style="stroke:#000000;stroke-width:2;stroke-dasharray:2,2;" x1="48.9551" x2="195.6094" y1="538.9531" y2="538.9531"/><text fill="#000000" font-family="Verdana" font-size="13" lengthAdjust="spacing" textLength="117.4126" x="60.9551" y="533.8872">Show inline errors</text></g><line style="stroke:#000000;stroke-width:1;stroke-dasharray:2,2;" x1="15" x2="700.7002" y1="547.9531" y2="547.9531"/><text fill="#000000" font-family="Verdana" font-size="11" font-weight="bold" lengthAdjust="spacing" textLength="89.998" x="20" y="558.1636">[Form is valid]</text><g class="message" data-entity-1="part2" data-entity-2="part3" id="msg9"><polygon fill="#000000" points="436.9409,594.0234,446.9409,598.0234,436.9409,602.0234,440.9409,598.0234" style="stroke:#000000;stroke-width:1;"/><line style="stroke:#000000;stroke-width:2;" x1="196.6094" x2="442.9409" y1="598.0234" y2="598.0234"/><text fill="#000000" font-family="Verdana" font-size="13" lengthAdjust="spacing" textLength="155.0415" x="203.6094" y="577.8247">POST /api/kanban/cards</text><text fill="#000000" font-family="Verdana" font-size="13" lengthAdjust="spacing" textLength="228.3315" x="203.6094" y="592.9575">{ title, description, listId, boardId }</text></g><rect fill="#FFFFFF" height="3" rx="5" ry="5" style="stroke:#FFFFFF;stroke-width:1;" width="1953.4717" x="5" y="633.5898"/><line style="stroke:#000000;stroke-width:0.5;" x1="5" x2="1958.4717" y1="633.5898" y2="633.5898"/><line style="stroke:#000000;stroke-width:0.5;" x1="5" x2="1958.4717" y1="636.5898" y2="636.5898"/><rect fill="#FFFFFF" height="23.1328" rx="5" ry="5" style="stroke:#000000;stroke-width:1;" width="291.7988" x="835.8364" y="623.0234"/><text fill="#000000" font-family="Verdana" font-size="13" font-weight="bold" lengthAdjust="spacing" textLength="273.2729" x="841.8364" y="639.0903">Step 3 — Server receives the request</text><g class="message" data-entity-1="part3" data-entity-2="part5" id="msg10"><polygon fill="#000000" points="773.9707,673.2891,783.9707,677.2891,773.9707,681.2891,777.9707,677.2891" style="stroke:#000000;stroke-width:1;"/><line style="stroke:#000000;stroke-width:2;" x1="448.9409" x2="779.9707" y1="677.2891" y2="677.2891"/><text fill="#000000" font-family="Verdana" font-size="13" lengthAdjust="spacing" textLength="200.9351" x="455.9409" y="672.2231">HTTP request + session cookie</text></g><g class="message" data-entity-1="part5" data-entity-2="part6" id="msg11"><polygon fill="#000000" points="1048.7031,702.4219,1058.7031,706.4219,1048.7031,710.4219,1052.7031,706.4219" style="stroke:#000000;stroke-width:1;"/><line style="stroke:#000000;stroke-width:2;" x1="785.9707" x2="1054.7031" y1="706.4219" y2="706.4219"/><text fill="#000000" font-family="Verdana" font-size="13" lengthAdjust="spacing" textLength="250.7324" x="792.9707" y="701.356">Check session / company membership</text></g><path d="M116.022,721.4219 L175.4648,721.4219 L175.4648,728.5547 L165.4648,738.5547 L111.022,738.5547 L111.022,726.4219 A5,5 0 0 1 116.022,721.4219" fill="#FFFFFF" style="stroke:#000000;stroke-width:1;"/><rect fill="none" height="148.4688" rx="5" ry="5" style="stroke:#000000;stroke-width:1;" width="1024.9668" x="111.022" y="721.4219"/><text fill="#000000" font-family="Verdana" font-size="13" font-weight="bold" lengthAdjust="spacing" textLength="19.4429" x="126.022" y="734.4888">alt</text><text fill="#000000" font-family="Verdana" font-size="11" font-weight="bold" lengthAdjust="spacing" textLength="123.1055" x="190.4648" y="733.6323">[Not authenticated]</text><g class="message" data-entity-1="part6" data-entity-2="part5" id="msg12"><polygon fill="#000000" points="796.9707,755.6875,786.9707,759.6875,796.9707,763.6875,792.9707,759.6875" style="stroke:#000000;stroke-width:1;"/><line style="stroke:#000000;stroke-width:2;stroke-dasharray:2,2;" x1="790.9707" x2="1059.7031" y1="759.6875" y2="759.6875"/><text fill="#000000" font-family="Verdana" font-size="13" lengthAdjust="spacing" textLength="40.8853" x="802.9707" y="754.6216">Reject</text></g><g class="message" data-entity-1="part5" data-entity-2="part3" id="msg13"><polygon fill="#000000" points="459.9409,784.8203,449.9409,788.8203,459.9409,792.8203,455.9409,788.8203" style="stroke:#000000;stroke-width:1;"/><line style="stroke:#000000;stroke-width:2;stroke-dasharray:2,2;" x1="453.9409" x2="784.9707" y1="788.8203" y2="788.8203"/><text fill="#000000" font-family="Verdana" font-size="13" lengthAdjust="spacing" textLength="116.2256" x="465.9409" y="783.7544">401 Unauthorized</text></g><g class="message" data-entity-1="part3" data-entity-2="part2" id="msg14"><polygon fill="#000000" points="207.6094,813.9531,197.6094,817.9531,207.6094,821.9531,203.6094,817.9531" style="stroke:#000000;stroke-width:1;"/><line style="stroke:#000000;stroke-width:2;stroke-dasharray:2,2;" x1="201.6094" x2="447.9409" y1="817.9531" y2="817.9531"/><text fill="#000000" font-family="Verdana" font-size="13" lengthAdjust="spacing" textLength="133.7007" x="213.6094" y="812.8872">Show "please log in"</text></g><line style="stroke:#000000;stroke-width:1;stroke-dasharray:2,2;" x1="111.022" x2="1135.9888" y1="826.9531" y2="826.9531"/><text fill="#000000" font-family="Verdana" font-size="11" font-weight="bold" lengthAdjust="spacing" textLength="98.3447" x="116.022" y="837.1636">[Authenticated]</text><g class="message" data-entity-1="part6" data-entity-2="part5" id="msg15"><polygon fill="#000000" points="796.9707,857.8906,786.9707,861.8906,796.9707,865.8906,792.9707,861.8906" style="stroke:#000000;stroke-width:1;"/><line style="stroke:#000000;stroke-width:2;stroke-dasharray:2,2;" x1="790.9707" x2="1059.7031" y1="861.8906" y2="861.8906"/><text fill="#000000" font-family="Verdana" font-size="13" lengthAdjust="spacing" textLength="160.7861" x="802.9707" y="856.8247">user + company context</text></g><rect fill="#FFFFFF" height="3" rx="5" ry="5" style="stroke:#FFFFFF;stroke-width:1;" width="1953.4717" x="5" y="897.457"/><line style="stroke:#000000;stroke-width:0.5;" x1="5" x2="1958.4717" y1="897.457" y2="897.457"/><line style="stroke:#000000;stroke-width:0.5;" x1="5" x2="1958.4717" y1="900.457" y2="900.457"/><rect fill="#FFFFFF" height="23.1328" rx="5" ry="5" style="stroke:#000000;stroke-width:1;" width="279.1416" x="842.165" y="886.8906"/><text fill="#000000" font-family="Verdana" font-size="13" font-weight="bold" lengthAdjust="spacing" textLength="260.6157" x="848.165" y="902.9575">Step 4 — Validate the request body</text><g class="message" data-entity-1="part5" data-entity-2="part7" id="msg16"><polygon fill="#000000" points="1220.1865,952.2891,1230.1865,956.2891,1220.1865,960.2891,1224.1865,956.2891" style="stroke:#000000;stroke-width:1;"/><line style="stroke:#000000;stroke-width:2;" x1="785.9707" x2="1226.1865" y1="956.2891" y2="956.2891"/><text fill="#000000" font-family="Verdana" font-size="13" lengthAdjust="spacing" textLength="141.7178" x="792.9707" y="936.0903">Validate body against</text><text fill="#000000" font-family="Verdana" font-size="13" lengthAdjust="spacing" textLength="118.2632" x="792.9707" y="951.2231">cardInsertSchema</text></g><path d="M116.022,971.2891 L175.4648,971.2891 L175.4648,978.4219 L165.4648,988.4219 L111.022,988.4219 L111.022,976.2891 A5,5 0 0 1 116.022,971.2891" fill="#FFFFFF" style="stroke:#000000;stroke-width:1;"/><rect fill="none" height="163.6016" rx="5" ry="5" style="stroke:#000000;stroke-width:1;" width="1227.3623" x="111.022" y="971.2891"/><text fill="#000000" font-family="Verdana" font-size="13" font-weight="bold" lengthAdjust="spacing" textLength="19.4429" x="126.022" y="984.356">alt</text><text fill="#000000" font-family="Verdana" font-size="11" font-weight="bold" lengthAdjust="spacing" textLength="104.9082" x="190.4648" y="983.4995">[Invalid payload]</text><g class="message" data-entity-1="part7" data-entity-2="part5" id="msg17"><polygon fill="#000000" points="796.9707,1005.5547,786.9707,1009.5547,796.9707,1013.5547,792.9707,1009.5547" style="stroke:#000000;stroke-width:1;"/><line style="stroke:#000000;stroke-width:2;stroke-dasharray:2,2;" x1="790.9707" x2="1231.1865" y1="1009.5547" y2="1009.5547"/><text fill="#000000" font-family="Verdana" font-size="13" lengthAdjust="spacing" textLength="61.2295" x="802.9707" y="1004.4888">Zod error</text></g><g class="message" data-entity-1="part5" data-entity-2="part3" id="msg18"><polygon fill="#000000" points="459.9409,1049.8203,449.9409,1053.8203,459.9409,1057.8203,455.9409,1053.8203" style="stroke:#000000;stroke-width:1;"/><line style="stroke:#000000;stroke-width:2;stroke-dasharray:2,2;" x1="453.9409" x2="784.9707" y1="1053.8203" y2="1053.8203"/><text fill="#000000" font-family="Verdana" font-size="13" lengthAdjust="spacing" textLength="111.6045" x="465.9409" y="1033.6216">400 Bad Request</text><text fill="#000000" font-family="Verdana" font-size="13" lengthAdjust="spacing" textLength="96.0273" x="465.9409" y="1048.7544">{ issues: [...] }</text></g><g class="message" data-entity-1="part3" data-entity-2="part2" id="msg19"><polygon fill="#000000" points="207.6094,1078.9531,197.6094,1082.9531,207.6094,1086.9531,203.6094,1082.9531" style="stroke:#000000;stroke-width:1;"/><line style="stroke:#000000;stroke-width:2;stroke-dasharray:2,2;" x1="201.6094" x2="447.9409" y1="1082.9531" y2="1082.9531"/><text fill="#000000" font-family="Verdana" font-size="13" lengthAdjust="spacing" textLength="146.104" x="213.6094" y="1077.8872">Show validation errors</text></g><line style="stroke:#000000;stroke-width:1;stroke-dasharray:2,2;" x1="111.022" x2="1338.3843" y1="1091.9531" y2="1091.9531"/><text fill="#000000" font-family="Verdana" font-size="11" font-weight="bold" lengthAdjust="spacing" textLength="94.3271" x="116.022" y="1102.1636">[Valid payload]</text><g class="message" data-entity-1="part7" data-entity-2="part5" id="msg20"><polygon fill="#000000" points="796.9707,1122.8906,786.9707,1126.8906,796.9707,1130.8906,792.9707,1126.8906" style="stroke:#000000;stroke-width:1;"/><line style="stroke:#000000;stroke-width:2;stroke-dasharray:2,2;" x1="790.9707" x2="1231.1865" y1="1126.8906" y2="1126.8906"/><text fill="#000000" font-family="Verdana" font-size="13" lengthAdjust="spacing" textLength="110.4302" x="802.9707" y="1121.8247">Parsed card data</text></g><rect fill="#FFFFFF" height="3" rx="5" ry="5" style="stroke:#FFFFFF;stroke-width:1;" width="1953.4717" x="5" y="1162.457"/><line style="stroke:#000000;stroke-width:0.5;" x1="5" x2="1958.4717" y1="1162.457" y2="1162.457"/><line style="stroke:#000000;stroke-width:0.5;" x1="5" x2="1958.4717" y1="1165.457" y2="1165.457"/><rect fill="#FFFFFF" height="23.1328" rx="5" ry="5" style="stroke:#000000;stroke-width:1;" width="299.4414" x="832.0151" y="1151.8906"/><text fill="#000000" font-family="Verdana" font-size="13" font-weight="bold" lengthAdjust="spacing" textLength="280.9155" x="838.0151" y="1167.9575">Step 5 — Apply Kanban business rules</text><g class="message" data-entity-1="part5" data-entity-2="part8" id="msg21"><polygon fill="#000000" points="1402.4775,1202.1563,1412.4775,1206.1563,1402.4775,1210.1563,1406.4775,1206.1563" style="stroke:#000000;stroke-width:1;"/><line style="stroke:#000000;stroke-width:2;" x1="785.9707" x2="1408.4775" y1="1206.1563" y2="1206.1563"/><text fill="#000000" font-family="Verdana" font-size="13" lengthAdjust="spacing" textLength="240.5889" x="792.9707" y="1201.0903">createCard(userId, companyId, data)</text></g><g class="message" data-entity-1="part8" data-entity-2="part9" id="msg22"><polygon fill="#000000" points="1672.5889,1246.4219,1682.5889,1250.4219,1672.5889,1254.4219,1676.5889,1250.4219" style="stroke:#000000;stroke-width:1;"/><line style="stroke:#000000;stroke-width:2;" x1="1414.4775" x2="1678.5889" y1="1250.4219" y2="1250.4219"/><text fill="#000000" font-family="Verdana" font-size="13" lengthAdjust="spacing" textLength="195.1016" x="1421.4775" y="1230.2231">SELECT list WHERE id = :listId</text><text fill="#000000" font-family="Verdana" font-size="13" lengthAdjust="spacing" textLength="246.1113" x="1421.4775" y="1245.356">AND board_id IN (boards of company)</text></g><g class="message" data-entity-1="part9" data-entity-2="part10" id="msg23"><polygon fill="#000000" points="1834.2559,1275.5547,1844.2559,1279.5547,1834.2559,1283.5547,1838.2559,1279.5547" style="stroke:#000000;stroke-width:1;"/><line style="stroke:#000000;stroke-width:2;" x1="1684.5889" x2="1840.2559" y1="1279.5547" y2="1279.5547"/><text fill="#000000" font-family="Verdana" font-size="13" lengthAdjust="spacing" textLength="25.7271" x="1691.5889" y="1274.4888">SQL</text></g><g class="message" data-entity-1="part10" data-entity-2="part9" id="msg24"><polygon fill="#000000" points="1695.5889,1304.6875,1685.5889,1308.6875,1695.5889,1312.6875,1691.5889,1308.6875" style="stroke:#000000;stroke-width:1;"/><line style="stroke:#000000;stroke-width:2;stroke-dasharray:2,2;" x1="1689.5889" x2="1845.2559" y1="1308.6875" y2="1308.6875"/><text fill="#000000" font-family="Verdana" font-size="13" lengthAdjust="spacing" textLength="47.1567" x="1701.5889" y="1303.6216">list row</text></g><g class="message" data-entity-1="part9" data-entity-2="part8" id="msg25"><polygon fill="#000000" points="1425.4775,1333.8203,1415.4775,1337.8203,1425.4775,1341.8203,1421.4775,1337.8203" style="stroke:#000000;stroke-width:1;"/><line style="stroke:#000000;stroke-width:2;stroke-dasharray:2,2;" x1="1419.4775" x2="1683.5889" y1="1337.8203" y2="1337.8203"/><text fill="#000000" font-family="Verdana" font-size="13" lengthAdjust="spacing" textLength="55.4404" x="1431.4775" y="1332.7544">list | null</text></g><path d="M386.4141,1352.8203 L445.8569,1352.8203 L445.8569,1359.9531 L435.8569,1369.9531 L381.4141,1369.9531 L381.4141,1357.8203 A5,5 0 0 1 386.4141,1352.8203" fill="#FFFFFF" style="stroke:#000000;stroke-width:1;"/><rect fill="none" height="367.5313" rx="5" ry="5" style="stroke:#000000;stroke-width:1;" width="1567.0576" x="381.4141" y="1352.8203"/><text fill="#000000" font-family="Verdana" font-size="13" font-weight="bold" lengthAdjust="spacing" textLength="19.4429" x="396.4141" y="1365.8872">alt</text><text fill="#000000" font-family="Verdana" font-size="11" font-weight="bold" lengthAdjust="spacing" textLength="318.2695" x="460.8569" y="1365.0308">[List not found or does not belong to the company]</text><g class="message" data-entity-1="part8" data-entity-2="part5" id="msg26"><polygon fill="#000000" points="796.9707,1387.0859,786.9707,1391.0859,796.9707,1395.0859,792.9707,1391.0859" style="stroke:#000000;stroke-width:1;"/><line style="stroke:#000000;stroke-width:2;stroke-dasharray:2,2;" x1="790.9707" x2="1413.4775" y1="1391.0859" y2="1391.0859"/><text fill="#000000" font-family="Verdana" font-size="13" lengthAdjust="spacing" textLength="185.2056" x="802.9707" y="1386.02">Throw NotFound / Forbidden</text></g><g class="message" data-entity-1="part5" data-entity-2="part3" id="msg27"><polygon fill="#000000" points="459.9409,1416.2188,449.9409,1420.2188,459.9409,1424.2188,455.9409,1420.2188" style="stroke:#000000;stroke-width:1;"/><line style="stroke:#000000;stroke-width:2;stroke-dasharray:2,2;" x1="453.9409" x2="784.9707" y1="1420.2188" y2="1420.2188"/><text fill="#000000" font-family="Verdana" font-size="13" lengthAdjust="spacing" textLength="62.2705" x="465.9409" y="1415.1528">404 / 403</text></g><line style="stroke:#000000;stroke-width:1;stroke-dasharray:2,2;" x1="381.4141" x2="1948.4717" y1="1429.2188" y2="1429.2188"/><text fill="#000000" font-family="Verdana" font-size="11" font-weight="bold" lengthAdjust="spacing" textLength="72.3486" x="386.4141" y="1439.4292">[List found]</text><g class="message" data-entity-1="part8" data-entity-2="part9" id="msg28"><polygon fill="#000000" points="1672.5889,1460.1563,1682.5889,1464.1563,1672.5889,1468.1563,1676.5889,1464.1563" style="stroke:#000000;stroke-width:1;"/><line style="stroke:#000000;stroke-width:2;" x1="1414.4775" x2="1678.5889" y1="1464.1563" y2="1464.1563"/><text fill="#000000" font-family="Verdana" font-size="13" lengthAdjust="spacing" textLength="177.1694" x="1421.4775" y="1459.0903">INSERT INTO kanban_cards</text></g><g class="message" data-entity-1="part9" data-entity-2="part10" id="msg29"><polygon fill="#000000" points="1834.2559,1489.2891,1844.2559,1493.2891,1834.2559,1497.2891,1838.2559,1493.2891" style="stroke:#000000;stroke-width:1;"/><line style="stroke:#000000;stroke-width:2;" x1="1684.5889" x2="1840.2559" y1="1493.2891" y2="1493.2891"/><text fill="#000000" font-family="Verdana" font-size="13" lengthAdjust="spacing" textLength="25.7271" x="1691.5889" y="1488.2231">SQL</text></g><g class="message" data-entity-1="part10" data-entity-2="part9" id="msg30"><polygon fill="#000000" points="1695.5889,1518.4219,1685.5889,1522.4219,1695.5889,1526.4219,1691.5889,1522.4219" style="stroke:#000000;stroke-width:1;"/><line style="stroke:#000000;stroke-width:2;stroke-dasharray:2,2;" x1="1689.5889" x2="1845.2559" y1="1522.4219" y2="1522.4219"/><text fill="#000000" font-family="Verdana" font-size="13" lengthAdjust="spacing" textLength="86.1567" x="1701.5889" y="1517.356">inserted card</text></g><g class="message" data-entity-1="part9" data-entity-2="part8" id="msg31"><polygon fill="#000000" points="1425.4775,1547.5547,1415.4775,1551.5547,1425.4775,1555.5547,1421.4775,1551.5547" style="stroke:#000000;stroke-width:1;"/><line style="stroke:#000000;stroke-width:2;stroke-dasharray:2,2;" x1="1419.4775" x2="1683.5889" y1="1551.5547" y2="1551.5547"/><text fill="#000000" font-family="Verdana" font-size="13" lengthAdjust="spacing" textLength="28.7104" x="1431.4775" y="1546.4888">card</text></g><g class="message" data-entity-1="part8" data-entity-2="part9" id="msg32"><polygon fill="#000000" points="1672.5889,1591.8203,1682.5889,1595.8203,1672.5889,1599.8203,1676.5889,1595.8203" style="stroke:#000000;stroke-width:1;"/><line style="stroke:#000000;stroke-width:2;" x1="1414.4775" x2="1678.5889" y1="1595.8203" y2="1595.8203"/><text fill="#000000" font-family="Verdana" font-size="13" lengthAdjust="spacing" textLength="221.6094" x="1421.4775" y="1575.6216">INSERT INTO kanban_card_history</text><text fill="#000000" font-family="Verdana" font-size="13" lengthAdjust="spacing" textLength="115.6226" x="1421.4775" y="1590.7544">(action: 'created')</text></g><g class="message" data-entity-1="part9" data-entity-2="part10" id="msg33"><polygon fill="#000000" points="1834.2559,1620.9531,1844.2559,1624.9531,1834.2559,1628.9531,1838.2559,1624.9531" style="stroke:#000000;stroke-width:1;"/><line style="stroke:#000000;stroke-width:2;" x1="1684.5889" x2="1840.2559" y1="1624.9531" y2="1624.9531"/><text fill="#000000" font-family="Verdana" font-size="13" lengthAdjust="spacing" textLength="25.7271" x="1691.5889" y="1619.8872">SQL</text></g><g class="message" data-entity-1="part10" data-entity-2="part9" id="msg34"><polygon fill="#000000" points="1695.5889,1650.0859,1685.5889,1654.0859,1695.5889,1658.0859,1691.5889,1654.0859" style="stroke:#000000;stroke-width:1;"/><line style="stroke:#000000;stroke-width:2;stroke-dasharray:2,2;" x1="1689.5889" x2="1845.2559" y1="1654.0859" y2="1654.0859"/><text fill="#000000" font-family="Verdana" font-size="13" lengthAdjust="spacing" textLength="130.2222" x="1701.5889" y="1649.02">inserted history row</text></g><g class="message" data-entity-1="part9" data-entity-2="part8" id="msg35"><polygon fill="#000000" points="1425.4775,1679.2188,1415.4775,1683.2188,1425.4775,1687.2188,1421.4775,1683.2188" style="stroke:#000000;stroke-width:1;"/><line style="stroke:#000000;stroke-width:2;stroke-dasharray:2,2;" x1="1419.4775" x2="1683.5889" y1="1683.2188" y2="1683.2188"/><text fill="#000000" font-family="Verdana" font-size="13" lengthAdjust="spacing" textLength="44.7129" x="1431.4775" y="1678.1528">history</text></g><g class="message" data-entity-1="part8" data-entity-2="part5" id="msg36"><polygon fill="#000000" points="796.9707,1708.3516,786.9707,1712.3516,796.9707,1716.3516,792.9707,1712.3516" style="stroke:#000000;stroke-width:1;"/><line style="stroke:#000000;stroke-width:2;stroke-dasharray:2,2;" x1="790.9707" x2="1413.4775" y1="1712.3516" y2="1712.3516"/><text fill="#000000" font-family="Verdana" font-size="13" lengthAdjust="spacing" textLength="92.5806" x="802.9707" y="1707.2856">card + history</text></g><rect fill="#FFFFFF" height="3" rx="5" ry="5" style="stroke:#FFFFFF;stroke-width:1;" width="1953.4717" x="5" y="1747.918"/><line style="stroke:#000000;stroke-width:0.5;" x1="5" x2="1958.4717" y1="1747.918" y2="1747.918"/><line style="stroke:#000000;stroke-width:0.5;" x1="5" x2="1958.4717" y1="1750.918" y2="1750.918"/><rect fill="#FFFFFF" height="23.1328" rx="5" ry="5" style="stroke:#000000;stroke-width:1;" width="245.1245" x="859.1736" y="1737.3516"/><text fill="#000000" font-family="Verdana" font-size="13" font-weight="bold" lengthAdjust="spacing" textLength="226.5986" x="865.1736" y="1753.4185">Step 6 — Respond to the client</text><g class="message" data-entity-1="part5" data-entity-2="part3" id="msg37"><polygon fill="#000000" points="459.9409,1802.75,449.9409,1806.75,459.9409,1810.75,455.9409,1806.75" style="stroke:#000000;stroke-width:1;"/><line style="stroke:#000000;stroke-width:2;stroke-dasharray:2,2;" x1="453.9409" x2="784.9707" y1="1806.75" y2="1806.75"/><text fill="#000000" font-family="Verdana" font-size="13" lengthAdjust="spacing" textLength="80.6787" x="465.9409" y="1786.5513">201 Created</text><text fill="#000000" font-family="Verdana" font-size="13" lengthAdjust="spacing" textLength="53.5171" x="465.9409" y="1801.6841">{ card }</text></g><g class="message" data-entity-1="part3" data-entity-2="part2" id="msg38"><polygon fill="#000000" points="207.6094,1831.8828,197.6094,1835.8828,207.6094,1839.8828,203.6094,1835.8828" style="stroke:#000000;stroke-width:1;"/><line style="stroke:#000000;stroke-width:2;stroke-dasharray:2,2;" x1="201.6094" x2="447.9409" y1="1835.8828" y2="1835.8828"/><text fill="#000000" font-family="Verdana" font-size="13" lengthAdjust="spacing" textLength="118.5679" x="213.6094" y="1830.8169">Update local state</text></g><g class="message" data-entity-1="part2" data-entity-2="part1" id="msg39"><polygon fill="#000000" points="54.9551,1876.1484,44.9551,1880.1484,54.9551,1884.1484,50.9551,1880.1484" style="stroke:#000000;stroke-width:1;"/><line style="stroke:#000000;stroke-width:2;stroke-dasharray:2,2;" x1="48.9551" x2="195.6094" y1="1880.1484" y2="1880.1484"/><text fill="#000000" font-family="Verdana" font-size="13" lengthAdjust="spacing" textLength="124.3887" x="60.9551" y="1859.9497">Show the new card</text><text fill="#000000" font-family="Verdana" font-size="13" lengthAdjust="spacing" textLength="113.8643" x="60.9551" y="1875.0825">in the Kanban list</text></g><?plantuml-src ZLPVJoCt47_tfvYc3mU28nn7-n29IWa4NTGSS4cWKfiAERicSUFOMzk1oxKdzKFq4_QJT6QyMNO1jIWFsRNdxsz-CxFVn8LQAIYCr5Q4fRQ5z785CvajvzwjRNxgZFFmxNcVVZM9e7vVAvkfhlVkORBGsTAg4E2e9iBwcVDMUNXtA4JKqIWObufmfkKSnJfmwfMC2YJyAErCMZYLFXT2PX4Tjww3yYsG0UX1eE6eCrr86w4raM497wMLStHmFPZQdP52hTqaFcWAVvXChk3KQ6KZtzDxKsAya5xbyBFB8MI8YaI3WS_QwVqWXcHxpAzDxVxdmXC0c7HKgDcMXMulEQ5sXWcLgYEwRcfUoH0AvoF8TLnCxKhdkL4Fw9SLkdZObAS0FO4O8jnBetCPjRCiV2DDKxP4T24jslG1uvgjW-PA6JVNMGggDsngdNdzvGkMwdBqaU_n_qd8BiIvL-DFGxIOahoTESfoVshBTwD3hBrcpLjwlLsWYFER5CHPJuYJ4nX7LS0x-EUllxdYu0fb0o1BeLNoX5HRSEVy2avEX62fjpzWmJjKtsm9hMwU9wcfrVQHLnIHk1wGSAfW1uPE9j5ahwexKtKVSXKohml2Tv_L1_a-SAA3V5Sa8_2sT7wkbSbHvKvRJHe1zhRrSJwmOvB4S3imKZR7i2lFZwaVFQOUrhELZYbvgnwIzDEKpxKnmE6swz5ERPQmIA2rdkHza-9IAMtZCcdCHaWJuPmET01jENO1y2JDcufoeB3tCJE0HcxZXNj0TOCqsqee4rHbUMitHKHzs86ho_44dhNCrFu1hwW4V1K8voE4xnd2iVBt29DNcTBtAg6uRHi2aGS21i0TsU4ugliz76yXK8gPSqkj10kHDBKZycoX4DkjJ1kbLjWO6rYfrGpRRA4BnlB2fQR6cQCpH9ko9WCCLkbtf7vJMSIBqaK5oV7XExYsfEwm7LatXLpMWM5k5KP9n1QR6I5l9Q2x_-DoJVJPguBEd8tgSsnYUCmOLZIfWpTp-OOHh411iHgb-5xESQ64Y3Ia4bdq6CkfIS0C4hcWa1k37OWnedOzH9fnp9qNWJc47hRjACL39D4Xu6C7VZauEFWLwV0ILFVFUCjWtVnt85VI1rME2DIMJPI-OvIwHM4sso5JpLU_DiYw1awzOGSoxaTQSJjK1w9nMGXw91UxGlI698vZ5sFl3_kd4wOy_FIXF-e3Xdi2dTG3KzkzE4jzS8ldWmlOINCOtDtMxgv0GsJlh8VcFWt5MOypPFDi5pTuaYbZvCC_mQwD4Lol8HrOPFCThNJ0lPmxJ8vEPieuEuVec2EbIyIHKdY4SR907zGFvsoWJSDWXejEsHSBV8mInuVlKuNOEJikpPQX3ox6_T44_oQNK5yoAFKaOO1wofhPM1PrAxoj3dzwlCRDTddXii1l3cHL1zwaskPlTbyTGcc4Az2CfBmHpw1aAkvLzmq-Vizy72dyda2KjpNXZvuw4okaZt36f0MHKnknwQ-YqJlN1JSrhmW84P_5ysbVtr2yS-cWjdN_1G00?></g></svg>